<svg width="8" height="8" viewBox="0 0 8 8" fill="none" xmlns="http://www.w3.org/2000/svg">
<path d="M4 8C3.44667 8 2.92667 7.895 2.44 7.685C1.95333 7.475 1.53 7.19 1.17 6.83C0.81 6.47 0.525 6.04667 0.315 5.56C0.105 5.07333 0 4.55333 0 4C0 3.44667 0.105 2.92667 0.315 2.44C0.525 1.95333 0.81 1.53 1.17 1.17C1.53 0.81 1.95333 0.525 2.44 0.315C2.92667 0.105 3.44667 0 4 0C4.55333 0 5.07333 0.105 5.56 0.315C6.04667 0.525 6.47 0.81 6.83 1.17C7.19 1.53 7.475 1.95333 7.685 2.44C7.895 2.92667 8 3.44667 8 4C8 4.55333 7.895 5.07333 7.685 5.56C7.475 6.04667 7.19 6.47 6.83 6.83C6.47 7.19 6.04667 7.475 5.56 7.685C5.07333 7.895 4.55333 8 4 8Z" fill="#35BB33"/>
</svg>
