<svg width="14" height="14" viewBox="0 0 14 14" fill="none" xmlns="http://www.w3.org/2000/svg">
<mask id="mask0_1096_26828" style="mask-type:alpha" maskUnits="userSpaceOnUse" x="0" y="0" width="14" height="14">
<rect width="14" height="14" fill="#D9D9D9"/>
</mask>
<g mask="url(#mask0_1096_26828)">
<path d="M3.78942 9.9173L5.68526 7.00064L5.3863 7.45272C5.18699 7.75411 4.97067 8.08709 4.73734 8.45168C4.50401 8.81626 4.28769 9.15168 4.08838 9.45793L3.78942 9.9173ZM6.62869 10.7923H3.16237C2.95049 10.7923 2.796 10.7005 2.69889 10.5169C2.60179 10.3333 2.61082 10.1536 2.72599 9.97787L4.63304 7.00064L2.72599 4.0234C2.61082 3.84766 2.60179 3.66798 2.69889 3.48439C2.796 3.30079 2.95049 3.20898 3.16237 3.20898H8.48075C8.68335 3.20898 8.87329 3.25461 9.05058 3.34585C9.22785 3.43709 9.3737 3.56423 9.48812 3.72726L11.6846 6.83013C11.4931 6.76058 11.2944 6.70843 11.0884 6.67365C10.8823 6.63887 10.6776 6.62447 10.4742 6.63045L8.76122 4.22982C8.72756 4.18494 8.68829 4.14941 8.64343 4.12324C8.59855 4.09706 8.54432 4.08397 8.48075 4.08397H3.78942L5.68526 7.00064L3.78942 9.9173H6.64552C6.6201 10.0619 6.60739 10.2065 6.60739 10.3511C6.60739 10.4956 6.61449 10.6427 6.62869 10.7923ZM10.1051 10.7082L9.78989 10.393C9.72121 10.3241 9.63916 10.2897 9.54376 10.2897C9.44835 10.2897 9.36625 10.3243 9.29744 10.3933C9.22864 10.4624 9.19424 10.543 9.19424 10.6351C9.19424 10.7272 9.22864 10.8076 9.29744 10.8764L9.83254 11.4115C9.91086 11.4915 10.0022 11.5316 10.1067 11.5316C10.2111 11.5316 10.3033 11.4915 10.3833 11.4115L11.7026 10.1159C11.7714 10.0471 11.8067 9.96592 11.8086 9.87243C11.8104 9.77895 11.7751 9.69594 11.7026 9.6234C11.6329 9.5546 11.5496 9.5202 11.4529 9.5202C11.3561 9.5202 11.2733 9.5546 11.2045 9.6234L10.1051 10.7082ZM10.5 13.1593C9.77159 13.1593 9.15199 12.9039 8.64119 12.3931C8.13041 11.8823 7.87501 11.2627 7.87501 10.5343C7.87501 9.80588 8.13041 9.18627 8.64119 8.67549C9.15199 8.1647 9.77159 7.90931 10.5 7.90931C11.2284 7.90931 11.848 8.1647 12.3588 8.67549C12.8696 9.18627 13.125 9.80588 13.125 10.5343C13.125 11.2627 12.8696 11.8823 12.3588 12.3931C11.848 12.9039 11.2284 13.1593 10.5 13.1593Z" fill="#888888"/>
</g>
</svg>
