<svg width="14" height="14" viewBox="0 0 14 14" fill="none" xmlns="http://www.w3.org/2000/svg">
<mask id="mask0_787_39273" style="mask-type:alpha" maskUnits="userSpaceOnUse" x="0" y="0" width="14" height="14">
<rect width="14" height="14" fill="#666666"/>
</mask>
<g mask="url(#mask0_787_39273)">
<path d="M6.9974 11.0846C6.83212 11.0846 6.69358 11.0287 6.58177 10.9169C6.46997 10.8051 6.41406 10.6666 6.41406 10.5013V7.58464H3.4974C3.33212 7.58464 3.19358 7.52873 3.08177 7.41693C2.96997 7.30512 2.91406 7.16658 2.91406 7.0013C2.91406 6.83602 2.96997 6.69748 3.08177 6.58568C3.19358 6.47387 3.33212 6.41797 3.4974 6.41797H6.41406V3.5013C6.41406 3.33602 6.46997 3.19748 6.58177 3.08568C6.69358 2.97387 6.83212 2.91797 6.9974 2.91797C7.16267 2.91797 7.30122 2.97387 7.41302 3.08568C7.52483 3.19748 7.58073 3.33602 7.58073 3.5013V6.41797H10.4974C10.6627 6.41797 10.8012 6.47387 10.913 6.58568C11.0248 6.69748 11.0807 6.83602 11.0807 7.0013C11.0807 7.16658 11.0248 7.30512 10.913 7.41693C10.8012 7.52873 10.6627 7.58464 10.4974 7.58464H7.58073V10.5013C7.58073 10.6666 7.52483 10.8051 7.41302 10.9169C7.30122 11.0287 7.16267 11.0846 6.9974 11.0846Z" fill="#999999"/>
</g>
</svg>
