<svg width="14" height="14" viewBox="0 0 14 14" fill="none" xmlns="http://www.w3.org/2000/svg">
<mask id="mask0_791_9393" style="mask-type:alpha" maskUnits="userSpaceOnUse" x="0" y="0" width="14" height="14">
<rect width="14" height="14" fill="#D9D9D9"/>
</mask>
<g mask="url(#mask0_791_9393)">
<path d="M3.78997 9.91535L5.6858 6.99868L5.38685 7.45077C5.18754 7.75216 4.97122 8.08514 4.73789 8.44973C4.50455 8.81431 4.28824 9.14972 4.08893 9.45597L3.78997 9.91535ZM6.62924 10.7903H3.16292C2.95104 10.7903 2.79655 10.6985 2.69944 10.5149C2.60234 10.3313 2.61137 10.1517 2.72654 9.97591L4.63359 6.99868L2.72654 4.02145C2.61137 3.8457 2.60234 3.66603 2.69944 3.48244C2.79655 3.29883 2.95104 3.20703 3.16292 3.20703H8.4813C8.6839 3.20703 8.87384 3.25265 9.05113 3.3439C9.2284 3.43514 9.37425 3.56228 9.48867 3.72531L11.6851 6.82817C11.4937 6.75863 11.2949 6.70647 11.0889 6.6717C10.8829 6.63692 10.6782 6.62252 10.4748 6.6285L8.76176 4.22786C8.72811 4.18299 8.68884 4.14746 8.64398 4.12129C8.5991 4.09511 8.54487 4.08202 8.4813 4.08202H3.78997L5.6858 6.99868L3.78997 9.91535H6.64607C6.62065 10.0599 6.60794 10.2045 6.60794 10.3491C6.60794 10.4937 6.61504 10.6408 6.62924 10.7903ZM10.1057 10.7062L9.79044 10.391C9.72176 10.3222 9.63971 10.2878 9.54431 10.2878C9.4489 10.2878 9.3668 10.3223 9.29799 10.3914C9.22919 10.4605 9.19479 10.541 9.19479 10.6331C9.19479 10.7252 9.22919 10.8057 9.29799 10.8745L9.83309 11.4096C9.91141 11.4896 10.0028 11.5296 10.1072 11.5296C10.2116 11.5296 10.3039 11.4896 10.3839 11.4096L11.7031 10.1139C11.7719 10.0451 11.8072 9.96397 11.8091 9.87048C11.811 9.777 11.7756 9.69399 11.7031 9.62145C11.6334 9.55265 11.5502 9.51825 11.4534 9.51825C11.3566 9.51825 11.2738 9.55265 11.205 9.62145L10.1057 10.7062ZM10.5006 13.1573C9.77214 13.1573 9.15254 12.9019 8.64174 12.3911C8.13096 11.8803 7.87556 11.2607 7.87556 10.5323C7.87556 9.80392 8.13096 9.18432 8.64174 8.67354C9.15254 8.16275 9.77214 7.90736 10.5006 7.90736C11.229 7.90736 11.8486 8.16275 12.3594 8.67354C12.8701 9.18432 13.1255 9.80392 13.1255 10.5323C13.1255 11.2607 12.8701 11.8803 12.3594 12.3911C11.8486 12.9019 11.229 13.1573 10.5006 13.1573Z" fill="#888888"/>
</g>
</svg>
