<svg width="16" height="16" viewBox="0 0 16 16" fill="none" xmlns="http://www.w3.org/2000/svg">
<mask id="mask0_55_4729" style="mask-type:alpha" maskUnits="userSpaceOnUse" x="0" y="0" width="16" height="16">
<rect width="16" height="16" fill="#D9D9D9"/>
</mask>
<g mask="url(#mask0_55_4729)">
<path d="M5.41029 11.1666C5.55217 11.1666 5.67097 11.1188 5.76669 11.0231C5.86241 10.9273 5.91027 10.8085 5.91027 10.6667V7.33333C5.91027 7.19145 5.86241 7.07265 5.76669 6.97693C5.67097 6.88121 5.55217 6.83334 5.41029 6.83334C5.26841 6.83334 5.14961 6.88121 5.05389 6.97693C4.95816 7.07265 4.91029 7.19145 4.91029 7.33333V10.6667C4.91029 10.8085 4.95816 10.9273 5.05389 11.0231C5.14961 11.1188 5.26841 11.1666 5.41029 11.1666ZM8.00002 11.1666C8.1419 11.1666 8.2607 11.1188 8.35642 11.0231C8.45215 10.9273 8.50001 10.8085 8.50001 10.6667V5.33333C8.50001 5.19145 8.45215 5.07265 8.35642 4.97693C8.2607 4.88121 8.1419 4.83334 8.00002 4.83334C7.85815 4.83334 7.73935 4.88121 7.64362 4.97693C7.5479 5.07265 7.50004 5.19145 7.50004 5.33333V10.6667C7.50004 10.8085 7.5479 10.9273 7.64362 11.0231C7.73935 11.1188 7.85815 11.1666 8.00002 11.1666ZM10.5898 11.1666C10.7316 11.1666 10.8504 11.1188 10.9462 11.0231C11.0419 10.9273 11.0898 10.8085 11.0898 10.6667V9.33333C11.0898 9.19145 11.0419 9.07265 10.9462 8.97693C10.8504 8.88121 10.7316 8.83334 10.5898 8.83334C10.4479 8.83334 10.3291 8.88121 10.2334 8.97693C10.1376 9.07265 10.0898 9.19145 10.0898 9.33333V10.6667C10.0898 10.8085 10.1376 10.9273 10.2334 11.0231C10.3291 11.1188 10.4479 11.1666 10.5898 11.1666ZM3.53851 13.6666C3.20175 13.6666 2.91671 13.55 2.68337 13.3166C2.45004 13.0833 2.33337 12.7983 2.33337 12.4615V3.53848C2.33337 3.20172 2.45004 2.91668 2.68337 2.68334C2.91671 2.45001 3.20175 2.33334 3.53851 2.33334H12.4615C12.7983 2.33334 13.0833 2.45001 13.3167 2.68334C13.55 2.91668 13.6667 3.20172 13.6667 3.53848V12.4615C13.6667 12.7983 13.55 13.0833 13.3167 13.3166C13.0833 13.55 12.7983 13.6666 12.4615 13.6666H3.53851ZM3.53851 12.6667H12.4615C12.5128 12.6667 12.5598 12.6453 12.6026 12.6026C12.6453 12.5598 12.6667 12.5128 12.6667 12.4615V3.53848C12.6667 3.48719 12.6453 3.44017 12.6026 3.39743C12.5598 3.35469 12.5128 3.33333 12.4615 3.33333H3.53851C3.48722 3.33333 3.4402 3.35469 3.39746 3.39743C3.35472 3.44017 3.33336 3.48719 3.33336 3.53848V12.4615C3.33336 12.5128 3.35472 12.5598 3.39746 12.6026C3.4402 12.6453 3.48722 12.6667 3.53851 12.6667Z" fill="white"/>
</g>
</svg>
