<svg width="16" height="16" viewBox="0 0 16 16" fill="none" xmlns="http://www.w3.org/2000/svg">
<mask id="mask0_809_12404" style="mask-type:alpha" maskUnits="userSpaceOnUse" x="0" y="0" width="16" height="16">
<rect width="16" height="16" fill="#D9D9D9"/>
</mask>
<g mask="url(#mask0_809_12404)">
<path d="M7.99738 9.00155C7.72473 9.00155 7.48991 8.90305 7.29291 8.70604C7.0959 8.50904 6.9974 8.27422 6.9974 8.00157C6.9974 7.72893 7.0959 7.4941 7.29291 7.2971C7.48991 7.10009 7.72473 7.00159 7.99738 7.00159C8.27002 7.00159 8.50485 7.10009 8.70185 7.2971C8.89886 7.4941 8.99736 7.72893 8.99736 8.00157C8.99736 8.27422 8.89886 8.50904 8.70185 8.70604C8.50485 8.90305 8.27002 9.00155 7.99738 9.00155ZM3.1769 12.1093C2.70595 11.5528 2.33608 10.9259 2.06728 10.2285C1.79847 9.53105 1.66406 8.78875 1.66406 8.00157C1.66406 7.20756 1.79847 6.46354 2.06728 5.76952C2.33608 5.07551 2.70595 4.4503 3.1769 3.89389C3.2692 3.78363 3.38351 3.7285 3.51983 3.7285C3.65615 3.7285 3.77602 3.78022 3.87945 3.88364C3.97175 3.97594 4.02131 4.09025 4.02815 4.22657C4.03499 4.36289 3.99226 4.4896 3.89995 4.60669C3.51448 5.07079 3.21213 5.58959 2.9929 6.1631C2.77366 6.7366 2.66405 7.34943 2.66405 8.00157C2.66405 8.65372 2.77195 9.2676 2.98776 9.84324C3.20357 10.4189 3.50422 10.9366 3.8897 11.3965C3.982 11.5135 4.02751 11.6392 4.02623 11.7734C4.02495 11.9075 3.9726 12.0263 3.86918 12.1298C3.77003 12.2289 3.65295 12.2778 3.51791 12.2766C3.38287 12.2753 3.2692 12.2195 3.1769 12.1093ZM5.07048 10.2157C4.83715 9.9037 4.65552 9.56075 4.52561 9.18682C4.39569 8.81289 4.33073 8.4178 4.33073 8.00157C4.33073 7.58534 4.39569 7.18683 4.52561 6.80605C4.65552 6.42529 4.83715 6.08234 5.07048 5.77722C5.14911 5.66697 5.25659 5.61013 5.39291 5.6067C5.52923 5.60329 5.65252 5.65672 5.76278 5.76697C5.85508 5.85927 5.90401 5.97358 5.90956 6.1099C5.91512 6.24623 5.87858 6.37635 5.79995 6.50027C5.65208 6.71309 5.53691 6.94621 5.45443 7.19964C5.37195 7.45306 5.33071 7.72037 5.33071 8.00157C5.33071 8.28277 5.37195 8.55008 5.45443 8.8035C5.53691 9.05693 5.65208 9.29005 5.79995 9.50287C5.87858 9.62679 5.91448 9.75755 5.90765 9.89515C5.9008 10.0328 5.84909 10.1499 5.75251 10.2464C5.6491 10.3498 5.52923 10.3981 5.39291 10.3913C5.25659 10.3845 5.14911 10.3259 5.07048 10.2157ZM10.232 10.2362C10.1397 10.1439 10.0908 10.0296 10.0852 9.89324C10.0796 9.75692 10.1162 9.62679 10.1948 9.50287C10.3427 9.29005 10.4579 9.05693 10.5403 8.8035C10.6228 8.55008 10.664 8.28277 10.664 8.00157C10.664 7.72037 10.6228 7.45306 10.5403 7.19964C10.4579 6.94621 10.3427 6.71309 10.1948 6.50027C10.1162 6.37635 10.0803 6.24559 10.0871 6.10799C10.094 5.97038 10.1457 5.85328 10.2422 5.7567C10.3457 5.65329 10.4655 5.60329 10.6018 5.6067C10.7382 5.61013 10.8456 5.66697 10.9243 5.77722C11.1576 6.08234 11.3392 6.42529 11.4691 6.80605C11.5991 7.18683 11.664 7.58534 11.664 8.00157C11.664 8.4178 11.5991 8.81289 11.4691 9.18682C11.3392 9.56075 11.1576 9.9037 10.9243 10.2157C10.8456 10.3259 10.7365 10.3828 10.5967 10.3862C10.457 10.3896 10.3354 10.3396 10.232 10.2362ZM12.1256 12.1298C12.0333 12.0375 11.982 11.9214 11.9717 11.7817C11.9615 11.642 12.0025 11.5135 12.0948 11.3965C12.4803 10.9324 12.7826 10.4135 13.0019 9.84004C13.2211 9.26654 13.3307 8.65372 13.3307 8.00157C13.3307 7.34943 13.2228 6.7366 13.007 6.1631C12.7912 5.58959 12.4905 5.07079 12.1051 4.60669C12.0128 4.4896 11.9673 4.36396 11.9685 4.22977C11.9698 4.09559 12.0222 3.97679 12.1256 3.87337C12.2247 3.77423 12.3418 3.7253 12.4768 3.72659C12.6119 3.72787 12.7256 3.78363 12.8179 3.89389C13.2888 4.4503 13.6587 5.07551 13.9275 5.76952C14.1963 6.46354 14.3307 7.20756 14.3307 8.00157C14.3307 8.78875 14.1963 9.53105 13.9275 10.2285C13.6587 10.9259 13.2888 11.5528 12.8179 12.1093C12.7256 12.2195 12.6119 12.2753 12.4768 12.2766C12.3418 12.2778 12.2247 12.2289 12.1256 12.1298Z" fill="black"/>
</g>
</svg>
