<svg width="10" height="10" viewBox="0 0 10 10" fill="none" xmlns="http://www.w3.org/2000/svg">
<path d="M4.34379 9.25889L0.493791 5.40889C0.435457 5.35055 0.394138 5.28736 0.369832 5.2193C0.345527 5.15125 0.333374 5.07833 0.333374 5.00055C0.333374 4.92277 0.345527 4.84986 0.369832 4.7818C0.394138 4.71375 0.435457 4.65055 0.493791 4.59222L4.34379 0.742219C4.45074 0.635274 4.58442 0.579372 4.74483 0.57451C4.90525 0.569649 5.04379 0.625552 5.16046 0.742219C5.27712 0.849163 5.33789 0.982844 5.34275 1.14326C5.34761 1.30368 5.29171 1.44222 5.17504 1.55889L2.31671 4.41722H8.83546C9.00074 4.41722 9.13928 4.47312 9.25108 4.58493C9.36289 4.69673 9.41879 4.83527 9.41879 5.00055C9.41879 5.16583 9.36289 5.30437 9.25108 5.41618C9.13928 5.52798 9.00074 5.58389 8.83546 5.58389H2.31671L5.17504 8.44222C5.28199 8.54916 5.33789 8.68527 5.34275 8.85055C5.34761 9.01583 5.29171 9.15194 5.17504 9.25889C5.0681 9.37555 4.93199 9.43389 4.76671 9.43389C4.60143 9.43389 4.46046 9.37555 4.34379 9.25889Z" fill="#888888"/>
</svg>
