<svg width="14" height="14" viewBox="0 0 14 14" fill="none" xmlns="http://www.w3.org/2000/svg">
<mask id="mask0_1346_20621" style="mask-type:alpha" maskUnits="userSpaceOnUse" x="0" y="0" width="14" height="14">
<rect width="14" height="14" fill="#D9D9D9"/>
</mask>
<g mask="url(#mask0_1346_20621)">
<path d="M6.34379 11.2589L2.49379 7.40889C2.43546 7.35055 2.39414 7.28736 2.36983 7.2193C2.34553 7.15125 2.33337 7.07833 2.33337 7.00055C2.33337 6.92277 2.34553 6.84986 2.36983 6.7818C2.39414 6.71375 2.43546 6.65055 2.49379 6.59222L6.34379 2.74222C6.45074 2.63527 6.58442 2.57937 6.74483 2.57451C6.90525 2.56965 7.04379 2.62555 7.16046 2.74222C7.27712 2.84916 7.33789 2.98284 7.34275 3.14326C7.34761 3.30368 7.29171 3.44222 7.17504 3.55889L4.31671 6.41722H10.8355C11.0007 6.41722 11.1393 6.47312 11.2511 6.58493C11.3629 6.69673 11.4188 6.83527 11.4188 7.00055C11.4188 7.16583 11.3629 7.30437 11.2511 7.41618C11.1393 7.52798 11.0007 7.58389 10.8355 7.58389H4.31671L7.17504 10.4422C7.28199 10.5492 7.33789 10.6853 7.34275 10.8506C7.34761 11.0158 7.29171 11.1519 7.17504 11.2589C7.0681 11.3756 6.93199 11.4339 6.76671 11.4339C6.60143 11.4339 6.46046 11.3756 6.34379 11.2589Z" fill="#888888"/>
</g>
</svg>
