<svg width="14" height="14" viewBox="0 0 14 14" fill="none" xmlns="http://www.w3.org/2000/svg">
<mask id="mask0_73_6046" style="mask-type:alpha" maskUnits="userSpaceOnUse" x="0" y="0" width="14" height="14">
<rect width="14" height="14" fill="#D9D9D9"/>
</mask>
<g mask="url(#mask0_73_6046)">
<path d="M7.00003 11.2224C6.93347 11.2224 6.86897 11.2112 6.80652 11.1888C6.74407 11.1663 6.68556 11.1278 6.63097 11.0732L2.8651 7.30735C2.77461 7.21687 2.72937 7.11292 2.72937 6.9955C2.72937 6.8781 2.77461 6.77415 2.8651 6.68366C2.95559 6.59317 3.05805 6.54793 3.17247 6.54793C3.28688 6.54793 3.38933 6.59317 3.47983 6.68366L6.56254 9.76637V2.98623C6.56254 2.86208 6.60442 2.75962 6.68818 2.67885C6.77193 2.59809 6.87588 2.55771 7.00003 2.55771C7.12417 2.55771 7.22812 2.59959 7.31188 2.68334C7.39563 2.7671 7.43751 2.87105 7.43751 2.99519V9.76637L10.5202 6.68366C10.6107 6.59317 10.7132 6.54793 10.8276 6.54793C10.942 6.54793 11.0445 6.59317 11.135 6.68366C11.2254 6.77415 11.2707 6.8781 11.2707 6.9955C11.2707 7.11292 11.2254 7.21687 11.135 7.30735L7.36909 11.0732C7.3145 11.1278 7.25691 11.1663 7.19633 11.1888C7.13576 11.2112 7.07033 11.2224 7.00003 11.2224Z" fill="#888888"/>
</g>
</svg>
