<svg width="15" height="14" viewBox="0 0 15 14" fill="none" xmlns="http://www.w3.org/2000/svg">
<mask id="mask0_1901_264" style="mask-type:alpha" maskUnits="userSpaceOnUse" x="0" y="0" width="15" height="14">
<rect x="0.5" width="14" height="14" fill="#D9D9D9"/>
</mask>
<g mask="url(#mask0_1901_264)">
<path d="M7.19157 11.1349C7.10705 11.0504 7.0633 10.9479 7.06032 10.8275C7.05733 10.7071 7.09808 10.6047 7.18259 10.5202L10.2653 7.43745H3.49413C3.36998 7.43745 3.26603 7.39558 3.18228 7.31182C3.09852 7.22806 3.05664 7.12411 3.05664 6.99997C3.05664 6.87583 3.09852 6.77188 3.18228 6.68812C3.26603 6.60436 3.36998 6.56248 3.49413 6.56248H10.2653L7.18259 3.47977C7.09808 3.39526 7.05733 3.29281 7.06032 3.17241C7.0633 3.052 7.10705 2.94954 7.19157 2.86504C7.27608 2.78053 7.37853 2.73828 7.49893 2.73828C7.61933 2.73828 7.72178 2.78053 7.80629 2.86504L11.5722 6.63091C11.6267 6.67952 11.6653 6.73561 11.6877 6.79917C11.7101 6.86273 11.7213 6.92967 11.7213 6.99997C11.7213 7.06653 11.7101 7.13103 11.6877 7.19348C11.6653 7.25592 11.6267 7.31444 11.5722 7.36903L7.80629 11.1349C7.72178 11.2194 7.61933 11.2617 7.49893 11.2617C7.37853 11.2617 7.27608 11.2194 7.19157 11.1349Z" fill="white"/>
</g>
</svg>
