<svg width="16" height="16" viewBox="0 0 16 16" fill="none" xmlns="http://www.w3.org/2000/svg">
<mask id="mask0_1579_13858" style="mask-type:alpha" maskUnits="userSpaceOnUse" x="-1" y="0" width="17" height="16">
<rect x="-0.00012207" width="16" height="16" fill="#D9D9D9"/>
</mask>
<g mask="url(#mask0_1579_13858)">
<path d="M10.8332 5.20252L4.62807 11.4115C4.52892 11.5107 4.41119 11.5602 4.27487 11.5602C4.13854 11.5602 4.02081 11.5107 3.92167 11.4115C3.82252 11.3124 3.77295 11.1946 3.77295 11.0583C3.77295 10.922 3.82252 10.8043 3.92167 10.7051L10.1307 4.49997H4.66653C4.52487 4.49997 4.40612 4.45203 4.3103 4.35617C4.21447 4.26029 4.16655 4.14149 4.16655 3.99977C4.16655 3.85803 4.21447 3.73931 4.3103 3.64358C4.40612 3.54786 4.52487 3.5 4.66653 3.5H11.2306C11.4014 3.5 11.5445 3.55775 11.6599 3.67323C11.7754 3.78872 11.8332 3.93183 11.8332 4.10255V10.6667C11.8332 10.8083 11.7852 10.9271 11.6894 11.0229C11.5935 11.1187 11.4747 11.1666 11.333 11.1666C11.1912 11.1666 11.0725 11.1187 10.9768 11.0229C10.8811 10.9271 10.8332 10.8083 10.8332 10.6667V5.20252Z" fill="white"/>
</g>
</svg>
