<svg width="14" height="14" viewBox="0 0 14 14" fill="none" xmlns="http://www.w3.org/2000/svg">
<g id="arrow_forward_ios">
<mask id="mask0_57_5702" style="mask-type:alpha" maskUnits="userSpaceOnUse" x="0" y="0" width="14" height="14">
<rect id="Bounding box" width="14" height="14" fill="#D9D9D9"/>
</mask>
<g mask="url(#mask0_57_5702)">
<path id="arrow_forward_ios_2" d="M1.87558 4.17559C1.9915 4.05967 2.12948 4.00171 2.28952 4.00171C2.44955 4.00171 2.58753 4.05967 2.70345 4.17559L7.08856 8.56069L11.4882 4.161C11.5982 4.05106 11.7328 3.99609 11.8921 3.99609C12.0514 3.99609 12.1908 4.05592 12.3105 4.17559C12.4264 4.2915 12.4844 4.42948 12.4844 4.58952C12.4844 4.74956 12.4264 4.88753 12.3105 5.00345L7.45762 9.84736C7.40303 9.90195 7.34544 9.94047 7.28486 9.96291C7.22429 9.98534 7.15886 9.99655 7.08856 9.99655C7.01825 9.99655 6.95282 9.98534 6.89225 9.96291C6.83167 9.94047 6.77409 9.90195 6.7195 9.84736L1.861 4.98887C1.75106 4.87894 1.69609 4.74582 1.69609 4.58952C1.69609 4.43321 1.75592 4.29524 1.87558 4.17559Z" fill="#888888"/>
</g>
</g>
</svg>
