<svg width="14" height="14" viewBox="0 0 14 14" fill="none" xmlns="http://www.w3.org/2000/svg">
<mask id="mask0_194_94" style="mask-type:alpha" maskUnits="userSpaceOnUse" x="0" y="0" width="14" height="14">
<rect width="14" height="14" fill="#D9D9D9"/>
</mask>
<g mask="url(#mask0_194_94)">
<path d="M4.26616 12.213C4.15024 12.0971 4.09228 11.9591 4.09228 11.799C4.09228 11.639 4.15024 11.501 4.26616 11.3851L8.65127 7.00001L4.25158 2.60032C4.14164 2.49039 4.08667 2.35577 4.08667 2.19647C4.08667 2.03719 4.1465 1.89772 4.26616 1.77806C4.38208 1.66215 4.52006 1.60419 4.6801 1.60419C4.84013 1.60419 4.97811 1.66215 5.09403 1.77806L9.93794 6.63095C9.99253 6.68554 10.031 6.74312 10.0535 6.8037C10.0759 6.86427 10.0871 6.9297 10.0871 7.00001C10.0871 7.07031 10.0759 7.13574 10.0535 7.19631C10.031 7.25689 9.99253 7.31448 9.93794 7.36907L5.07945 12.2276C4.96952 12.3375 4.8364 12.3925 4.6801 12.3925C4.52379 12.3925 4.38581 12.3326 4.26616 12.213Z" fill="#888888"/>
</g>
</svg>
