<svg width="14" height="14" viewBox="0 0 14 14" fill="none" xmlns="http://www.w3.org/2000/svg">
<mask id="mask0_22_59" style="mask-type:alpha" maskUnits="userSpaceOnUse" x="0" y="0" width="14" height="14">
<rect width="14" height="14" fill="#D9D9D9"/>
</mask>
<g mask="url(#mask0_22_59)">
<path d="M4.26616 12.2129C4.15024 12.097 4.09228 11.959 4.09228 11.799C4.09228 11.6389 4.15024 11.501 4.26616 11.3851L8.65127 6.99995L4.25158 2.60026C4.14164 2.49033 4.08667 2.35571 4.08667 2.19641C4.08667 2.03712 4.1465 1.89765 4.26616 1.778C4.38208 1.66209 4.52006 1.60413 4.6801 1.60413C4.84013 1.60413 4.97811 1.66209 5.09403 1.778L9.93794 6.63088C9.99253 6.68547 10.031 6.74306 10.0535 6.80364C10.0759 6.86421 10.0871 6.92964 10.0871 6.99995C10.0871 7.07025 10.0759 7.13568 10.0535 7.19625C10.031 7.25683 9.99253 7.31442 9.93794 7.36901L5.07945 12.2275C4.96952 12.3374 4.8364 12.3924 4.6801 12.3924C4.52379 12.3924 4.38581 12.3326 4.26616 12.2129Z" fill="#888888"/>
</g>
</svg>
