<svg width="16" height="16" viewBox="0 0 16 16" fill="none" xmlns="http://www.w3.org/2000/svg">
<mask id="mask0_403_22932" style="mask-type:alpha" maskUnits="userSpaceOnUse" x="0" y="0" width="16" height="16">
<rect width="16" height="16" fill="#D9D9D9"/>
</mask>
<g mask="url(#mask0_403_22932)">
<path d="M3.53851 13.6668C3.20175 13.6668 2.91671 13.5501 2.68337 13.3168C2.45004 13.0835 2.33337 12.7984 2.33337 12.4617V3.53863C2.33337 3.20187 2.45004 2.91683 2.68337 2.6835C2.91671 2.45016 3.20175 2.3335 3.53851 2.3335H12.4615C12.7983 2.3335 13.0833 2.45016 13.3167 2.6835C13.55 2.91683 13.6667 3.20187 13.6667 3.53863V12.4617C13.6667 12.7984 13.55 13.0835 13.3167 13.3168C13.0833 13.5501 12.7983 13.6668 12.4615 13.6668H3.53851ZM3.33336 3.53863V12.4617C3.33336 12.513 3.35472 12.56 3.39746 12.6027C3.4402 12.6454 3.48722 12.6668 3.53851 12.6668H12.4615C12.5128 12.6668 12.5598 12.6454 12.6026 12.6027C12.6453 12.56 12.6667 12.513 12.6667 12.4617V3.53863C12.6667 3.48734 12.6453 3.44032 12.6026 3.39758C12.5598 3.35485 12.5128 3.33348 12.4615 3.33348H11.1667V7.17961C11.1667 7.30012 11.1165 7.3888 11.016 7.44565C10.9156 7.50248 10.8141 7.4997 10.7116 7.43731L9.97822 6.9886C9.87994 6.9262 9.77609 6.895 9.66669 6.895C9.55729 6.895 9.45345 6.9262 9.35516 6.9886L8.62182 7.43731C8.51927 7.4997 8.41777 7.50248 8.31734 7.44565C8.21692 7.3888 8.16671 7.30012 8.16671 7.17961V3.33348H3.53851C3.48722 3.33348 3.4402 3.35485 3.39746 3.39758C3.35472 3.44032 3.33336 3.48734 3.33336 3.53863Z" fill="#888888"/>
</g>
</svg>
