<svg width="12" height="12" viewBox="0 0 12 12" fill="none" xmlns="http://www.w3.org/2000/svg">
<mask id="mask0_791_9408" style="mask-type:alpha" maskUnits="userSpaceOnUse" x="0" y="0" width="12" height="12">
<rect width="12" height="12" fill="#D9D9D9"/>
</mask>
<g mask="url(#mask0_791_9408)">
<path d="M2.35625 9.65C2.26458 9.55833 2.21875 9.44167 2.21875 9.3C2.21875 9.15833 2.26458 9.04167 2.35625 8.95L7.80625 3.5H5.00625C4.86458 3.5 4.74583 3.45208 4.65 3.35625C4.55417 3.26042 4.50625 3.14167 4.50625 3C4.50625 2.85833 4.55417 2.73958 4.65 2.64375C4.74583 2.54792 4.86458 2.5 5.00625 2.5H9.00625C9.14792 2.5 9.26667 2.54792 9.3625 2.64375C9.45833 2.73958 9.50625 2.85833 9.50625 3V7C9.50625 7.14167 9.45833 7.26042 9.3625 7.35625C9.26667 7.45208 9.14792 7.5 9.00625 7.5C8.86458 7.5 8.74583 7.45208 8.65 7.35625C8.55417 7.26042 8.50625 7.14167 8.50625 7V4.2L3.04375 9.6625C2.95208 9.75417 2.83958 9.8 2.70625 9.8C2.57292 9.8 2.45625 9.75 2.35625 9.65Z" fill="#888888"/>
</g>
</svg>
