<svg width="16" height="16" viewBox="0 0 16 16" fill="none" xmlns="http://www.w3.org/2000/svg">
<mask id="mask0_800_12163" style="mask-type:alpha" maskUnits="userSpaceOnUse" x="0" y="0" width="16" height="16">
<rect width="16" height="16" fill="#D9D9D9"/>
</mask>
<g mask="url(#mask0_800_12163)">
<path d="M7.29483 7.99998L5.91278 9.38205C5.82047 9.47435 5.77325 9.59037 5.77111 9.73012C5.76897 9.86985 5.81619 9.98801 5.91278 10.0846C6.00936 10.1812 6.12645 10.2295 6.26405 10.2295C6.40165 10.2295 6.51873 10.1812 6.61531 10.0846L7.99738 8.70253L9.37945 10.0846C9.47175 10.1769 9.58777 10.2241 9.72751 10.2263C9.86725 10.2284 9.9854 10.1812 10.082 10.0846C10.1786 9.98801 10.2269 9.87092 10.2269 9.73332C10.2269 9.59572 10.1786 9.47863 10.082 9.38205L8.69993 7.99998L10.082 6.61792C10.1743 6.52562 10.2215 6.4096 10.2236 6.26985C10.2258 6.13012 10.1786 6.01196 10.082 5.91538C9.9854 5.8188 9.86831 5.7705 9.73071 5.7705C9.59311 5.7705 9.47602 5.8188 9.37945 5.91538L7.99738 7.29743L6.61531 5.91538C6.52301 5.82307 6.40699 5.77585 6.26725 5.77372C6.12751 5.77157 6.00936 5.8188 5.91278 5.91538C5.81619 6.01196 5.7679 6.12905 5.7679 6.26665C5.7679 6.40425 5.81619 6.52134 5.91278 6.61792L7.29483 7.99998ZM2.8692 13C2.53244 13 2.2474 12.8833 2.01406 12.65C1.78073 12.4166 1.66406 12.1316 1.66406 11.7948V4.20513C1.66406 3.86838 1.78073 3.58333 2.01406 3.35C2.2474 3.11667 2.53244 3 2.8692 3H13.1256C13.4623 3 13.7474 3.11667 13.9807 3.35C14.214 3.58333 14.3307 3.86838 14.3307 4.20513V11.7948C14.3307 12.1316 14.214 12.4166 13.9807 12.65C13.7474 12.8833 13.4623 13 13.1256 13H2.8692ZM2.8692 12H13.1256C13.1769 12 13.2239 11.9786 13.2666 11.9359C13.3093 11.8931 13.3307 11.8461 13.3307 11.7948V4.20513C13.3307 4.15385 13.3093 4.10683 13.2666 4.06408C13.2239 4.02135 13.1769 3.99998 13.1256 3.99998H2.8692C2.81791 3.99998 2.77089 4.02135 2.72815 4.06408C2.68541 4.10683 2.66405 4.15385 2.66405 4.20513V11.7948C2.66405 11.8461 2.68541 11.8931 2.72815 11.9359C2.77089 11.9786 2.81791 12 2.8692 12Z" fill="#888888"/>
</g>
</svg>
