<svg width="14" height="14" viewBox="0 0 14 14" fill="none" xmlns="http://www.w3.org/2000/svg">
<mask id="mask0_791_9396" style="mask-type:alpha" maskUnits="userSpaceOnUse" x="0" y="0" width="14" height="14">
<rect width="14" height="14" fill="#D9D9D9"/>
</mask>
<g mask="url(#mask0_791_9396)">
<path d="M10.9525 10.3554H8.75259C8.62863 10.3554 8.52473 10.3135 8.44087 10.2296C8.35703 10.1457 8.3151 10.0418 8.3151 9.91776C8.3151 9.79375 8.35703 9.68986 8.44087 9.6061C8.52473 9.52235 8.62863 9.48047 8.75259 9.48047H10.9525L10.1952 8.71763C10.1157 8.63088 10.0741 8.52786 10.0705 8.40858C10.0669 8.2893 10.1085 8.18628 10.1952 8.09953C10.282 8.01278 10.3841 7.9694 10.5016 7.9694C10.6191 7.9694 10.7218 8.01278 10.8099 8.09953L12.2593 9.54889C12.3648 9.65434 12.4175 9.77736 12.4175 9.91795C12.4175 10.0585 12.3648 10.1816 12.2593 10.287L10.8099 11.7364C10.7218 11.8231 10.6191 11.8665 10.5016 11.8665C10.3841 11.8665 10.282 11.8231 10.1952 11.7364C10.1085 11.6496 10.0669 11.5466 10.0705 11.4273C10.0741 11.308 10.1157 11.205 10.1952 11.1183L10.9525 10.3554ZM3.44089 10.3554L2.34752 11.4488C2.26277 11.5336 2.16673 11.5544 2.05941 11.5112C1.95209 11.4681 1.89844 11.3861 1.89844 11.2652V3.53495C1.89844 3.24496 2.00169 2.99672 2.20819 2.79022C2.41469 2.58372 2.66293 2.48047 2.95291 2.48047H9.8856C10.1756 2.48047 10.4238 2.58372 10.6303 2.79022C10.8368 2.99672 10.9401 3.24496 10.9401 3.53495V6.44487C10.8672 6.43291 10.7942 6.42543 10.7213 6.42245C10.6484 6.41945 10.5755 6.41795 10.5026 6.41795C10.4297 6.41795 10.3568 6.41945 10.2838 6.42245C10.2109 6.42543 10.138 6.43291 10.0651 6.44487V3.53495C10.0651 3.48259 10.0483 3.43959 10.0146 3.40593C9.98096 3.37227 9.93795 3.35544 9.8856 3.35544H2.95291C2.90056 3.35544 2.85755 3.37227 2.8239 3.40593C2.79024 3.43959 2.77341 3.48259 2.77341 3.53495V9.48047H7.02951C7.01754 9.55338 7.01007 9.6263 7.00708 9.6992C7.00409 9.77212 7.00259 9.84504 7.00259 9.91795C7.00259 9.99087 7.00409 10.0638 7.00708 10.1367C7.01007 10.2096 7.01754 10.2825 7.02951 10.3554H3.44089ZM4.55707 5.68877H8.28145C8.4054 5.68877 8.50931 5.64683 8.59315 5.56295C8.677 5.47905 8.71893 5.3751 8.71893 5.2511C8.71893 5.12708 8.677 5.02319 8.59315 4.93944C8.50931 4.85568 8.4054 4.8138 8.28145 4.8138H4.55707C4.43311 4.8138 4.32921 4.85574 4.24536 4.93963C4.16151 5.02352 4.11958 5.12747 4.11958 5.25148C4.11958 5.37549 4.16151 5.47938 4.24536 5.56314C4.32921 5.64689 4.43311 5.68877 4.55707 5.68877ZM4.55707 8.02211H6.53145C6.6554 8.02211 6.75931 7.98016 6.84315 7.89628C6.927 7.81239 6.96893 7.70844 6.96893 7.58443C6.96893 7.46041 6.927 7.35653 6.84315 7.27277C6.75931 7.18901 6.6554 7.14713 6.53145 7.14713H4.55707C4.43311 7.14713 4.32921 7.18908 4.24536 7.27296C4.16151 7.35685 4.11958 7.4608 4.11958 7.58481C4.11958 7.70883 4.16151 7.81271 4.24536 7.89647C4.32921 7.98023 4.43311 8.02211 4.55707 8.02211Z" fill="#888888"/>
</g>
</svg>
