<svg width="12" height="8" viewBox="0 0 12 8" fill="none" xmlns="http://www.w3.org/2000/svg">
<path d="M4.36709 7.7166C4.27821 7.7166 4.19487 7.70271 4.11709 7.67494C4.03932 7.64716 3.96709 7.59994 3.90043 7.53327L1.03376 4.6666C0.911539 4.54438 0.853205 4.38605 0.858761 4.1916C0.864316 3.99716 0.928205 3.83882 1.05043 3.7166C1.17265 3.59438 1.32821 3.53327 1.51709 3.53327C1.70598 3.53327 1.86154 3.59438 1.98376 3.7166L4.36709 6.09994L10.0171 0.449935C10.1393 0.327713 10.2977 0.266602 10.4921 0.266602C10.6865 0.266602 10.8449 0.327713 10.9671 0.449935C11.0893 0.572157 11.1504 0.73049 11.1504 0.924935C11.1504 1.11938 11.0893 1.27771 10.9671 1.39994L4.83376 7.53327C4.76709 7.59994 4.69487 7.64716 4.61709 7.67494C4.53932 7.70271 4.45598 7.7166 4.36709 7.7166Z" fill="#999999"/>
</svg>
