<svg width="16" height="16" viewBox="0 0 16 16" fill="none" xmlns="http://www.w3.org/2000/svg">
<mask id="mask0_26_5172" style="mask-type:alpha" maskUnits="userSpaceOnUse" x="0" y="0" width="16" height="16">
<rect width="16" height="16" fill="#D9D9D9"/>
</mask>
<g mask="url(#mask0_26_5172)">
<path d="M8.00006 8.70249L10.0488 10.7512C10.1411 10.8435 10.2571 10.8907 10.3969 10.8929C10.5366 10.895 10.6548 10.8478 10.7513 10.7512C10.8479 10.6546 10.8962 10.5375 10.8962 10.3999C10.8962 10.2623 10.8479 10.1453 10.7513 10.0487L8.70262 7.99994L10.7513 5.95121C10.8436 5.85891 10.8909 5.74289 10.893 5.60314C10.8951 5.46341 10.8479 5.34525 10.7513 5.24868C10.6548 5.15209 10.5377 5.10379 10.4001 5.10379C10.2625 5.10379 10.1454 5.15209 10.0488 5.24868L8.00006 7.29739L5.95133 5.24868C5.85903 5.15637 5.74301 5.10914 5.60326 5.10701C5.46353 5.10487 5.34538 5.15209 5.2488 5.24868C5.15221 5.34525 5.10391 5.46234 5.10391 5.59994C5.10391 5.73754 5.15221 5.85463 5.2488 5.95121L7.29751 7.99994L5.2488 10.0487C5.15649 10.141 5.10926 10.257 5.10713 10.3967C5.10499 10.5365 5.15221 10.6546 5.2488 10.7512C5.34538 10.8478 5.46246 10.8961 5.60006 10.8961C5.73766 10.8961 5.85475 10.8478 5.95133 10.7512L8.00006 8.70249ZM8.00118 14.3333C7.12523 14.3333 6.30187 14.167 5.53111 13.8346C4.76035 13.5021 4.08989 13.051 3.51975 12.4811C2.94959 11.9112 2.49822 11.241 2.16563 10.4706C1.83304 9.7002 1.66675 8.87702 1.66675 8.00106C1.66675 7.1251 1.83297 6.30175 2.16541 5.53099C2.49786 4.76023 2.94903 4.08977 3.51891 3.51963C4.08881 2.94947 4.75898 2.4981 5.5294 2.16551C6.29981 1.83292 7.12299 1.66663 7.99895 1.66663C8.8749 1.66663 9.69826 1.83285 10.469 2.16529C11.2398 2.49774 11.9102 2.9489 12.4804 3.51879C13.0505 4.08869 13.5019 4.75885 13.8345 5.52928C14.1671 6.29969 14.3334 7.12287 14.3334 7.99883C14.3334 8.87478 14.1672 9.69814 13.8347 10.4689C13.5023 11.2397 13.0511 11.9101 12.4812 12.4803C11.9113 13.0504 11.2412 13.5018 10.4707 13.8344C9.70032 14.167 8.87714 14.3333 8.00118 14.3333ZM8.00006 13.3333C9.48895 13.3333 10.7501 12.8166 11.7834 11.7833C12.8167 10.7499 13.3334 9.48883 13.3334 7.99994C13.3334 6.51105 12.8167 5.24994 11.7834 4.21661C10.7501 3.18328 9.48895 2.66661 8.00006 2.66661C6.51118 2.66661 5.25006 3.18328 4.21673 4.21661C3.1834 5.24994 2.66673 6.51105 2.66673 7.99994C2.66673 9.48883 3.1834 10.7499 4.21673 11.7833C5.25006 12.8166 6.51118 13.3333 8.00006 13.3333Z" fill="#888888"/>
</g>
</svg>
