<svg width="28" height="28" viewBox="0 0 28 28" fill="none" xmlns="http://www.w3.org/2000/svg">
  <rect width="28" height="28" rx="8" fill="white" fill-opacity="0.14"/>
  <mask id="mask0_1346_20831" style="mask-type:alpha" maskUnits="userSpaceOnUse" x="6" y="6" width="16" height="16">
    <rect x="6" y="6" width="16" height="16" fill="#D9D9D9"/>
  </mask>
  <g mask="url(#mask0_1346_20831)">
    <path d="M16.6987 15.668V12.3321C16.6987 12.1936 16.6374 12.0988 16.5147 12.0475C16.3921 11.9962 16.2816 12.0197 16.1833 12.118L14.7231 13.5782C14.6026 13.6988 14.5423 13.8393 14.5423 14C14.5423 14.1607 14.6026 14.3013 14.7231 14.4218L16.1833 15.8821C16.2816 15.9803 16.3921 16.0039 16.5147 15.9526C16.6374 15.9013 16.6987 15.8064 16.6987 15.668ZM9.53851 19.6667C9.20603 19.6667 8.92206 19.5489 8.68659 19.3135C8.45111 19.078 8.33337 18.794 8.33337 18.4615V9.53851C8.33337 9.20603 8.45111 8.92206 8.68659 8.68659C8.92206 8.45111 9.20603 8.33337 9.53851 8.33337H18.4615C18.794 8.33337 19.078 8.45111 19.3135 8.68659C19.5489 8.92206 19.6667 9.20603 19.6667 9.53851V18.4615C19.6667 18.794 19.5489 19.078 19.3135 19.3135C19.078 19.5489 18.794 19.6667 18.4615 19.6667H9.53851ZM11.3334 18.6667V9.33336H9.53851C9.48722 9.33336 9.4402 9.35472 9.39746 9.39746C9.35472 9.4402 9.33336 9.48722 9.33336 9.53851V18.4615C9.33336 18.5128 9.35472 18.5598 9.39746 18.6026C9.4402 18.6453 9.48722 18.6667 9.53851 18.6667H11.3334ZM12.3333 18.6667H18.4615C18.5128 18.6667 18.5598 18.6453 18.6026 18.6026C18.6453 18.5598 18.6667 18.5128 18.6667 18.4615V9.53851C18.6667 9.48722 18.6453 9.4402 18.6026 9.39746C18.5598 9.35472 18.5128 9.33336 18.4615 9.33336H12.3333V18.6667Z" fill="#888888"/>
  </g>
  <rect x="0.5" y="0.5" width="27" height="27" rx="7.5" stroke="white" stroke-opacity="0.08"/>
</svg>
