<svg width="16" height="16" viewBox="0 0 16 16" fill="none" xmlns="http://www.w3.org/2000/svg">
<mask id="mask0_801_12220" style="mask-type:alpha" maskUnits="userSpaceOnUse" x="0" y="0" width="16" height="16">
<rect width="16" height="16" transform="matrix(-1 0 0 1 16 0)" fill="#D9D9D9"/>
</mask>
<g mask="url(#mask0_801_12220)">
<path d="M7.69613 6.33075V9.66662C7.69613 9.80507 7.63481 9.89994 7.51216 9.95123C7.38951 10.0025 7.27903 9.979 7.18075 9.88072L5.72051 8.42046C5.6 8.29995 5.53974 8.15936 5.53974 7.99868C5.53974 7.838 5.6 7.69741 5.72051 7.5769L7.18075 6.11665C7.27903 6.01836 7.38951 5.99485 7.51216 6.04613C7.63481 6.09742 7.69613 6.19229 7.69613 6.33075ZM12.4589 13.6653C12.7914 13.6653 13.0754 13.5476 13.3108 13.3121C13.5463 13.0766 13.6641 12.7927 13.6641 12.4602V3.53716C13.6641 3.20469 13.5463 2.92071 13.3108 2.68525C13.0754 2.44977 12.7914 2.33203 12.4589 2.33203H3.5359C3.20342 2.33203 2.91944 2.44977 2.68398 2.68525C2.4485 2.92071 2.33076 3.20469 2.33076 3.53716V12.4602C2.33076 12.7927 2.4485 13.0766 2.68398 13.3121C2.91944 13.5476 3.20342 13.6653 3.5359 13.6653H12.4589ZM10.6641 12.6653V3.33201H12.4589C12.5102 3.33201 12.5572 3.35338 12.6 3.39611C12.6427 3.43886 12.6641 3.48588 12.6641 3.53716V12.4602C12.6641 12.5115 12.6427 12.5585 12.6 12.6012C12.5572 12.644 12.5102 12.6653 12.4589 12.6653H10.6641ZM9.6641 12.6653H3.5359C3.48461 12.6653 3.43759 12.644 3.39485 12.6012C3.35211 12.5585 3.33074 12.5115 3.33074 12.4602V3.53716C3.33074 3.48588 3.35211 3.43886 3.39485 3.39611C3.43759 3.35338 3.48461 3.33201 3.5359 3.33201H9.6641V12.6653Z" fill="#888888"/>
</g>
</svg>
