<svg width="16" height="16" viewBox="0 0 16 16" fill="none" xmlns="http://www.w3.org/2000/svg">
<mask id="mask0_800_12187" style="mask-type:alpha" maskUnits="userSpaceOnUse" x="0" y="0" width="16" height="16">
<rect width="16" height="16" fill="#D9D9D9"/>
</mask>
<g mask="url(#mask0_800_12187)">
<path d="M8.60426 8.0017C8.43353 8.0017 8.29042 7.94395 8.17493 7.82846C8.05944 7.71297 8.0017 7.56986 8.0017 7.39913V3.50171C8.0017 3.36005 8.04963 3.2413 8.14551 3.14546C8.24138 3.04963 8.36018 3.00171 8.50191 3.00171C8.64363 3.00171 8.76236 3.04963 8.85808 3.14546C8.95381 3.2413 9.00168 3.36005 9.00168 3.50171V6.30558L13.2171 2.08376C13.309 1.99146 13.426 1.94531 13.5681 1.94531C13.7101 1.94531 13.8273 1.99131 13.9196 2.08331C14.0119 2.17531 14.0581 2.2924 14.0581 2.43458C14.0581 2.57677 14.0119 2.69401 13.9196 2.78631L9.69781 7.00171H12.5017C12.6433 7.00171 12.7621 7.04965 12.8579 7.14553C12.9538 7.24141 13.0017 7.36021 13.0017 7.50193C13.0017 7.64366 12.9538 7.76239 12.8579 7.85811C12.7621 7.95384 12.6433 8.0017 12.5017 8.0017H8.60426ZM2.08376 13.9201C1.99146 13.8281 1.94531 13.711 1.94531 13.5688C1.94531 13.4266 1.99146 13.3094 2.08376 13.2171L6.30558 9.00168H3.50171C3.36005 9.00168 3.2413 8.95374 3.14546 8.85786C3.04963 8.76198 3.00171 8.64318 3.00171 8.50146C3.00171 8.35973 3.04963 8.241 3.14546 8.14528C3.2413 8.04956 3.36005 8.0017 3.50171 8.0017H7.39913C7.56986 8.0017 7.71297 8.05944 7.82846 8.17493C7.94395 8.29042 8.0017 8.43353 8.0017 8.60426V12.5017C8.0017 12.6433 7.95376 12.7621 7.85788 12.8579C7.76201 12.9538 7.64321 13.0017 7.50148 13.0017C7.35976 13.0017 7.24104 12.9538 7.14531 12.8579C7.04958 12.7621 7.00171 12.6433 7.00171 12.5017V9.69781L2.78631 13.9196C2.69439 14.0119 2.5774 14.0581 2.43533 14.0581C2.29326 14.0581 2.17607 14.0121 2.08376 13.9201Z" fill="#888888"/>
</g>
</svg>
