<svg width="16" height="16" viewBox="0 0 16 16" fill="none" xmlns="http://www.w3.org/2000/svg">
<mask id="mask0_804_12243" style="mask-type:alpha" maskUnits="userSpaceOnUse" x="0" y="0" width="16" height="16">
<rect width="16" height="16" fill="#D9D9D9"/>
</mask>
<g mask="url(#mask0_804_12243)">
<path d="M8.00292 8.70156L4.62085 12.0836C4.52855 12.1759 4.41253 12.2231 4.27279 12.2253C4.13305 12.2274 4.0149 12.1802 3.91832 12.0836C3.82173 11.987 3.77344 11.8699 3.77344 11.7323C3.77344 11.5947 3.82173 11.4777 3.91832 11.3811L7.30037 7.99901L3.91832 4.61695C3.82601 4.52465 3.77879 4.40863 3.77665 4.26888C3.77451 4.12915 3.82173 4.01099 3.91832 3.91441C4.0149 3.81783 4.13199 3.76953 4.26959 3.76953C4.40719 3.76953 4.52428 3.81783 4.62085 3.91441L8.00292 7.29646L11.385 3.91441C11.4773 3.8221 11.5933 3.77488 11.7331 3.77275C11.8728 3.7706 11.9909 3.81783 12.0875 3.91441C12.1841 4.01099 12.2324 4.12808 12.2324 4.26568C12.2324 4.40328 12.1841 4.52037 12.0875 4.61695L8.70547 7.99901L12.0875 11.3811C12.1798 11.4734 12.2271 11.5894 12.2292 11.7291C12.2313 11.8689 12.1841 11.987 12.0875 12.0836C11.9909 12.1802 11.8739 12.2285 11.7363 12.2285C11.5987 12.2285 11.4816 12.1802 11.385 12.0836L8.00292 8.70156Z" fill="white"/>
</g>
</svg>
