<svg width="14" height="14" viewBox="0 0 14 14" fill="none" xmlns="http://www.w3.org/2000/svg">
<mask id="mask0_804_12244" style="mask-type:alpha" maskUnits="userSpaceOnUse" x="0" y="0" width="14" height="14">
<rect width="14" height="14" fill="#D9D9D9"/>
</mask>
<g mask="url(#mask0_804_12244)">
<path d="M7.00549 7.6124L4.04618 10.5717C3.96541 10.6525 3.86389 10.6938 3.74162 10.6957C3.61935 10.6975 3.51597 10.6562 3.43146 10.5717C3.34695 10.4872 3.30469 10.3847 3.30469 10.2643C3.30469 10.1439 3.34695 10.0415 3.43146 9.95698L6.39075 6.99767L3.43146 4.03836C3.35069 3.9576 3.30937 3.85608 3.3075 3.73381C3.30563 3.61154 3.34695 3.50815 3.43146 3.42365C3.51597 3.33913 3.61842 3.29688 3.73882 3.29688C3.85922 3.29688 3.96167 3.33913 4.04618 3.42365L7.00549 6.38294L9.96479 3.42365C10.0456 3.34288 10.1471 3.30156 10.2694 3.29969C10.3916 3.29781 10.495 3.33913 10.5795 3.42365C10.664 3.50815 10.7063 3.61061 10.7063 3.73101C10.7063 3.85141 10.664 3.95386 10.5795 4.03836L7.62022 6.99767L10.5795 9.95698C10.6603 10.0377 10.7016 10.1393 10.7035 10.2615C10.7053 10.3838 10.664 10.4872 10.5795 10.5717C10.495 10.6562 10.3926 10.6985 10.2722 10.6985C10.1518 10.6985 10.0493 10.6562 9.96479 10.5717L7.00549 7.6124Z" fill="#888888"/>
</g>
</svg>
