<svg width="11" height="14" viewBox="0 0 11 14" fill="none" xmlns="http://www.w3.org/2000/svg">
  <path d="M1.83353 13.2051C1.49679 13.2051 1.21175 13.0884 0.978418 12.8551C0.745085 12.6218 0.628418 12.3367 0.628418 12V4.03848C0.628418 3.8966 0.676279 3.7778 0.772001 3.68208C0.867723 3.58635 0.986523 3.53849 1.1284 3.53849C1.27028 3.53849 1.38908 3.58635 1.4848 3.68208C1.58053 3.7778 1.6284 3.8966 1.6284 4.03848V12C1.6284 12.0513 1.64977 12.0983 1.6925 12.141C1.73523 12.1837 1.78225 12.2051 1.83353 12.2051H7.79502C7.9369 12.2051 8.0557 12.253 8.15143 12.3487C8.24716 12.4444 8.29502 12.5632 8.29502 12.7051C8.29502 12.847 8.24716 12.9658 8.15143 13.0615C8.0557 13.1572 7.9369 13.2051 7.79502 13.2051H1.83353ZM4.16685 10.8718C3.8301 10.8718 3.54505 10.7551 3.31172 10.5218C3.0784 10.2884 2.96173 10.0034 2.96173 9.66666V2.07694C2.96173 1.7402 3.0784 1.45516 3.31172 1.22183C3.54505 0.988493 3.8301 0.871826 4.16685 0.871826H9.75657C10.0933 0.871826 10.3784 0.988493 10.6117 1.22183C10.845 1.45516 10.9617 1.7402 10.9617 2.07694V9.66666C10.9617 10.0034 10.845 10.2884 10.6117 10.5218C10.3784 10.7551 10.0933 10.8718 9.75657 10.8718H4.16685ZM4.16685 9.87181H9.75657C9.80785 9.87181 9.85486 9.85044 9.8976 9.80769C9.94033 9.76496 9.9617 9.71795 9.9617 9.66666V2.07694C9.9617 2.02565 9.94033 1.97864 9.8976 1.93591C9.85486 1.89318 9.80785 1.87181 9.75657 1.87181H4.16685C4.11556 1.87181 4.06855 1.89318 4.02582 1.93591C3.98307 1.97864 3.9617 2.02565 3.9617 2.07694V9.66666C3.9617 9.71795 3.98307 9.76496 4.02582 9.80769C4.06855 9.85044 4.11556 9.87181 4.16685 9.87181Z" fill="#888888"/>
</svg>
