<svg width="32" height="32" viewBox="0 0 32 32" fill="none" xmlns="http://www.w3.org/2000/svg">
  <rect width="32" height="32" rx="16" transform="matrix(-1 0 0 1 32 0)" fill="white" fill-opacity="0.5"/>
  <mask id="mask0_543_47908" style="mask-type:alpha" maskUnits="userSpaceOnUse" x="6" y="6" width="20" height="20">
    <rect width="20" height="20" transform="matrix(-1 0 0 1 26 6)" fill="#D9D9D9"/>
  </mask>
  <g mask="url(#mask0_543_47908)">
    <path d="M12.5963 22C12.807 22 13.0072 21.9604 13.1968 21.8813C13.3865 21.8022 13.5603 21.6835 13.7184 21.5252L16.8793 18.3439C17.09 18.4283 17.3034 18.4916 17.5194 18.5338C17.7354 18.576 17.9646 18.5971 18.2069 18.5971C19.2605 18.5971 20.1561 18.2278 20.8937 17.4892C21.6312 16.7506 22 15.8537 22 14.7986C22 14.4187 21.9473 14.0573 21.842 13.7144C21.7366 13.3715 21.5891 13.047 21.3994 12.741L19.092 15.0518L17.954 13.9122L20.2615 11.6014C19.9559 11.4115 19.6319 11.2638 19.2895 11.1583C18.9471 11.0528 18.5862 11 18.2069 11C17.1533 11 16.2577 11.3693 15.5201 12.1079C14.7826 12.8465 14.4138 13.7434 14.4138 14.7986C14.4138 15.0412 14.4349 15.2707 14.477 15.4871C14.5192 15.7034 14.5824 15.917 14.6667 16.1281L11.4741 19.2935C11.3161 19.4518 11.1976 19.6259 11.1185 19.8158C11.0395 20.0058 11 20.2062 11 20.4173C11 20.6283 11.0421 20.8314 11.1264 21.0266C11.2107 21.2218 11.3266 21.3933 11.4741 21.541C11.6322 21.6993 11.806 21.8153 11.9957 21.8892C12.1853 21.9631 12.3855 22 12.5963 22ZM12.8017 20.6547C12.749 20.7074 12.6779 20.7312 12.5884 20.7259C12.4988 20.7206 12.4277 20.6916 12.375 20.6388C12.3223 20.5861 12.296 20.5149 12.296 20.4252C12.296 20.3355 12.3223 20.2643 12.375 20.2115L16.2155 16.3813C16.0259 16.1703 15.8889 15.9249 15.8046 15.6453C15.7203 15.3657 15.6782 15.0835 15.6782 14.7986C15.6782 14.1655 15.881 13.6141 16.2866 13.1446C16.6923 12.6751 17.1954 12.3928 17.796 12.2978L16.6264 13.4691C16.5 13.5957 16.4368 13.7434 16.4368 13.9122C16.4368 14.0811 16.5 14.2288 16.6264 14.3554L18.6494 16.3813C18.7759 16.5079 18.9234 16.5712 19.092 16.5712C19.2605 16.5712 19.408 16.5079 19.5345 16.3813L20.704 15.2101C20.6092 15.8115 20.3273 16.3153 19.8585 16.7216C19.3896 17.1278 18.8391 17.3309 18.2069 17.3309C17.933 17.3309 17.659 17.2887 17.3851 17.2043C17.1111 17.1199 16.8635 16.988 16.6422 16.8086L12.8017 20.6547Z" fill="#888888"/>
  </g>
</svg>
