<svg width="14" height="14" viewBox="0 0 14 14" fill="none" xmlns="http://www.w3.org/2000/svg">
<mask id="mask0_791_9405" style="mask-type:alpha" maskUnits="userSpaceOnUse" x="0" y="0" width="14" height="14">
<rect width="14" height="14" fill="#D9D9D9"/>
</mask>
<g mask="url(#mask0_791_9405)">
<path d="M2.47656 11.5195C2.3526 11.5195 2.2487 11.4776 2.16484 11.3937C2.08099 11.3098 2.03906 11.2058 2.03906 11.0818C2.03906 10.9578 2.08099 10.8539 2.16484 10.7702C2.2487 10.6864 2.3526 10.6445 2.47656 10.6445H8.3099C8.43384 10.6445 8.53775 10.6865 8.6216 10.7704C8.70545 10.8543 8.74738 10.9582 8.74738 11.0822C8.74738 11.2062 8.70545 11.3101 8.6216 11.3939C8.53775 11.4776 8.43384 11.5195 8.3099 11.5195H2.47656ZM9.33155 7.43617C8.56518 7.43617 7.91165 7.1661 7.37095 6.62595C6.83025 6.0858 6.5599 5.43255 6.5599 4.66618C6.5599 3.89982 6.82997 3.24628 7.37012 2.70558C7.91026 2.16488 8.56352 1.89453 9.32988 1.89453C10.0962 1.89453 10.7498 2.1646 11.2905 2.70475C11.8312 3.2449 12.1015 3.89815 12.1015 4.66452C12.1015 5.43088 11.8315 6.08442 11.2913 6.62512C10.7512 7.16582 10.0979 7.43617 9.33155 7.43617ZM2.47656 6.85284C2.3526 6.85284 2.2487 6.81089 2.16484 6.72701C2.08099 6.64312 2.03906 6.53917 2.03906 6.41516C2.03906 6.29114 2.08099 6.18726 2.16484 6.1035C2.2487 6.01974 2.3526 5.97786 2.47656 5.97786H5.44483C5.49792 6.1394 5.55793 6.29214 5.62486 6.4361C5.69179 6.58006 5.77163 6.71897 5.86436 6.85284H2.47656ZM2.47656 9.18617C2.3526 9.18617 2.2487 9.14423 2.16484 9.06034C2.08099 8.97645 2.03906 8.8725 2.03906 8.74849C2.03906 8.62448 2.08099 8.52059 2.16484 8.43683C2.2487 8.35308 2.3526 8.3112 2.47656 8.3112H7.48314C7.67309 8.41365 7.87389 8.50077 8.08553 8.57256C8.29717 8.64436 8.51779 8.69596 8.74738 8.72738V8.7543C8.74738 8.8747 8.70545 8.97678 8.6216 9.06053C8.53775 9.14429 8.43384 9.18617 8.3099 9.18617H2.47656ZM9.33072 6.38169C9.39952 6.38169 9.45972 6.35589 9.51133 6.3043C9.56293 6.25269 9.58872 6.19249 9.58872 6.12368V4.42977C9.58872 4.36098 9.56293 4.30078 9.51133 4.24917C9.45972 4.19757 9.39952 4.17176 9.33072 4.17176C9.26191 4.17176 9.20171 4.19757 9.1501 4.24917C9.0985 4.30078 9.07271 4.36098 9.07271 4.42977V6.12368C9.07271 6.19249 9.0985 6.25269 9.1501 6.3043C9.20171 6.35589 9.26191 6.38169 9.33072 6.38169ZM9.33072 3.55477C9.40849 3.55477 9.47655 3.5256 9.53488 3.46727C9.59322 3.40894 9.62238 3.34088 9.62238 3.2631C9.62238 3.18533 9.59322 3.11727 9.53488 3.05894C9.47655 3.0006 9.40849 2.97144 9.33072 2.97144C9.25294 2.97144 9.18488 3.0006 9.12655 3.05894C9.06821 3.11727 9.03905 3.18533 9.03905 3.2631C9.03905 3.34088 9.06821 3.40894 9.12655 3.46727C9.18488 3.5256 9.25294 3.55477 9.33072 3.55477Z" fill="#888888"/>
</g>
</svg>
