<svg width="16" height="16" viewBox="0 0 16 16" fill="none" xmlns="http://www.w3.org/2000/svg">
<mask id="mask0_211_7046" style="mask-type:alpha" maskUnits="userSpaceOnUse" x="0" y="0" width="16" height="16">
<rect width="16" height="16" fill="#D9D9D9"/>
</mask>
<g mask="url(#mask0_211_7046)">
<path d="M7.9999 13.6665C6.38196 13.6665 5.03303 13.438 3.95312 12.9812C2.87321 12.5244 2.33325 11.9537 2.33325 11.269V4.66648C2.33325 4.0229 2.88624 3.47312 3.99222 3.01713C5.09821 2.56115 6.4341 2.33316 7.9999 2.33316C9.5657 2.33316 10.9016 2.56115 12.0076 3.01713C13.1136 3.47312 13.6666 4.0229 13.6666 4.66648V11.269C13.6666 11.9537 13.1266 12.5244 12.0467 12.9812C10.9668 13.438 9.61785 13.6665 7.9999 13.6665ZM7.9999 5.97159C8.97169 5.97159 9.95011 5.8342 10.9352 5.55943C11.9202 5.28464 12.4909 4.98827 12.6473 4.67033C12.4952 4.34383 11.9305 4.03934 10.9531 3.75686C9.97576 3.47438 8.99136 3.33314 7.9999 3.33314C7.01016 3.33314 6.02917 3.47054 5.05695 3.74533C4.08473 4.0201 3.5123 4.31989 3.33965 4.64468C3.50803 4.97801 4.07619 5.2825 5.04414 5.55814C6.01208 5.83378 6.99733 5.97159 7.9999 5.97159ZM7.9999 9.30749C8.46229 9.30749 8.91229 9.28527 9.3499 9.24083C9.78751 9.19638 10.2057 9.13143 10.6044 9.04596C11.0031 8.96049 11.3764 8.85451 11.7243 8.72801C12.0721 8.60151 12.3862 8.45835 12.6666 8.29853V5.93311C12.3862 6.09294 12.0721 6.2361 11.7243 6.36259C11.3764 6.48909 11.0031 6.59508 10.6044 6.68054C10.2057 6.76602 9.78751 6.83098 9.3499 6.87543C8.91229 6.91987 8.46229 6.94209 7.9999 6.94209C7.52896 6.94209 7.0702 6.9188 6.62362 6.87221C6.17704 6.82563 5.75546 6.75961 5.35887 6.67414C4.96229 6.58867 4.59285 6.48375 4.25054 6.35939C3.90824 6.23504 3.60247 6.09294 3.33324 5.93311V8.29853C3.60247 8.45835 3.90824 8.60044 4.25054 8.72481C4.59285 8.84917 4.96229 8.95408 5.35887 9.03954C5.75546 9.12502 6.17704 9.19105 6.62362 9.23763C7.0702 9.2842 7.52896 9.30749 7.9999 9.30749ZM7.9999 12.6665C8.54094 12.6665 9.07214 12.6308 9.5935 12.5594C10.1149 12.4881 10.5892 12.3906 11.0166 12.2671C11.4439 12.1436 11.8044 12.0002 12.098 11.837C12.3916 11.6737 12.5811 11.5024 12.6666 11.3229V9.29849C12.3862 9.45833 12.0721 9.60149 11.7243 9.72799C11.3764 9.85448 11.0031 9.96047 10.6044 10.0459C10.2057 10.1314 9.78751 10.1964 9.3499 10.2408C8.91229 10.2853 8.46229 10.3075 7.9999 10.3075C7.52896 10.3075 7.0702 10.2842 6.62362 10.2376C6.17704 10.191 5.75546 10.125 5.35887 10.0395C4.96229 9.95406 4.59285 9.84914 4.25054 9.72478C3.90824 9.60042 3.60247 9.45833 3.33324 9.29849V11.3331C3.41871 11.5169 3.60654 11.6876 3.8967 11.8453C4.18687 12.003 4.54563 12.1436 4.97299 12.2671C5.40033 12.3906 5.8764 12.4881 6.40119 12.5594C6.92596 12.6308 7.45887 12.6665 7.9999 12.6665Z" fill="white"/>
</g>
</svg>
