<svg width="16" height="16" viewBox="0 0 16 16" fill="none" xmlns="http://www.w3.org/2000/svg">
<mask id="mask0_800_12157" style="mask-type:alpha" maskUnits="userSpaceOnUse" x="0" y="0" width="16" height="16">
<rect width="16" height="16" fill="#D9D9D9"/>
</mask>
<g mask="url(#mask0_800_12157)">
<path d="M7.5026 13.0466V8.28764L3.33592 5.87482V10.5184C3.33592 10.5526 3.34447 10.5847 3.36157 10.6146C3.37866 10.6445 3.4043 10.6701 3.43849 10.6915L7.5026 13.0466ZM8.50257 13.0466L12.5667 10.6915C12.6009 10.6701 12.6265 10.6445 12.6436 10.6146C12.6607 10.5847 12.6693 10.5526 12.6693 10.5184V5.87482L8.50257 8.28764V13.0466ZM8.00259 7.42612L12.1193 5.04664L8.10515 2.72484C8.07097 2.70347 8.03678 2.69279 8.00259 2.69279C7.9684 2.69279 7.93421 2.70347 7.90002 2.72484L3.8859 5.04664L8.00259 7.42612ZM2.9385 11.5697C2.74876 11.4603 2.6009 11.3141 2.49492 11.1312C2.38893 10.9483 2.33594 10.7475 2.33594 10.5287V5.47227C2.33594 5.25347 2.38893 5.05262 2.49492 4.86972C2.6009 4.68681 2.74876 4.54065 2.9385 4.43125L7.40002 1.86332C7.58977 1.75392 7.79062 1.69922 8.00259 1.69922C8.21455 1.69922 8.41541 1.75392 8.60515 1.86332L13.0667 4.43125C13.2564 4.54065 13.4043 4.68681 13.5103 4.86972C13.6162 5.05262 13.6692 5.25347 13.6692 5.47227V10.5287C13.6692 10.7475 13.6162 10.9483 13.5103 11.1312C13.4043 11.3141 13.2564 11.4603 13.0667 11.5697L8.60515 14.1376C8.41541 14.247 8.21455 14.3017 8.00259 14.3017C7.79062 14.3017 7.58977 14.247 7.40002 14.1376L2.9385 11.5697Z" fill="#888888"/>
</g>
</svg>
