<svg width="16" height="16" viewBox="0 0 16 16" fill="none" xmlns="http://www.w3.org/2000/svg">
<path d="M12.8467 3.55332C11.96 3.13999 11 2.83999 10 2.66666C9.99123 2.66638 9.98251 2.66802 9.97444 2.67148C9.96638 2.67493 9.95917 2.68011 9.95333 2.68666C9.83333 2.90666 9.69333 3.19332 9.6 3.41332C8.53933 3.25332 7.46066 3.25332 6.4 3.41332C6.30666 3.18666 6.16666 2.90666 6.04 2.68666C6.03333 2.67332 6.01333 2.66666 5.99333 2.66666C4.99333 2.83999 4.04 3.13999 3.14666 3.55332C3.14 3.55332 3.13333 3.55999 3.12666 3.56666C1.31333 6.27999 0.81333 8.91999 1.06 11.5333C1.06 11.5467 1.06666 11.56 1.08 11.5667C2.28 12.4467 3.43333 12.98 4.57333 13.3333C4.59333 13.34 4.61333 13.3333 4.62 13.32C4.88666 12.9533 5.12666 12.5667 5.33333 12.16C5.34666 12.1333 5.33333 12.1067 5.30666 12.1C4.92666 11.9533 4.56666 11.78 4.21333 11.58C4.18666 11.5667 4.18666 11.5267 4.20666 11.5067C4.28 11.4533 4.35333 11.3933 4.42666 11.34C4.44 11.3267 4.46 11.3267 4.47333 11.3333C6.76666 12.38 9.24 12.38 11.5067 11.3333C11.52 11.3267 11.54 11.3267 11.5533 11.34C11.6267 11.4 11.7 11.4533 11.7733 11.5133C11.8 11.5333 11.8 11.5733 11.7667 11.5867C11.42 11.7933 11.0533 11.96 10.6733 12.1067C10.6467 12.1133 10.64 12.1467 10.6467 12.1667C10.86 12.5733 11.1 12.96 11.36 13.3267C11.38 13.3333 11.4 13.34 11.42 13.3333C12.5667 12.98 13.72 12.4467 14.92 11.5667C14.9333 11.56 14.94 11.5467 14.94 11.5333C15.2333 8.51332 14.4533 5.89332 12.8733 3.56666C12.8667 3.55999 12.86 3.55332 12.8467 3.55332ZM5.68 9.93999C4.99333 9.93999 4.42 9.30666 4.42 8.52666C4.42 7.74666 4.98 7.11332 5.68 7.11332C6.38666 7.11332 6.94666 7.75332 6.94 8.52666C6.94 9.30666 6.38 9.93999 5.68 9.93999ZM10.3267 9.93999C9.64 9.93999 9.06666 9.30666 9.06666 8.52666C9.06666 7.74666 9.62666 7.11332 10.3267 7.11332C11.0333 7.11332 11.5933 7.75332 11.5867 8.52666C11.5867 9.30666 11.0333 9.93999 10.3267 9.93999Z" fill="white"/>
</svg>
