<svg width="14" height="11" viewBox="0 0 14 11" fill="none" xmlns="http://www.w3.org/2000/svg">
  <path d="M3.33333 8.6795C3.88547 8.6795 4.42266 8.74211 4.94488 8.86733C5.4671 8.99254 5.98548 9.18891 6.50001 9.45643V2.90258C6.03164 2.59746 5.5248 2.36861 4.9795 2.21605C4.4342 2.06348 3.88547 1.9872 3.33333 1.9872C2.93333 1.9872 2.55961 2.0186 2.21218 2.08141C1.86475 2.14424 1.5077 2.24701 1.14103 2.38975C1.08974 2.40685 1.05341 2.43142 1.03205 2.46348C1.01068 2.49554 0.999997 2.53079 0.999997 2.56925V8.87436C0.999997 8.9342 1.02136 8.978 1.0641 9.00578C1.10684 9.03356 1.15386 9.03676 1.20515 9.0154C1.52138 8.90771 1.85514 8.8248 2.20641 8.76668C2.55769 8.70856 2.93333 8.6795 3.33333 8.6795ZM7.49998 9.45643C8.01451 9.18891 8.53289 8.99254 9.05511 8.86733C9.57734 8.74211 10.1145 8.6795 10.6667 8.6795C11.0667 8.6795 11.4423 8.70856 11.7936 8.76668C12.1449 8.8248 12.4786 8.90771 12.7948 9.0154C12.8461 9.03676 12.8932 9.03356 12.9359 9.00578C12.9786 8.978 13 8.9342 13 8.87436V2.56925C13 2.53079 12.9893 2.4966 12.9679 2.46668C12.9466 2.43676 12.9103 2.41111 12.859 2.38975C12.4923 2.24701 12.1352 2.14424 11.7878 2.08141C11.4404 2.0186 11.0667 1.9872 10.6667 1.9872C10.1145 1.9872 9.5658 2.06348 9.0205 2.21605C8.4752 2.36861 7.96836 2.59746 7.49998 2.90258V9.45643ZM7 10.6436C6.87009 10.6436 6.74851 10.6273 6.63526 10.5949C6.52202 10.5624 6.41497 10.5192 6.31411 10.4654C5.85514 10.2055 5.375 10.0096 4.87371 9.87755C4.37244 9.7455 3.85897 9.67948 3.33333 9.67948C2.9265 9.67948 2.52693 9.72456 2.13463 9.81473C1.74232 9.9049 1.36411 10.0376 1.00001 10.2128C0.762414 10.3222 0.536347 10.3049 0.321814 10.1609C0.107292 10.0169 3.05176e-05 9.8128 3.05176e-05 9.5487V2.31028C3.05176e-05 2.16669 0.0369916 2.03186 0.110914 1.9058C0.184847 1.77973 0.291475 1.68892 0.430797 1.63336C0.882075 1.41371 1.35237 1.2511 1.84168 1.14555C2.33099 1.03999 2.82821 0.987213 3.33333 0.987213C3.98205 0.987213 4.61581 1.07589 5.23461 1.25325C5.85341 1.43059 6.44187 1.69234 7 2.0385C7.55812 1.69234 8.14658 1.43059 8.76538 1.25325C9.38418 1.07589 10.0179 0.987213 10.6667 0.987213C11.1718 0.987213 11.669 1.03999 12.1583 1.14555C12.6476 1.2511 13.1179 1.41371 13.5692 1.63336C13.7085 1.68892 13.8151 1.77973 13.8891 1.9058C13.963 2.03186 14 2.16669 14 2.31028V9.5487C14 9.8128 13.8884 10.0147 13.6654 10.1545C13.4423 10.2942 13.2077 10.3094 12.9615 10.2C12.6017 10.029 12.2288 9.89956 11.8429 9.81153C11.457 9.7235 11.065 9.67948 10.6667 9.67948C10.141 9.67948 9.62756 9.7455 9.12628 9.87755C8.62499 10.0096 8.14486 10.2055 7.68588 10.4654C7.58503 10.5192 7.47798 10.5624 7.36473 10.5949C7.25149 10.6273 7.12991 10.6436 7 10.6436ZM8.29486 3.90771C8.29486 3.83336 8.32136 3.75729 8.37435 3.67951C8.42734 3.60174 8.48759 3.54832 8.55511 3.51926C8.88588 3.38678 9.22627 3.28635 9.57628 3.21798C9.92628 3.1496 10.2897 3.11541 10.6667 3.11541C10.8846 3.11541 11.0955 3.12823 11.2993 3.15386C11.5032 3.17951 11.7085 3.21455 11.9154 3.259C11.994 3.27694 12.062 3.31967 12.1192 3.3872C12.1765 3.45472 12.2051 3.53335 12.2051 3.6231C12.2051 3.77352 12.1579 3.88356 12.0634 3.95321C11.969 4.02287 11.8466 4.03975 11.6961 4.00385C11.5363 3.97051 11.3703 3.94659 11.1981 3.93206C11.0259 3.91753 10.8487 3.91026 10.6667 3.91026C10.3436 3.91026 10.0271 3.94125 9.7173 4.00321C9.40746 4.06518 9.11195 4.14915 8.83075 4.25513C8.67349 4.31582 8.54486 4.3124 8.44486 4.24488C8.34486 4.17736 8.29486 4.06497 8.29486 3.90771ZM8.29486 7.54873C8.29486 7.47437 8.32136 7.39724 8.37435 7.31733C8.42734 7.23742 8.48759 7.18293 8.55511 7.15386C8.87734 7.02139 9.21772 6.92203 9.57628 6.8558C9.93482 6.78955 10.2983 6.75643 10.6667 6.75643C10.8846 6.75643 11.0955 6.76925 11.2993 6.7949C11.5032 6.82053 11.7085 6.85557 11.9154 6.90001C11.994 6.91797 12.062 6.96071 12.1192 7.02823C12.1765 7.09574 12.2051 7.17437 12.2051 7.26411C12.2051 7.41454 12.1579 7.52457 12.0634 7.59423C11.969 7.66389 11.8466 7.68077 11.6961 7.64488C11.5363 7.61155 11.3703 7.58761 11.1981 7.57308C11.0259 7.55855 10.8487 7.55128 10.6667 7.55128C10.3479 7.55128 10.0346 7.58162 9.72691 7.64231C9.41921 7.703 9.12477 7.78847 8.84358 7.89873C8.68631 7.96369 8.55555 7.96197 8.45128 7.8936C8.347 7.82522 8.29486 7.71026 8.29486 7.54873ZM8.29486 5.73463C8.29486 5.66027 8.32136 5.58421 8.37435 5.50643C8.42734 5.42865 8.48759 5.37524 8.55511 5.34618C8.88588 5.2137 9.22627 5.11327 9.57628 5.0449C9.92628 4.97652 10.2897 4.94233 10.6667 4.94233C10.8846 4.94233 11.0955 4.95515 11.2993 4.9808C11.5032 5.00643 11.7085 5.04147 11.9154 5.08591C11.994 5.10387 12.062 5.1466 12.1192 5.21411C12.1765 5.28164 12.2051 5.36027 12.2051 5.45001C12.2051 5.60044 12.1579 5.71047 12.0634 5.78013C11.969 5.84979 11.8466 5.86667 11.6961 5.83078C11.5363 5.79745 11.3703 5.77351 11.1981 5.75898C11.0259 5.74445 10.8487 5.73718 10.6667 5.73718C10.3436 5.73718 10.0271 5.76816 9.7173 5.83013C9.40746 5.8921 9.11195 5.97607 8.83075 6.08206C8.67349 6.14274 8.54486 6.13932 8.44486 6.0718C8.34486 6.00429 8.29486 5.8919 8.29486 5.73463Z" fill="white"/>
</svg>
