<svg width="14" height="15" viewBox="0 0 14 15" fill="none" xmlns="http://www.w3.org/2000/svg">
<mask id="mask0_157_1474" style="mask-type:alpha" maskUnits="userSpaceOnUse" x="0" y="0" width="14" height="15">
<rect y="0.5" width="14" height="14" fill="#888888"/>
</mask>
<g mask="url(#mask0_157_1474)">
<path d="M6.99999 9.38908C6.92968 9.38908 6.86425 9.37786 6.80368 9.35543C6.7431 9.33299 6.68551 9.29448 6.63092 9.23989L4.81699 7.42597C4.73623 7.3452 4.69491 7.24367 4.69305 7.1214C4.69117 6.99913 4.73249 6.89574 4.81699 6.81124C4.9015 6.72673 5.00545 6.68298 5.12884 6.67999C5.25224 6.67699 5.35619 6.71775 5.44071 6.80225L6.5625 7.92406V3.46153C6.5625 3.33739 6.60438 3.23344 6.68814 3.14968C6.77189 3.06593 6.87584 3.02405 6.99999 3.02405C7.12413 3.02405 7.22808 3.06593 7.31184 3.14968C7.39559 3.23344 7.43747 3.33739 7.43747 3.46153V7.92406L8.55926 6.80225C8.64004 6.72149 8.74305 6.68167 8.86831 6.68279C8.99359 6.68392 9.09847 6.72673 9.18298 6.81124C9.26748 6.89574 9.30974 6.9982 9.30974 7.1186C9.30974 7.239 9.26748 7.34145 9.18298 7.42597L7.36905 9.23989C7.31446 9.29448 7.25687 9.33299 7.19629 9.35543C7.13572 9.37786 7.07029 9.38908 6.99999 9.38908ZM3.67949 11.875C3.38483 11.875 3.13542 11.7729 2.93125 11.5687C2.72708 11.3646 2.625 11.1151 2.625 10.8205V9.68748C2.625 9.56334 2.66688 9.45939 2.75065 9.37563C2.83441 9.29187 2.93836 9.24999 3.0625 9.24999C3.18664 9.24999 3.29059 9.29187 3.37435 9.37563C3.45811 9.45939 3.49999 9.56334 3.49999 9.68748V10.8205C3.49999 10.8654 3.51868 10.9065 3.55607 10.9439C3.59347 10.9813 3.63461 11 3.67949 11H10.3205C10.3654 11 10.4065 10.9813 10.4439 10.9439C10.4813 10.9065 10.5 10.8654 10.5 10.8205V9.68748C10.5 9.56334 10.5419 9.45939 10.6256 9.37563C10.7094 9.29187 10.8133 9.24999 10.9375 9.24999C11.0616 9.24999 11.1656 9.29187 11.2493 9.37563C11.3331 9.45939 11.375 9.56334 11.375 9.68748V10.8205C11.375 11.1151 11.2729 11.3646 11.0687 11.5687C10.8646 11.7729 10.6151 11.875 10.3205 11.875H3.67949Z" fill="#888888"/>
</g>
</svg>
