<svg width="10" height="10" viewBox="0 0 10 10" fill="none" xmlns="http://www.w3.org/2000/svg">
  <path d="M4.99999 6.88908C4.92968 6.88908 4.86425 6.87786 4.80368 6.85543C4.7431 6.83299 4.68551 6.79448 4.63092 6.73989L2.81699 4.92597C2.73623 4.8452 2.69491 4.74367 2.69305 4.6214C2.69117 4.49913 2.73249 4.39574 2.81699 4.31124C2.9015 4.22673 3.00545 4.18298 3.12884 4.17999C3.25224 4.17699 3.35619 4.21775 3.44071 4.30225L4.5625 5.42406V0.961534C4.5625 0.837391 4.60438 0.73344 4.68814 0.649683C4.77189 0.565926 4.87584 0.524048 4.99999 0.524048C5.12413 0.524048 5.22808 0.565926 5.31184 0.649683C5.39559 0.73344 5.43747 0.837391 5.43747 0.961534V5.42406L6.55926 4.30225C6.64004 4.22149 6.74305 4.18167 6.86831 4.18279C6.99359 4.18392 7.09847 4.22673 7.18298 4.31124C7.26748 4.39574 7.30974 4.4982 7.30974 4.6186C7.30974 4.739 7.26748 4.84145 7.18298 4.92597L5.36905 6.73989C5.31446 6.79448 5.25687 6.83299 5.19629 6.85543C5.13572 6.87786 5.07029 6.88908 4.99999 6.88908ZM1.67949 9.37498C1.38483 9.37498 1.13542 9.2729 0.93125 9.06873C0.727083 8.86456 0.625 8.61515 0.625 8.32049V7.18748C0.625 7.06334 0.666883 6.95939 0.75065 6.87563C0.834407 6.79187 0.938357 6.74999 1.0625 6.74999C1.18664 6.74999 1.29059 6.79187 1.37435 6.87563C1.45811 6.95939 1.49999 7.06334 1.49999 7.18748V8.32049C1.49999 8.36537 1.51868 8.40651 1.55607 8.44391C1.59347 8.4813 1.63461 8.49999 1.67949 8.49999H8.32048C8.36536 8.49999 8.4065 8.4813 8.4439 8.44391C8.48129 8.40651 8.49999 8.36537 8.49999 8.32049V7.18748C8.49999 7.06334 8.54186 6.95939 8.62562 6.87563C8.70938 6.79187 8.81333 6.74999 8.93747 6.74999C9.06161 6.74999 9.16556 6.79187 9.24932 6.87563C9.33309 6.95939 9.37497 7.06334 9.37497 7.18748V8.32049C9.37497 8.61515 9.27289 8.86456 9.06872 9.06873C8.86455 9.2729 8.61514 9.37498 8.32048 9.37498H1.67949Z" fill="#888888"/>
</svg>
