<svg width="16" height="16" viewBox="0 0 16 16" fill="none" xmlns="http://www.w3.org/2000/svg">
<mask id="mask0_787_39255" style="mask-type:alpha" maskUnits="userSpaceOnUse" x="0" y="0" width="16" height="16">
<rect width="16" height="16" fill="#333333"/>
</mask>
<g mask="url(#mask0_787_39255)">
<path d="M7.9988 9.96521C7.90991 9.96521 7.82658 9.95132 7.7488 9.92354C7.67102 9.89576 7.5988 9.84854 7.53213 9.78187L4.4488 6.69854C4.32658 6.57632 4.26824 6.42354 4.2738 6.24021C4.27936 6.05687 4.34324 5.90409 4.46547 5.78187C4.58769 5.65965 4.74324 5.59854 4.93213 5.59854C5.12102 5.59854 5.27658 5.65965 5.3988 5.78187L7.9988 8.38187L10.6155 5.76521C10.7377 5.64298 10.8905 5.58465 11.0738 5.59021C11.2571 5.59576 11.4099 5.65965 11.5321 5.78187C11.6544 5.90409 11.7155 6.05965 11.7155 6.24854C11.7155 6.43743 11.6544 6.59298 11.5321 6.71521L8.46547 9.78187C8.3988 9.84854 8.32658 9.89576 8.2488 9.92354C8.17102 9.95132 8.08769 9.96521 7.9988 9.96521Z" fill="#888888"/>
</g>
</svg>
