<svg width="16" height="16" viewBox="0 0 16 16" fill="none" xmlns="http://www.w3.org/2000/svg">
<mask id="mask0_809_12386" style="mask-type:alpha" maskUnits="userSpaceOnUse" x="0" y="0" width="16" height="16">
<rect width="16" height="16" fill="#333333"/>
</mask>
<g mask="url(#mask0_809_12386)">
<path d="M7.9988 5.58948C7.90991 5.58948 7.82658 5.60337 7.7488 5.63115C7.67102 5.65893 7.5988 5.70615 7.53213 5.77282L4.4488 8.85615C4.32658 8.97837 4.26824 9.13115 4.2738 9.31448C4.27936 9.49781 4.34324 9.65059 4.46547 9.77281C4.58769 9.89504 4.74324 9.95615 4.93213 9.95615C5.12102 9.95615 5.27658 9.89504 5.3988 9.77281L7.9988 7.17281L10.6155 9.78948C10.7377 9.9117 10.8905 9.97004 11.0738 9.96448C11.2571 9.95893 11.4099 9.89504 11.5321 9.77281C11.6544 9.65059 11.7155 9.49504 11.7155 9.30615C11.7155 9.11726 11.6544 8.9617 11.5321 8.83948L8.46547 5.77282C8.3988 5.70615 8.32658 5.65893 8.2488 5.63115C8.17102 5.60337 8.08769 5.58948 7.9988 5.58948Z" fill="#888888"/>
</g>
</svg>
