<svg width="16" height="16" viewBox="0 0 16 16" fill="none" xmlns="http://www.w3.org/2000/svg">
<mask id="mask0_804_12269" style="mask-type:alpha" maskUnits="userSpaceOnUse" x="0" y="0" width="16" height="16">
<rect width="16" height="16" fill="#D9D9D9"/>
</mask>
<g mask="url(#mask0_804_12269)">
<path d="M10.003 13.0378C9.8611 13.0378 9.7423 12.9899 9.64658 12.8942C9.55086 12.7985 9.503 12.6797 9.503 12.5378C9.503 12.3959 9.55086 12.2771 9.64658 12.1814C9.7423 12.0857 9.8611 12.0378 10.003 12.0378H11.2081C11.4397 12.0378 11.6365 11.9569 11.7985 11.7949C11.9605 11.6329 12.0414 11.4361 12.0414 11.2045V9.81987C12.0414 9.42329 12.1583 9.0656 12.3921 8.7468C12.6258 8.428 12.932 8.20707 13.3107 8.08399V7.91475C12.932 7.79168 12.6258 7.57074 12.3921 7.25194C12.1583 6.93314 12.0414 6.57545 12.0414 6.17887V4.79425C12.0414 4.56262 11.9605 4.36582 11.7985 4.20385C11.6365 4.04189 11.4397 3.9609 11.2081 3.9609H10.003C9.8611 3.9609 9.7423 3.91304 9.64658 3.81732C9.55086 3.7216 9.503 3.6028 9.503 3.46092C9.503 3.31904 9.55086 3.20024 9.64658 3.10452C9.7423 3.0088 9.8611 2.96094 10.003 2.96094H11.2081C11.7166 2.96094 12.1493 3.13935 12.5062 3.49619C12.863 3.85302 13.0414 4.28571 13.0414 4.79425V6.17887C13.0414 6.40195 13.1149 6.59234 13.2619 6.75004C13.4089 6.90773 13.5919 6.99725 13.8107 7.01862C13.9525 7.02718 14.0713 7.07931 14.1671 7.17504C14.2628 7.27076 14.3106 7.38742 14.3106 7.52502V8.47372C14.3106 8.61132 14.2628 8.72798 14.1671 8.8237C14.0713 8.91943 13.9525 8.97156 13.8107 8.98012C13.5919 9.00149 13.4089 9.09102 13.2619 9.24871C13.1149 9.40641 13.0414 9.59679 13.0414 9.81987V11.2045C13.0414 11.713 12.863 12.1457 12.5062 12.5026C12.1493 12.8594 11.7166 13.0378 11.2081 13.0378H10.003ZM4.79786 13.0378C4.28932 13.0378 3.85663 12.8594 3.4998 12.5026C3.14296 12.1457 2.96455 11.713 2.96455 11.2045V9.81987C2.96455 9.59679 2.89104 9.40641 2.74403 9.24871C2.59702 9.09102 2.41411 9.00149 2.1953 8.98012C2.05342 8.97156 1.93462 8.91943 1.8389 8.8237C1.74317 8.72798 1.69531 8.61132 1.69531 8.47372V7.52502C1.69531 7.38742 1.74317 7.27076 1.8389 7.17504C1.93462 7.07931 2.05342 7.02718 2.1953 7.01862C2.41411 6.99725 2.59702 6.90773 2.74403 6.75004C2.89104 6.59234 2.96455 6.40195 2.96455 6.17887V4.79425C2.96455 4.28571 3.14296 3.85302 3.4998 3.49619C3.85663 3.13935 4.28932 2.96094 4.79786 2.96094H6.00298C6.14486 2.96094 6.26366 3.0088 6.35938 3.10452C6.4551 3.20024 6.50296 3.31904 6.50296 3.46092C6.50296 3.6028 6.4551 3.7216 6.35938 3.81732C6.26366 3.91304 6.14486 3.9609 6.00298 3.9609H4.79786C4.56623 3.9609 4.36943 4.04189 4.20746 4.20385C4.0455 4.36582 3.96451 4.56262 3.96451 4.79425V6.17887C3.96451 6.57545 3.84763 6.93314 3.61388 7.25194C3.38011 7.57074 3.07392 7.79168 2.6953 7.91475V8.08399C3.07392 8.20707 3.38011 8.428 3.61388 8.7468C3.84763 9.0656 3.96451 9.42329 3.96451 9.81987V11.2045C3.96451 11.4361 4.0455 11.6329 4.20746 11.7949C4.36943 11.9569 4.56623 12.0378 4.79786 12.0378H6.00298C6.14486 12.0378 6.26366 12.0857 6.35938 12.1814C6.4551 12.2771 6.50296 12.3959 6.50296 12.5378C6.50296 12.6797 6.4551 12.7985 6.35938 12.8942C6.26366 12.9899 6.14486 13.0378 6.00298 13.0378H4.79786Z" fill="black"/>
</g>
</svg>
