<svg width="14" height="14" viewBox="0 0 14 14" fill="none" xmlns="http://www.w3.org/2000/svg">
<mask id="mask0_74_159" style="mask-type:alpha" maskUnits="userSpaceOnUse" x="0" y="0" width="14" height="14">
<rect width="14" height="14" fill="#D9D9D9"/>
</mask>
<g mask="url(#mask0_74_159)">
<path d="M3.096 12.5417C2.80133 12.5417 2.55192 12.4396 2.34775 12.2355C2.14359 12.0313 2.0415 11.7819 2.0415 11.4872V3.67957C2.0415 3.38491 2.14359 3.1355 2.34775 2.93133C2.55192 2.72717 2.80133 2.62508 3.096 2.62508H3.90369V1.83981C3.90369 1.71269 3.94677 1.60612 4.03293 1.52012C4.11908 1.43411 4.22583 1.39111 4.3532 1.39111C4.48055 1.39111 4.58704 1.43411 4.67267 1.52012C4.7583 1.60612 4.80111 1.71269 4.80111 1.83981V2.62508H9.22097V1.8286C9.22097 1.70464 9.26291 1.60073 9.34681 1.51688C9.43069 1.43304 9.53464 1.39111 9.65866 1.39111C9.78266 1.39111 9.88654 1.43304 9.9703 1.51688C10.0541 1.60073 10.096 1.70464 10.096 1.8286V2.62508H10.9036C11.1983 2.62508 11.4477 2.72717 11.6519 2.93133C11.8561 3.1355 11.9581 3.38491 11.9581 3.67957V6.65233C11.9581 6.77629 11.9162 6.88019 11.8323 6.96405C11.7484 7.04789 11.6445 7.08981 11.5205 7.08981C11.3964 7.08981 11.2925 7.04789 11.2088 6.96405C11.125 6.88019 11.0832 6.77629 11.0832 6.65233V6.01291H2.91649V11.4872C2.91649 11.5321 2.93518 11.5732 2.97258 11.6106C3.00998 11.648 3.05112 11.6667 3.096 11.6667H6.64647C6.77043 11.6667 6.87433 11.7087 6.95819 11.7926C7.04204 11.8765 7.08397 11.9804 7.08397 12.1044C7.08397 12.2284 7.04204 12.3323 6.95819 12.4161C6.87433 12.4998 6.77043 12.5417 6.64647 12.5417H3.096ZM11.0832 13.9103C10.4885 13.9103 9.95655 13.7452 9.48732 13.415C9.01809 13.0849 8.67654 12.6595 8.46265 12.139C8.42152 12.0508 8.42807 11.9649 8.48228 11.8816C8.5365 11.7982 8.61159 11.7565 8.70755 11.7565C8.81949 11.7565 8.92014 11.7894 9.00951 11.8552C9.09888 11.921 9.17012 12.0059 9.22321 12.1098C9.40195 12.4434 9.6553 12.7109 9.98324 12.9125C10.3112 13.114 10.6778 13.2148 11.0832 13.2148C11.6718 13.2148 12.1742 13.0067 12.5904 12.5906C13.0065 12.1745 13.2146 11.6721 13.2146 11.0834C13.2146 10.4947 13.0065 9.99231 12.5904 9.57618C12.1742 9.16005 11.6718 8.95199 11.0832 8.95199C10.7638 8.95199 10.4621 9.02079 10.1779 9.1584C9.89366 9.29601 9.64612 9.48148 9.43523 9.71481H10.0623C10.1628 9.71481 10.2459 9.74764 10.3115 9.81328C10.3772 9.87891 10.4101 9.96192 10.4101 10.0623C10.4101 10.1627 10.3772 10.2458 10.3115 10.3116C10.2459 10.3774 10.1628 10.4103 10.0623 10.4103H8.78348C8.6341 10.4103 8.50888 10.3598 8.40781 10.2587C8.30676 10.1577 8.25623 10.0325 8.25623 9.88308V8.60423C8.25623 8.50377 8.28906 8.4207 8.3547 8.35502C8.42034 8.28933 8.50334 8.25648 8.60373 8.25648C8.70411 8.25648 8.78721 8.28933 8.85303 8.35502C8.91884 8.4207 8.95174 8.50377 8.95174 8.60423V9.21113C9.22172 8.92471 9.54106 8.69399 9.90975 8.51898C10.2784 8.34398 10.6696 8.25648 11.0832 8.25648C11.8653 8.25648 12.532 8.5321 13.0832 9.08335C13.6345 9.63461 13.9101 10.3013 13.9101 11.0834C13.9101 11.8655 13.6345 12.5322 13.0832 13.0834C12.532 13.6347 11.8653 13.9103 11.0832 13.9103ZM2.91649 5.13792H11.0832V3.67957C11.0832 3.6347 11.0645 3.59356 11.0271 3.55616C10.9897 3.51876 10.9485 3.50007 10.9036 3.50007H3.096C3.05112 3.50007 3.00998 3.51876 2.97258 3.55616C2.93518 3.59356 2.91649 3.6347 2.91649 3.67957V5.13792Z" fill="#888888"/>
</g>
</svg>
