<svg width="72" height="72" viewBox="0 0 72 72" fill="none" xmlns="http://www.w3.org/2000/svg">
<g id="event_available">
<mask id="mask0_171_3483" style="mask-type:alpha" maskUnits="userSpaceOnUse" x="0" y="0" width="72" height="72">
<rect id="Bounding box" width="72" height="72" fill="#D9D9D9"/>
</mask>
<g mask="url(#mask0_171_3483)">
<path id="event_available_2" d="M32.8499 47.4461L43.8808 36.4153C44.3269 35.9691 44.8644 35.7413 45.4932 35.7317C46.1221 35.722 46.6692 35.9499 47.1345 36.4153C47.5999 36.8806 47.8326 37.4229 47.8326 38.0422C47.8326 38.6614 47.5999 39.2037 47.1345 39.669L34.748 52.0556C34.2057 52.5979 33.573 52.869 32.8499 52.869C32.1269 52.869 31.4942 52.5979 30.9519 52.0556L24.8654 45.969C24.4192 45.5229 24.1913 44.9854 24.1817 44.3566C24.1721 43.7277 24.4 43.1806 24.8654 42.7153C25.3307 42.2499 25.873 42.0172 26.4923 42.0172C27.1115 42.0172 27.6537 42.2499 28.1191 42.7153L32.8499 47.4461ZM15.9231 64.4998C14.4077 64.4998 13.125 63.9748 12.075 62.9248C11.025 61.8748 10.5 60.5921 10.5 59.0767V18.923C10.5 17.4076 11.025 16.1249 12.075 15.0749C13.125 14.0249 14.4077 13.4999 15.9231 13.4999H20.077V9.46141C20.077 8.80376 20.2972 8.25473 20.7376 7.81433C21.1779 7.37398 21.727 7.15381 22.3847 7.15381C23.0423 7.15381 23.5913 7.37398 24.0317 7.81433C24.4721 8.25473 24.6923 8.80376 24.6923 9.46141V13.4999H47.423V9.40374C47.423 8.76529 47.6383 8.23068 48.0691 7.79993C48.4998 7.36918 49.0344 7.15381 49.6729 7.15381C50.3113 7.15381 50.8459 7.36918 51.2767 7.79993C51.7075 8.23068 51.9229 8.76529 51.9229 9.40374V13.4999H56.0768C57.5922 13.4999 58.8749 14.0249 59.9249 15.0749C60.9749 16.1249 61.4999 17.4076 61.4999 18.923V59.0767C61.4999 60.5921 60.9749 61.8748 59.9249 62.9248C58.8749 63.9748 57.5922 64.4998 56.0768 64.4998H15.9231ZM15.9231 59.9999H56.0768C56.3076 59.9999 56.5191 59.9037 56.7115 59.7114C56.9038 59.5191 56.9999 59.3075 56.9999 59.0767V30.923H14.9999V59.0767C14.9999 59.3075 15.0961 59.5191 15.2884 59.7114C15.4807 59.9037 15.6923 59.9999 15.9231 59.9999ZM14.9999 26.4231H56.9999V18.923C56.9999 18.6922 56.9038 18.4807 56.7115 18.2883C56.5191 18.096 56.3076 17.9999 56.0768 17.9999H15.9231C15.6923 17.9999 15.4807 18.096 15.2884 18.2883C15.0961 18.4807 14.9999 18.6922 14.9999 18.923V26.4231Z" fill="#3F3B59"/>
<path id="event_available_3" d="M32.8501 47.4461L43.881 36.4154C44.3271 35.9692 44.8646 35.7413 45.4934 35.7317C46.1223 35.7221 46.6694 35.95 47.1347 36.4154C47.6001 36.8807 47.8328 37.423 47.8328 38.0423C47.8328 38.6615 47.6001 39.2037 47.1347 39.6691L34.7482 52.0556C34.2059 52.5979 33.5732 52.8691 32.8501 52.8691C32.1271 52.8691 31.4944 52.5979 30.9521 52.0556L24.8656 45.9691C24.4194 45.523 24.1915 44.9855 24.1819 44.3567C24.1723 43.7278 24.4002 43.1807 24.8656 42.7154C25.3309 42.25 25.8732 42.0173 26.4925 42.0173C27.1117 42.0173 27.6539 42.25 28.1193 42.7154L32.8501 47.4461Z" fill="#4E4A69"/>
</g>
</g>
</svg>
