<svg width="16" height="16" viewBox="0 0 16 16" fill="none" xmlns="http://www.w3.org/2000/svg">
<mask id="mask0_102_2058" style="mask-type:alpha" maskUnits="userSpaceOnUse" x="0" y="0" width="16" height="16">
<rect width="16" height="16" fill="#D9D9D9"/>
</mask>
<g mask="url(#mask0_102_2058)">
<path d="M7.9999 9.96667C7.91101 9.96667 7.82768 9.95278 7.7499 9.925C7.67212 9.89723 7.5999 9.85 7.53323 9.78334L4.4499 6.7C4.32768 6.57778 4.26934 6.425 4.2749 6.24167C4.28045 6.05834 4.34434 5.90556 4.46657 5.78334C4.58879 5.66112 4.74434 5.6 4.93323 5.6C5.12212 5.6 5.27768 5.66112 5.3999 5.78334L7.9999 8.38334L10.6166 5.76667C10.7388 5.64445 10.8916 5.58612 11.0749 5.59167C11.2582 5.59723 11.411 5.66112 11.5332 5.78334C11.6555 5.90556 11.7166 6.06112 11.7166 6.25C11.7166 6.43889 11.6555 6.59445 11.5332 6.71667L8.46656 9.78334C8.3999 9.85 8.32768 9.89723 8.2499 9.925C8.17212 9.95278 8.08879 9.96667 7.9999 9.96667Z" fill="#888888"/>
</g>
</svg>
