<svg width="16" height="16" viewBox="0 0 16 16" fill="none" xmlns="http://www.w3.org/2000/svg">
<mask id="mask0_800_12151" style="mask-type:alpha" maskUnits="userSpaceOnUse" x="0" y="0" width="16" height="16">
<rect width="16" height="16" fill="#D9D9D9"/>
</mask>
<g mask="url(#mask0_800_12151)">
<path d="M2.8692 13.6653C2.53244 13.6653 2.2474 13.5487 2.01406 13.3153C1.78073 13.082 1.66406 12.797 1.66406 12.4602V3.53717C1.66406 3.20041 1.78073 2.91536 2.01406 2.68203C2.2474 2.4487 2.53244 2.33203 2.8692 2.33203H13.1256C13.4623 2.33203 13.7474 2.4487 13.9807 2.68203C14.214 2.91536 14.3307 3.20041 14.3307 3.53717V12.4602C14.3307 12.797 14.214 13.082 13.9807 13.3153C13.7474 13.5487 13.4623 13.6653 13.1256 13.6653H2.8692ZM2.8692 12.6653H13.1256C13.1769 12.6653 13.2239 12.644 13.2666 12.6012C13.3093 12.5585 13.3307 12.5115 13.3307 12.4602V3.53717C13.3307 3.48588 13.3093 3.43886 13.2666 3.39612C13.2239 3.35338 13.1769 3.33202 13.1256 3.33202H2.8692C2.81791 3.33202 2.77089 3.35338 2.72815 3.39612C2.68541 3.43886 2.66405 3.48588 2.66405 3.53717V12.4602C2.66405 12.5115 2.68541 12.5585 2.72815 12.6012C2.77089 12.644 2.81791 12.6653 2.8692 12.6653ZM5.99738 11.1653C6.13926 11.1653 6.25806 11.1175 6.35378 11.0217C6.4495 10.926 6.49736 10.8072 6.49736 10.6653C6.49736 10.5235 6.4495 10.4047 6.35378 10.3089C6.25806 10.2132 6.13926 10.1654 5.99738 10.1654H3.99738C3.8555 10.1654 3.7367 10.2132 3.64098 10.3089C3.54526 10.4047 3.4974 10.5235 3.4974 10.6653C3.4974 10.8072 3.54526 10.926 3.64098 11.0217C3.7367 11.1175 3.8555 11.1653 3.99738 11.1653H5.99738ZM9.69738 8.35255L9.09865 7.75382C8.99951 7.65467 8.88242 7.60574 8.74738 7.60703C8.61234 7.60831 8.49525 7.66066 8.39611 7.76408C8.3038 7.86322 8.25701 7.9803 8.25573 8.11535C8.25444 8.25039 8.30337 8.36748 8.40251 8.46662L9.2756 9.3397C9.39611 9.46021 9.5367 9.52047 9.69738 9.52047C9.85806 9.52047 9.99865 9.46021 10.1192 9.3397L12.4089 7.04995C12.5081 6.95082 12.5587 6.83479 12.5608 6.70188C12.563 6.56898 12.5123 6.45083 12.4089 6.34742C12.3055 6.24399 12.1867 6.19228 12.0525 6.19228C11.9183 6.19228 11.7995 6.24399 11.6961 6.34742L9.69738 8.35255ZM5.99738 8.49867C6.13926 8.49867 6.25806 8.4508 6.35378 8.35508C6.4495 8.25936 6.49736 8.14056 6.49736 7.99868C6.49736 7.8568 6.4495 7.738 6.35378 7.64228C6.25806 7.54656 6.13926 7.4987 5.99738 7.4987H3.99738C3.8555 7.4987 3.7367 7.54656 3.64098 7.64228C3.54526 7.738 3.4974 7.8568 3.4974 7.99868C3.4974 8.14056 3.54526 8.25936 3.64098 8.35508C3.7367 8.4508 3.8555 8.49867 3.99738 8.49867H5.99738ZM5.99738 5.832C6.13926 5.832 6.25806 5.78414 6.35378 5.68841C6.4495 5.59269 6.49736 5.47389 6.49736 5.33202C6.49736 5.19014 6.4495 5.07134 6.35378 4.97562C6.25806 4.87989 6.13926 4.83203 5.99738 4.83203H3.99738C3.8555 4.83203 3.7367 4.87989 3.64098 4.97562C3.54526 5.07134 3.4974 5.19014 3.4974 5.33202C3.4974 5.47389 3.54526 5.59269 3.64098 5.68841C3.7367 5.78414 3.8555 5.832 3.99738 5.832H5.99738Z" fill="#888888"/>
</g>
</svg>
