<svg width="16" height="16" viewBox="0 0 16 16" fill="none" xmlns="http://www.w3.org/2000/svg">
<mask id="mask0_800_12181" style="mask-type:alpha" maskUnits="userSpaceOnUse" x="0" y="0" width="16" height="16">
<rect width="16" height="16" fill="#D9D9D9"/>
</mask>
<g mask="url(#mask0_800_12181)">
<path d="M4.16383 13.8333C4.02211 13.8333 3.90338 13.7854 3.80766 13.6896C3.71193 13.5937 3.66406 13.475 3.66406 13.3333V3.60257C3.66406 3.43185 3.72181 3.28874 3.83731 3.17325C3.9528 3.05775 4.09591 3 4.26663 3H8.56275C8.705 3 8.83202 3.04466 8.94379 3.13398C9.05557 3.22329 9.12599 3.33932 9.15505 3.48205L9.32813 4.33333H12.3948C12.5655 4.33333 12.7086 4.39084 12.8241 4.50585C12.9396 4.62085 12.9974 4.76335 12.9974 4.93335V9.73342C12.9974 9.90342 12.9396 10.0459 12.8241 10.1609C12.7086 10.2758 12.5655 10.3333 12.3948 10.3333H9.43201C9.28976 10.3333 9.16274 10.2886 9.05096 10.1993C8.93918 10.11 8.86877 9.99398 8.83971 9.85125L8.66663 8.99997H4.66405V13.3333C4.66405 13.475 4.61611 13.5937 4.52023 13.6896C4.42436 13.7854 4.30556 13.8333 4.16383 13.8333ZM9.76405 9.33332H11.9974V5.33332H8.49738L8.23071 3.99998H4.66405V7.99998H9.49738L9.76405 9.33332Z" fill="#888888"/>
</g>
</svg>
