<svg width="16" height="16" viewBox="0 0 16 16" fill="none" xmlns="http://www.w3.org/2000/svg">
<path d="M8 1C7.08075 1 6.17049 1.18556 5.32122 1.54607C4.47194 1.90659 3.70026 2.43501 3.05025 3.10115C1.7375 4.4465 1 6.27118 1 8.17379C1 11.3446 3.009 14.0348 5.788 14.9889C6.138 15.0463 6.25 14.8239 6.25 14.6302V13.4178C4.311 13.8483 3.898 12.4565 3.898 12.4565C3.576 11.6244 3.121 11.402 3.121 11.402C2.484 10.9572 3.17 10.9716 3.17 10.9716C3.87 11.0218 4.241 11.7105 4.241 11.7105C4.85 12.8009 5.879 12.4781 6.278 12.3059C6.341 11.8396 6.523 11.5239 6.719 11.3446C5.165 11.1653 3.534 10.5483 3.534 7.8151C3.534 7.01881 3.8 6.38034 4.255 5.871C4.185 5.69166 3.94 4.94558 4.325 3.97712C4.325 3.97712 4.913 3.78343 6.25 4.70885C6.803 4.55103 7.405 4.47211 8 4.47211C8.595 4.47211 9.197 4.55103 9.75 4.70885C11.087 3.78343 11.675 3.97712 11.675 3.97712C12.06 4.94558 11.815 5.69166 11.745 5.871C12.2 6.38034 12.466 7.01881 12.466 7.8151C12.466 10.5555 10.828 11.1581 9.267 11.3374C9.519 11.5598 9.75 11.9974 9.75 12.6646V14.6302C9.75 14.8239 9.862 15.0535 10.219 14.9889C12.998 14.0276 15 11.3446 15 8.17379C15 7.23171 14.8189 6.29886 14.4672 5.4285C14.1154 4.55813 13.5998 3.7673 12.9497 3.10115C12.2997 2.43501 11.5281 1.90659 10.6788 1.54607C9.8295 1.18556 8.91925 1 8 1Z" fill="white"/>
</svg>
