<svg width="16" height="16" viewBox="0 0 16 16" fill="none" xmlns="http://www.w3.org/2000/svg">
<mask id="mask0_801_12214" style="mask-type:alpha" maskUnits="userSpaceOnUse" x="0" y="0" width="16" height="16">
<rect width="16" height="16" fill="#D9D9D9"/>
</mask>
<g mask="url(#mask0_801_12214)">
<path d="M8.30387 6.33075V9.66662C8.30387 9.80507 8.36519 9.89994 8.48784 9.95123C8.61049 10.0025 8.72097 9.979 8.81925 9.88072L10.2795 8.42047C10.4 8.29995 10.4603 8.15936 10.4603 7.99868C10.4603 7.838 10.4 7.69741 10.2795 7.5769L8.81925 6.11665C8.72097 6.01836 8.61049 5.99485 8.48784 6.04613C8.36519 6.09742 8.30387 6.19229 8.30387 6.33075ZM3.54107 13.6653C3.20859 13.6653 2.92462 13.5476 2.68915 13.3121C2.45368 13.0766 2.33594 12.7927 2.33594 12.4602V3.53716C2.33594 3.20469 2.45368 2.92071 2.68915 2.68525C2.92462 2.44977 3.20859 2.33203 3.54107 2.33203H12.4641C12.7966 2.33203 13.0806 2.44977 13.316 2.68525C13.5515 2.92071 13.6692 3.20469 13.6692 3.53716V12.4602C13.6692 12.7927 13.5515 13.0766 13.316 13.3121C13.0806 13.5476 12.7966 13.6653 12.4641 13.6653H3.54107ZM5.33592 12.6653V3.33201H3.54107C3.48978 3.33201 3.44277 3.35338 3.40002 3.39611C3.35729 3.43886 3.33592 3.48588 3.33592 3.53716V12.4602C3.33592 12.5115 3.35729 12.5585 3.40002 12.6012C3.44277 12.644 3.48978 12.6653 3.54107 12.6653H5.33592ZM6.3359 12.6653H12.4641C12.5154 12.6653 12.5624 12.644 12.6052 12.6012C12.6479 12.5585 12.6693 12.5115 12.6693 12.4602V3.53716C12.6693 3.48588 12.6479 3.43886 12.6052 3.39611C12.5624 3.35338 12.5154 3.33201 12.4641 3.33201H6.3359V12.6653Z" fill="#888888"/>
</g>
</svg>
