<svg width="14" height="14" viewBox="0 0 14 14" fill="none" xmlns="http://www.w3.org/2000/svg">
<mask id="mask0_791_9402" style="mask-type:alpha" maskUnits="userSpaceOnUse" x="0" y="0" width="14" height="14">
<rect width="14" height="14" fill="#D9D9D9"/>
</mask>
<g mask="url(#mask0_791_9402)">
<path d="M4.05591 11.7803C3.80142 11.7803 3.57545 11.6969 3.37801 11.5302C3.18056 11.3635 3.0599 11.153 3.01602 10.8986L2.19594 5.98342C2.16906 5.82228 2.2064 5.67869 2.30795 5.55267C2.40952 5.42666 2.54421 5.36366 2.71201 5.36366H11.2802C11.4481 5.36366 11.5827 5.42666 11.6843 5.55267C11.7859 5.67869 11.8232 5.82228 11.7963 5.98342L10.9762 10.8986C10.9324 11.153 10.8117 11.3635 10.6143 11.5302C10.4168 11.6969 10.1908 11.7803 9.93635 11.7803H4.05591ZM3.14613 6.23863L3.86744 10.7538C3.87492 10.7987 3.89456 10.8352 3.92634 10.8632C3.95813 10.8913 3.99646 10.9053 4.04133 10.9053H9.95093C9.9958 10.9053 10.0341 10.8913 10.0659 10.8632C10.0977 10.8352 10.1173 10.7987 10.1248 10.7538L10.8461 6.23863H3.14613ZM5.82946 8.42613H8.1628C8.28676 8.42613 8.39066 8.38418 8.47452 8.30029C8.55836 8.2164 8.60028 8.11245 8.60028 7.98844C8.60028 7.86442 8.55836 7.76054 8.47452 7.67678C8.39066 7.59302 8.28676 7.55114 8.1628 7.55114H5.82946C5.70551 7.55114 5.6016 7.59309 5.51776 7.67698C5.43391 7.76087 5.39198 7.86482 5.39198 7.98883C5.39198 8.11284 5.43391 8.21673 5.51776 8.30049C5.6016 8.38425 5.70551 8.42613 5.82946 8.42613ZM3.49613 4.66814C3.37217 4.66814 3.26827 4.62619 3.18443 4.5423C3.10057 4.45841 3.05865 4.35446 3.05865 4.23045C3.05865 4.10644 3.10057 4.00256 3.18443 3.9188C3.26827 3.83503 3.37217 3.79315 3.49613 3.79315H10.4961C10.6201 3.79315 10.724 3.8351 10.8078 3.91899C10.8917 4.00288 10.9336 4.10683 10.9336 4.23084C10.9336 4.35486 10.8917 4.45874 10.8078 4.5425C10.724 4.62626 10.6201 4.66814 10.4961 4.66814H3.49613ZM4.6628 3.09764C4.53884 3.09764 4.43494 3.0557 4.35109 2.9718C4.26724 2.88791 4.22531 2.78396 4.22531 2.65995C4.22531 2.53594 4.26724 2.43205 4.35109 2.34829C4.43494 2.26453 4.53884 2.22266 4.6628 2.22266H9.32946C9.45342 2.22266 9.55733 2.2646 9.64118 2.3485C9.72503 2.43238 9.76695 2.53633 9.76695 2.66035C9.76695 2.78435 9.72503 2.88823 9.64118 2.97199C9.55733 3.05576 9.45342 3.09764 9.32946 3.09764H4.6628Z" fill="#888888"/>
</g>
</svg>
