<svg width="15" height="14" viewBox="0 0 15 14" fill="none" xmlns="http://www.w3.org/2000/svg">
<mask id="mask0_290_10692" style="mask-type:alpha" maskUnits="userSpaceOnUse" x="0" y="0" width="15" height="14">
<rect x="0.5" width="14" height="14" fill="#D9D9D9"/>
</mask>
<g mask="url(#mask0_290_10692)">
<path d="M7.5 9.75951C7.63349 9.75951 7.74539 9.71436 7.83569 9.62406C7.92599 9.53375 7.97114 9.42185 7.97114 9.28836C7.97114 9.15487 7.92599 9.04297 7.83569 8.95267C7.74539 8.86237 7.63349 8.81722 7.5 8.81722C7.3665 8.81722 7.2546 8.86237 7.1643 8.95267C7.074 9.04297 7.02885 9.15487 7.02885 9.28836C7.02885 9.42185 7.074 9.53375 7.1643 9.62406C7.2546 9.71436 7.3665 9.75951 7.5 9.75951ZM7.50019 7.62811C7.6242 7.62811 7.72809 7.58618 7.81185 7.50233C7.8956 7.41849 7.93748 7.31458 7.93748 7.19063V4.5656C7.93748 4.44165 7.89554 4.33775 7.81166 4.25389C7.72776 4.17004 7.62381 4.12811 7.49981 4.12811C7.37579 4.12811 7.2719 4.17004 7.18815 4.25389C7.10439 4.33775 7.06251 4.44165 7.06251 4.5656V7.19063C7.06251 7.31458 7.10445 7.41849 7.18833 7.50233C7.27223 7.58618 7.37618 7.62811 7.50019 7.62811ZM7.50097 12.5416C6.73451 12.5416 6.01408 12.3961 5.33966 12.1052C4.66524 11.8143 4.07859 11.4196 3.57972 10.9209C3.08083 10.4222 2.68588 9.83586 2.39487 9.16174C2.10385 8.48763 1.95834 7.76734 1.95834 7.00088C1.95834 6.23442 2.10379 5.51398 2.39468 4.83957C2.68557 4.16515 3.08034 3.5785 3.57899 3.07963C4.07765 2.58074 4.66404 2.18579 5.33816 1.89478C6.01227 1.60376 6.73256 1.45825 7.49902 1.45825C8.26548 1.45825 8.98592 1.6037 9.66033 1.89459C10.3347 2.18547 10.9214 2.58025 11.4203 3.0789C11.9192 3.57756 12.3141 4.16395 12.6051 4.83807C12.8961 5.51218 13.0416 6.23247 13.0416 6.99893C13.0416 7.76539 12.8962 8.48582 12.6053 9.16024C12.3144 9.83466 11.9197 10.4213 11.421 10.9202C10.9223 11.4191 10.3359 11.814 9.66183 12.105C8.98772 12.396 8.26743 12.5416 7.50097 12.5416ZM7.5 11.6666C8.80277 11.6666 9.90625 11.2145 10.8104 10.3103C11.7146 9.40616 12.1667 8.30268 12.1667 6.9999C12.1667 5.69713 11.7146 4.59365 10.8104 3.68949C9.90625 2.78532 8.80277 2.33324 7.5 2.33324C6.19722 2.33324 5.09375 2.78532 4.18958 3.68949C3.28541 4.59365 2.83333 5.69713 2.83333 6.9999C2.83333 8.30268 3.28541 9.40616 4.18958 10.3103C5.09375 11.2145 6.19722 11.6666 7.5 11.6666Z" fill="#FF4141" fill-opacity="0.6"/>
</g>
</svg>
