<svg width="15" height="14" viewBox="0 0 15 14" fill="none" xmlns="http://www.w3.org/2000/svg">
<mask id="mask0_290_11053" style="mask-type:alpha" maskUnits="userSpaceOnUse" x="0" y="0" width="15" height="14">
<rect x="0.5" width="14" height="14" fill="#D9D9D9"/>
</mask>
<g mask="url(#mask0_290_11053)">
<path d="M7.4999 9.75951C7.6334 9.75951 7.7453 9.71436 7.8356 9.62406C7.9259 9.53375 7.97105 9.42185 7.97105 9.28836C7.97105 9.15487 7.9259 9.04297 7.8356 8.95267C7.7453 8.86237 7.6334 8.81722 7.4999 8.81722C7.36641 8.81722 7.25451 8.86237 7.16421 8.95267C7.07391 9.04297 7.02876 9.15487 7.02876 9.28836C7.02876 9.42185 7.07391 9.53375 7.16421 9.62406C7.25451 9.71436 7.36641 9.75951 7.4999 9.75951ZM7.50009 7.62811C7.62411 7.62811 7.728 7.58618 7.81175 7.50233C7.89551 7.41849 7.93739 7.31458 7.93739 7.19063V4.5656C7.93739 4.44165 7.89545 4.33775 7.81156 4.25389C7.72767 4.17004 7.62372 4.12811 7.49971 4.12811C7.3757 4.12811 7.27181 4.17004 7.18805 4.25389C7.1043 4.33775 7.06242 4.44165 7.06242 4.5656V7.19063C7.06242 7.31458 7.10436 7.41849 7.18824 7.50233C7.27214 7.58618 7.37609 7.62811 7.50009 7.62811ZM7.50088 12.5416C6.73442 12.5416 6.01398 12.3961 5.33957 12.1052C4.66515 11.8143 4.0785 11.4196 3.57963 10.9209C3.08074 10.4222 2.68579 9.83586 2.39478 9.16174C2.10376 8.48763 1.95825 7.76734 1.95825 7.00088C1.95825 6.23442 2.1037 5.51398 2.39459 4.83957C2.68547 4.16515 3.08025 3.5785 3.5789 3.07963C4.07756 2.58074 4.66395 2.18579 5.33807 1.89478C6.01218 1.60376 6.73247 1.45825 7.49893 1.45825C8.26539 1.45825 8.98583 1.6037 9.66024 1.89459C10.3347 2.18547 10.9213 2.58025 11.4202 3.0789C11.9191 3.57756 12.314 4.16395 12.605 4.83807C12.896 5.51218 13.0416 6.23247 13.0416 6.99893C13.0416 7.76539 12.8961 8.48582 12.6052 9.16024C12.3143 9.83466 11.9196 10.4213 11.4209 10.9202C10.9222 11.4191 10.3359 11.814 9.66174 12.105C8.98763 12.396 8.26734 12.5416 7.50088 12.5416ZM7.4999 11.6666C8.80268 11.6666 9.90616 11.2145 10.8103 10.3103C11.7145 9.40616 12.1666 8.30268 12.1666 6.9999C12.1666 5.69713 11.7145 4.59365 10.8103 3.68949C9.90616 2.78532 8.80268 2.33324 7.4999 2.33324C6.19713 2.33324 5.09365 2.78532 4.18949 3.68949C3.28532 4.59365 2.83324 5.69713 2.83324 6.9999C2.83324 8.30268 3.28532 9.40616 4.18949 10.3103C5.09365 11.2145 6.19713 11.6666 7.4999 11.6666Z" fill="#888888"/>
</g>
</svg>
