<svg width="28" height="46" viewBox="0 0 28 46" fill="none" xmlns="http://www.w3.org/2000/svg">
<path d="M23.656 16C23.656 20.6667 23.656 25.3333 23.656 30H4.34375C4.34375 25.3333 4.34375 20.6667 4.34375 16H23.656Z" fill="#2DCC9F"/>
<path d="M19.6823 17.8589C19.3266 17.7838 18.9557 17.8389 18.6373 18.0142C18.3188 18.1895 18.0738 18.4734 17.947 18.814C17.8201 19.1547 17.8198 19.5296 17.946 19.8705C18.0722 20.2114 18.3167 20.4957 18.6348 20.6716C18.953 20.8474 19.3237 20.9032 19.6796 20.8288C20.0354 20.7544 20.3527 20.5547 20.5737 20.2661C20.7947 19.9775 20.9048 19.6191 20.8838 19.2561C20.8629 18.8932 20.7123 18.5499 20.4596 18.2886C20.2488 18.0714 19.9782 17.9218 19.6823 17.8589Z" fill="white"/>
<path d="M15.4583 25.8301C14.2058 24.0883 12.9528 22.3468 11.6993 20.6055C9.84077 23.1906 7.98265 25.7749 6.125 28.3586C8.63053 28.3586 11.1365 28.3586 13.643 28.3586C14.2481 27.5163 14.8537 26.6741 15.4597 25.8322" fill="white"/>
<path d="M18.1795 23.0039C16.8953 24.7889 15.6115 26.5741 14.3281 28.3596C16.8957 28.3596 19.4636 28.3596 22.0316 28.3596C20.7483 26.5741 19.4643 24.7889 18.1795 23.0039Z" fill="white"/>
</svg>
