<svg width="14" height="14" viewBox="0 0 14 14" fill="none" xmlns="http://www.w3.org/2000/svg">
<mask id="mask0_804_12232" style="mask-type:alpha" maskUnits="userSpaceOnUse" x="0" y="0" width="14" height="14">
<rect width="14" height="14" fill="#D9D9D9"/>
</mask>
<g mask="url(#mask0_804_12232)">
<path d="M7.00278 9.7695C7.1268 9.7695 7.23068 9.72758 7.31444 9.64374C7.3982 9.55988 7.44008 9.45598 7.44008 9.33202V6.85284C7.44008 6.72889 7.39813 6.62499 7.31425 6.54113C7.23036 6.45728 7.12641 6.41535 7.0024 6.41535C6.87838 6.41535 6.7745 6.45728 6.69074 6.54113C6.60698 6.62499 6.5651 6.72889 6.5651 6.85284V9.33202C6.5651 9.45598 6.60705 9.55988 6.69093 9.64374C6.77482 9.72758 6.87877 9.7695 7.00278 9.7695ZM7.00259 5.41696C7.13609 5.41696 7.24798 5.37181 7.33828 5.28151C7.42858 5.19121 7.47373 5.07931 7.47373 4.94582C7.47373 4.81233 7.42858 4.70043 7.33828 4.61012C7.24798 4.51982 7.13609 4.47467 7.00259 4.47467C6.86909 4.47467 6.7572 4.51982 6.6669 4.61012C6.5766 4.70043 6.53145 4.81233 6.53145 4.94582C6.53145 5.07931 6.5766 5.19121 6.6669 5.28151C6.7572 5.37181 6.86909 5.41696 7.00259 5.41696ZM7.00357 12.5403C6.23711 12.5403 5.51667 12.3949 4.84226 12.104C4.16784 11.8131 3.58119 11.4183 3.08231 10.9197C2.58343 10.421 2.18848 9.83464 1.89746 9.16052C1.60645 8.48641 1.46094 7.76612 1.46094 6.99966C1.46094 6.2332 1.60638 5.51276 1.89727 4.83835C2.18816 4.16393 2.58293 3.57728 3.08158 3.07841C3.58025 2.57952 4.16664 2.18457 4.84076 1.89355C5.51487 1.60254 6.23515 1.45703 7.00161 1.45703C7.76807 1.45703 8.48851 1.60248 9.16292 1.89336C9.83734 2.18425 10.424 2.57902 10.9229 3.07768C11.4218 3.57634 11.8167 4.16273 12.1077 4.83685C12.3987 5.51096 12.5442 6.23125 12.5442 6.99771C12.5442 7.76417 12.3988 8.4846 12.1079 9.15901C11.817 9.83344 11.4222 10.4201 10.9236 10.919C10.4249 11.4178 9.83854 11.8128 9.16442 12.1038C8.49031 12.3948 7.77003 12.5403 7.00357 12.5403ZM7.00259 11.6654C8.30537 11.6654 9.40884 11.2133 10.313 10.3091C11.2172 9.40493 11.6693 8.30146 11.6693 6.99868C11.6693 5.69591 11.2172 4.59243 10.313 3.68827C9.40884 2.7841 8.30537 2.33202 7.00259 2.33202C5.69981 2.33202 4.59634 2.7841 3.69217 3.68827C2.78801 4.59243 2.33592 5.69591 2.33592 6.99868C2.33592 8.30146 2.78801 9.40493 3.69217 10.3091C4.59634 11.2133 5.69981 11.6654 7.00259 11.6654Z" fill="#888888"/>
</g>
</svg>
