<svg xmlns="http://www.w3.org/2000/svg" width="16" height="16" viewBox="0 0 16 16" fill="none">
  <mask id="mask0_1513_18235" style="mask-type:alpha" maskUnits="userSpaceOnUse" x="0" y="0" width="16" height="16">
    <rect width="16" height="16" fill="#D9D9D9"/>
  </mask>
  <g mask="url(#mask0_1513_18235)">
    <path d="M9.29483 5.90878C9.29483 5.83443 9.32133 5.75836 9.37432 5.68058C9.42731 5.6028 9.48756 5.54939 9.55508 5.52033C9.88585 5.38784 10.2262 5.28741 10.5763 5.21905C10.9263 5.15067 11.2897 5.11648 11.6666 5.11648C11.8846 5.11648 12.0955 5.1293 12.2993 5.15493C12.5032 5.18058 12.7085 5.21562 12.9153 5.26006C12.994 5.27801 13.0619 5.32074 13.1192 5.38827C13.1765 5.45579 13.2051 5.53442 13.2051 5.62416C13.2051 5.77459 13.1579 5.88463 13.0634 5.95428C12.969 6.02394 12.8465 6.04081 12.6961 6.00491C12.5363 5.97158 12.3703 5.94765 12.1981 5.93313C12.0258 5.9186 11.8487 5.91133 11.6666 5.91133C11.3436 5.91133 11.0271 5.94232 10.7173 6.00428C10.4074 6.06625 10.1119 6.15022 9.83072 6.2562C9.67346 6.31689 9.54483 6.31347 9.44483 6.24595C9.34483 6.17843 9.29483 6.06604 9.29483 5.90878ZM9.29483 9.5498C9.29483 9.47544 9.32133 9.39831 9.37432 9.3184C9.42731 9.23849 9.48756 9.184 9.55508 9.15493C9.87731 9.02245 10.2177 8.9231 10.5763 8.85686C10.9348 8.79062 11.2983 8.7575 11.6666 8.7575C11.8846 8.7575 12.0955 8.77032 12.2993 8.79596C12.5032 8.8216 12.7085 8.85664 12.9153 8.90108C12.994 8.91904 13.0619 8.96178 13.1192 9.0293C13.1765 9.09681 13.2051 9.17544 13.2051 9.26518C13.2051 9.4156 13.1579 9.52564 13.0634 9.5953C12.969 9.66495 12.8465 9.68184 12.6961 9.64595C12.5363 9.61261 12.3703 9.58868 12.1981 9.57415C12.0258 9.55962 11.8487 9.55235 11.6666 9.55235C11.3478 9.55235 11.0346 9.58269 10.7269 9.64338C10.4192 9.70407 10.1247 9.78954 9.84355 9.8998C9.68628 9.96475 9.55552 9.96304 9.45125 9.89466C9.34697 9.82629 9.29483 9.71133 9.29483 9.5498ZM9.29483 7.7293C9.29483 7.65493 9.32133 7.57779 9.37432 7.49788C9.42731 7.41797 9.48756 7.36349 9.55508 7.33443C9.88585 7.20195 10.2262 7.10259 10.5763 7.03635C10.9263 6.9701 11.2897 6.93698 11.6666 6.93698C11.8846 6.93698 12.0955 6.9498 12.2993 6.97545C12.5032 7.00109 12.7085 7.03614 12.9153 7.08058C12.994 7.09853 13.0619 7.14126 13.1192 7.20878C13.1765 7.2763 13.2051 7.35493 13.2051 7.44466C13.2051 7.5951 13.1579 7.70514 13.0634 7.7748C12.969 7.84445 12.8465 7.86133 12.6961 7.82543C12.5363 7.7921 12.3703 7.76817 12.1981 7.75363C12.0258 7.73911 11.8487 7.73185 11.6666 7.73185C11.3478 7.73185 11.0346 7.7639 10.7269 7.828C10.4192 7.8921 10.1247 7.97928 9.84355 8.08953C9.68628 8.1545 9.55552 8.15108 9.45125 8.07928C9.34697 8.00749 9.29483 7.89083 9.29483 7.7293ZM4.3333 10.6806C4.88544 10.6806 5.42263 10.7432 5.94485 10.8684C6.46707 10.9936 6.98545 11.19 7.49998 11.4575V4.90365C7.03161 4.59853 6.52477 4.36968 5.97947 4.21711C5.43417 4.06455 4.88544 3.98826 4.3333 3.98826C3.9333 3.98826 3.55958 4.01967 3.21215 4.08248C2.86472 4.1453 2.50767 4.24808 2.141 4.39081C2.08971 4.40791 2.05338 4.43249 2.03202 4.46455C2.01065 4.4966 1.99997 4.53186 1.99997 4.57031V10.8754C1.99997 10.9353 2.02133 10.9791 2.06407 11.0068C2.10681 11.0346 2.15383 11.0378 2.20512 11.0165C2.52135 10.9088 2.85511 10.8259 3.20638 10.7677C3.55766 10.7096 3.9333 10.6806 4.3333 10.6806ZM8.49995 11.4575C9.01448 11.19 9.53286 10.9936 10.0551 10.8684C10.5773 10.7432 11.1145 10.6806 11.6666 10.6806C12.0666 10.6806 12.4423 10.7096 12.7936 10.7677C13.1448 10.8259 13.4786 10.9088 13.7948 11.0165C13.8461 11.0378 13.8931 11.0346 13.9359 11.0068C13.9786 10.9791 14 10.9353 14 10.8754V4.57031C14 4.53186 13.9893 4.49767 13.9679 4.46775C13.9466 4.43783 13.9102 4.41218 13.8589 4.39081C13.4923 4.24808 13.1352 4.1453 12.7878 4.08248C12.4404 4.01967 12.0666 3.98826 11.6666 3.98826C11.1145 3.98826 10.5658 4.06455 10.0205 4.21711C9.47517 4.36968 8.96833 4.59853 8.49995 4.90365V11.4575ZM7.99997 12.6446C7.87006 12.6446 7.74848 12.6284 7.63523 12.5959C7.52199 12.5635 7.41494 12.5203 7.31408 12.4664C6.85511 12.2066 6.37497 12.0107 5.87368 11.8786C5.37241 11.7466 4.85894 11.6805 4.3333 11.6805C3.92647 11.6805 3.5269 11.7256 3.1346 11.8158C2.74229 11.906 2.36408 12.0387 1.99998 12.2139C1.76238 12.3233 1.53632 12.306 1.32178 12.1619C1.10726 12.0179 1 11.8139 1 11.5498V4.31135C1 4.16776 1.03696 4.03293 1.11088 3.90686C1.18482 3.7808 1.29144 3.68999 1.43077 3.63443C1.88204 3.41478 2.35234 3.25217 2.84165 3.14661C3.33096 3.04106 3.82818 2.98828 4.3333 2.98828C4.98202 2.98828 5.61578 3.07696 6.23458 3.25431C6.85338 3.43166 7.44184 3.69341 7.99997 4.03957C8.55809 3.69341 9.14655 3.43166 9.76535 3.25431C10.3841 3.07696 11.0179 2.98828 11.6666 2.98828C12.1718 2.98828 12.669 3.04106 13.1583 3.14661C13.6476 3.25217 14.1179 3.41478 14.5692 3.63443C14.7085 3.68999 14.8151 3.7808 14.889 3.90686C14.963 4.03293 15 4.16776 15 4.31135V11.5498C15 11.8139 14.8884 12.0158 14.6653 12.1555C14.4423 12.2953 14.2076 12.3104 13.9615 12.201C13.6017 12.0301 13.2288 11.9006 12.8429 11.8126C12.457 11.7246 12.0649 11.6805 11.6666 11.6805C11.141 11.6805 10.6275 11.7466 10.1263 11.8786C9.62496 12.0107 9.14483 12.2066 8.68585 12.4664C8.58499 12.5203 8.47794 12.5635 8.3647 12.5959C8.25146 12.6284 8.12988 12.6446 7.99997 12.6446Z" fill="#888888"/>
  </g>
</svg>