<svg width="12" height="12" viewBox="0 0 12 12" fill="none" xmlns="http://www.w3.org/2000/svg">
  <path d="M4.07461 10.8752L3.34961 9.65018L1.97461 9.35018C1.84961 9.32518 1.74961 9.2606 1.67461 9.15643C1.59961 9.05227 1.57044 8.93768 1.58711 8.81268L1.72461 7.40018L0.787109 6.32518C0.703776 6.23351 0.662109 6.12518 0.662109 6.00018C0.662109 5.87518 0.703776 5.76685 0.787109 5.67518L1.72461 4.60018L1.58711 3.18768C1.57044 3.06268 1.59961 2.9481 1.67461 2.84393C1.74961 2.73976 1.84961 2.67518 1.97461 2.65018L3.34961 2.35018L4.07461 1.12518C4.14128 1.01685 4.23294 0.943931 4.34961 0.906431C4.46628 0.868931 4.58294 0.875181 4.69961 0.925181L5.99961 1.47518L7.29961 0.925181C7.41628 0.875181 7.53294 0.868931 7.64961 0.906431C7.76628 0.943931 7.85794 1.01685 7.92461 1.12518L8.64961 2.35018L10.0246 2.65018C10.1496 2.67518 10.2496 2.73976 10.3246 2.84393C10.3996 2.9481 10.4288 3.06268 10.4121 3.18768L10.2746 4.60018L11.2121 5.67518C11.2954 5.76685 11.3371 5.87518 11.3371 6.00018C11.3371 6.12518 11.2954 6.23351 11.2121 6.32518L10.2746 7.40018L10.4121 8.81268C10.4288 8.93768 10.3996 9.05227 10.3246 9.15643C10.2496 9.2606 10.1496 9.32518 10.0246 9.35018L8.64961 9.65018L7.92461 10.8752C7.85794 10.9835 7.76628 11.0564 7.64961 11.0939C7.53294 11.1314 7.41628 11.1252 7.29961 11.0752L5.99961 10.5252L4.69961 11.0752C4.58294 11.1252 4.46628 11.1314 4.34961 11.0939C4.23294 11.0564 4.14128 10.9835 4.07461 10.8752ZM5.47461 6.35018L4.74961 5.63768C4.65794 5.54601 4.54336 5.50018 4.40586 5.50018C4.26836 5.50018 4.14961 5.55018 4.04961 5.65018C3.95794 5.74185 3.91211 5.85851 3.91211 6.00018C3.91211 6.14185 3.95794 6.25851 4.04961 6.35018L5.12461 7.42518C5.22461 7.52518 5.34128 7.57518 5.47461 7.57518C5.60794 7.57518 5.72461 7.52518 5.82461 7.42518L7.94961 5.30018C8.04961 5.20018 8.09753 5.08351 8.09336 4.95018C8.08919 4.81685 8.04128 4.70018 7.94961 4.60018C7.84961 4.50018 7.73086 4.4481 7.59336 4.44393C7.45586 4.43976 7.33711 4.48768 7.23711 4.58768L5.47461 6.35018Z" fill="#2A9328"/>
</svg>
