<svg width="12" height="12" viewBox="0 0 12 12" fill="none" xmlns="http://www.w3.org/2000/svg">
<mask id="mask0_809_12397" style="mask-type:alpha" maskUnits="userSpaceOnUse" x="0" y="0" width="12" height="12">
<rect width="12" height="12" fill="#D9D9D9"/>
</mask>
<g mask="url(#mask0_809_12397)">
<path d="M4.07656 10.8757L3.35156 9.65067L1.97656 9.35067C1.85156 9.32567 1.75156 9.26109 1.67656 9.15692C1.60156 9.05275 1.5724 8.93817 1.58906 8.81317L1.72656 7.40067L0.789062 6.32567C0.705729 6.234 0.664062 6.12567 0.664062 6.00067C0.664062 5.87567 0.705729 5.76734 0.789062 5.67567L1.72656 4.60067L1.58906 3.18817C1.5724 3.06317 1.60156 2.94859 1.67656 2.84442C1.75156 2.74025 1.85156 2.67567 1.97656 2.65067L3.35156 2.35067L4.07656 1.12567C4.14323 1.01734 4.2349 0.94442 4.35156 0.90692C4.46823 0.86942 4.5849 0.87567 4.70156 0.92567L6.00156 1.47567L7.30156 0.92567C7.41823 0.87567 7.5349 0.86942 7.65156 0.90692C7.76823 0.94442 7.8599 1.01734 7.92656 1.12567L8.65156 2.35067L10.0266 2.65067C10.1516 2.67567 10.2516 2.74025 10.3266 2.84442C10.4016 2.94859 10.4307 3.06317 10.4141 3.18817L10.2766 4.60067L11.2141 5.67567C11.2974 5.76734 11.3391 5.87567 11.3391 6.00067C11.3391 6.12567 11.2974 6.234 11.2141 6.32567L10.2766 7.40067L10.4141 8.81317C10.4307 8.93817 10.4016 9.05275 10.3266 9.15692C10.2516 9.26109 10.1516 9.32567 10.0266 9.35067L8.65156 9.65067L7.92656 10.8757C7.8599 10.984 7.76823 11.0569 7.65156 11.0944C7.5349 11.1319 7.41823 11.1257 7.30156 11.0757L6.00156 10.5257L4.70156 11.0757C4.5849 11.1257 4.46823 11.1319 4.35156 11.0944C4.2349 11.0569 4.14323 10.984 4.07656 10.8757ZM5.47656 6.35067L4.75156 5.63817C4.6599 5.5465 4.54531 5.50067 4.40781 5.50067C4.27031 5.50067 4.15156 5.55067 4.05156 5.65067C3.9599 5.74234 3.91406 5.859 3.91406 6.00067C3.91406 6.14234 3.9599 6.259 4.05156 6.35067L5.12656 7.42567C5.22656 7.52567 5.34323 7.57567 5.47656 7.57567C5.6099 7.57567 5.72656 7.52567 5.82656 7.42567L7.95156 5.30067C8.05156 5.20067 8.09948 5.084 8.09531 4.95067C8.09115 4.81734 8.04323 4.70067 7.95156 4.60067C7.85156 4.50067 7.73281 4.44859 7.59531 4.44442C7.45781 4.44025 7.33906 4.48817 7.23906 4.58817L5.47656 6.35067Z" fill="#2A9328"/>
</g>
</svg>
