<svg width="16" height="16" viewBox="0 0 16 16" fill="none" xmlns="http://www.w3.org/2000/svg">
<mask id="mask0_800_12175" style="mask-type:alpha" maskUnits="userSpaceOnUse" x="0" y="0" width="16" height="16">
<rect width="16" height="16" fill="#D9D9D9"/>
</mask>
<g mask="url(#mask0_800_12175)">
<path d="M4.66665 9.07558C4.37051 9.07558 4.11698 8.97014 3.90608 8.75925C3.69519 8.54835 3.58975 8.29483 3.58975 7.99868C3.58975 7.70254 3.69519 7.44902 3.90608 7.23812C4.11698 7.02723 4.37051 6.92178 4.66665 6.92178C4.96279 6.92178 5.21632 7.02723 5.42722 7.23812C5.63811 7.44902 5.74355 7.70254 5.74355 7.99868C5.74355 8.29483 5.63811 8.54835 5.42722 8.75925C5.21632 8.97014 4.96279 9.07558 4.66665 9.07558ZM4.66665 11.6653C3.64814 11.6653 2.78241 11.309 2.06945 10.5963C1.35648 9.88366 1 9.01829 1 8.0002C1 6.9821 1.35648 6.11621 2.06945 5.40255C2.78241 4.68887 3.64814 4.33203 4.66665 4.33203C5.38117 4.33203 6.02732 4.51644 6.6051 4.88525C7.18288 5.25405 7.6239 5.73631 7.92817 6.33203H13.6782C13.7567 6.33203 13.8327 6.34657 13.9063 6.37563C13.9799 6.40469 14.0478 6.45042 14.1102 6.51282L15.1743 7.5769C15.2367 7.63929 15.2807 7.70538 15.3064 7.77518C15.332 7.84498 15.3448 7.91976 15.3448 7.99953C15.3448 8.07931 15.332 8.15381 15.3064 8.22303C15.2807 8.29226 15.2367 8.35808 15.1743 8.42046L13.4102 10.1781C13.3603 10.2298 13.3004 10.2711 13.2305 10.3021C13.1606 10.3331 13.091 10.3521 13.0218 10.3589C12.9526 10.3657 12.8833 10.3591 12.8141 10.339C12.7449 10.319 12.6791 10.2854 12.6167 10.2384L11.7949 9.62045L10.8641 10.3115C10.8128 10.3516 10.7581 10.3807 10.7 10.3986C10.6419 10.4166 10.5816 10.4256 10.5192 10.4256C10.4568 10.4256 10.3949 10.4155 10.3333 10.3954C10.2718 10.3754 10.2154 10.3474 10.1641 10.3115L9.22437 9.66533H7.92817C7.6239 10.2568 7.18288 10.738 6.6051 11.1089C6.02732 11.4799 5.38117 11.6653 4.66665 11.6653ZM4.66665 10.6653C5.30597 10.6653 5.85961 10.4722 6.32755 10.0859C6.79549 9.69953 7.10083 9.22603 7.24357 8.66535H9.53847L10.4987 9.32945C10.4944 9.32945 10.4934 9.33116 10.4955 9.33458C10.4977 9.33799 10.4987 9.33628 10.4987 9.32945L11.8013 8.3769L12.9333 9.24226L14.1769 7.99868L13.5103 7.33201H7.24357C7.10083 6.77134 6.79549 6.29783 6.32755 5.9115C5.85961 5.52518 5.30597 5.33201 4.66665 5.33201C3.93332 5.33201 3.30554 5.59313 2.78332 6.11535C2.26109 6.63757 1.99998 7.26535 1.99998 7.99868C1.99998 8.73201 2.26109 9.35979 2.78332 9.88201C3.30554 10.4042 3.93332 10.6653 4.66665 10.6653Z" fill="#888888"/>
</g>
</svg>
