<svg width="14" height="8" viewBox="0 0 14 8" fill="none" xmlns="http://www.w3.org/2000/svg">
  <path d="M4.08332 4.94236C3.82419 4.94236 3.60236 4.85009 3.41782 4.66556C3.23329 4.48103 3.14103 4.25919 3.14103 4.00007C3.14103 3.74094 3.23329 3.51911 3.41782 3.33457C3.60236 3.15004 3.82419 3.05778 4.08332 3.05778C4.34244 3.05778 4.56428 3.15004 4.74881 3.33457C4.93334 3.51911 5.02561 3.74094 5.02561 4.00007C5.02561 4.25919 4.93334 4.48103 4.74881 4.66556C4.56428 4.85009 4.34244 4.94236 4.08332 4.94236ZM4.08332 7.20839C3.19212 7.20839 2.4346 6.8966 1.81077 6.27301C1.18692 5.64943 0.875 4.89222 0.875 4.00139C0.875 3.11056 1.18692 2.35291 1.81077 1.72845C2.4346 1.10398 3.19212 0.791748 4.08332 0.791748C4.70853 0.791748 5.27391 0.953103 5.77946 1.27581C6.28502 1.59851 6.67091 2.02049 6.93715 2.54175H11.9684C12.0371 2.54175 12.1036 2.55447 12.168 2.5799C12.2324 2.60532 12.2919 2.64533 12.3465 2.69993L13.2775 3.63101C13.3321 3.6856 13.3706 3.74343 13.3931 3.8045C13.4155 3.86558 13.4267 3.93102 13.4267 4.00081C13.4267 4.07062 13.4155 4.1358 13.3931 4.19637C13.3706 4.25695 13.3321 4.31454 13.2775 4.36913L11.734 5.90709C11.6903 5.9523 11.6378 5.98848 11.5767 6.0156C11.5155 6.04273 11.4546 6.05928 11.3941 6.06527C11.3335 6.07125 11.2729 6.06545 11.2123 6.04787C11.1518 6.03031 11.0942 6.00095 11.0396 5.95982L10.3205 5.41911L9.50609 6.02375C9.46121 6.05891 9.41335 6.08434 9.3625 6.10004C9.31164 6.11575 9.25892 6.12361 9.20433 6.12361C9.14973 6.12361 9.09551 6.11482 9.04167 6.09724C8.98782 6.07966 8.93847 6.05517 8.89359 6.02375L8.07132 5.45839H6.93715C6.67091 5.9759 6.28502 6.39695 5.77946 6.72152C5.27391 7.0461 4.70853 7.20839 4.08332 7.20839ZM4.08332 6.3334C4.64273 6.3334 5.12715 6.16438 5.53661 5.82635C5.94606 5.48831 6.21323 5.07399 6.33812 4.5834H8.34616L9.18638 5.16449C9.18263 5.16449 9.1817 5.16599 9.18358 5.16898C9.18544 5.17196 9.18638 5.17047 9.18638 5.16449L10.3261 4.33101L11.3167 5.0882L12.4048 4.00007L11.8215 3.41673H6.33812C6.21323 2.92614 5.94606 2.51182 5.53661 2.17378C5.12715 1.83575 4.64273 1.66673 4.08332 1.66673C3.44165 1.66673 2.89235 1.89521 2.4354 2.35215C1.97846 2.8091 1.74999 3.3584 1.74999 4.00007C1.74999 4.64173 1.97846 5.19104 2.4354 5.64798C2.89235 6.10493 3.44165 6.3334 4.08332 6.3334Z" fill="white"/>
</svg>
