<svg width="16" height="16" viewBox="0 0 16 16" fill="none" xmlns="http://www.w3.org/2000/svg">
<mask id="mask0_363_22454" style="mask-type:alpha" maskUnits="userSpaceOnUse" x="0" y="0" width="16" height="16">
<rect width="16" height="16" fill="#D9D9D9"/>
</mask>
<g mask="url(#mask0_363_22454)">
<path d="M3.53863 13.6668C3.20187 13.6668 2.91683 13.5501 2.6835 13.3168C2.45016 13.0835 2.3335 12.7984 2.3335 12.4617V3.53863C2.3335 3.20187 2.45016 2.91683 2.6835 2.6835C2.91683 2.45016 3.20187 2.3335 3.53863 2.3335H12.4617C12.7984 2.3335 13.0835 2.45016 13.3168 2.6835C13.5501 2.91683 13.6668 3.20187 13.6668 3.53863V12.4617C13.6668 12.7984 13.5501 13.0835 13.3168 13.3168C13.0835 13.5501 12.7984 13.6668 12.4617 13.6668H3.53863ZM3.33348 3.53863V12.4617C3.33348 12.513 3.35485 12.56 3.39758 12.6027C3.44032 12.6454 3.48734 12.6668 3.53863 12.6668H12.4617C12.513 12.6668 12.56 12.6454 12.6027 12.6027C12.6454 12.56 12.6668 12.513 12.6668 12.4617V3.53863C12.6668 3.48734 12.6454 3.44032 12.6027 3.39758C12.56 3.35485 12.513 3.33348 12.4617 3.33348H11.1668V7.17961C11.1668 7.30012 11.1166 7.3888 11.0162 7.44565C10.9157 7.50248 10.8142 7.4997 10.7117 7.43731L9.97835 6.9886C9.88006 6.9262 9.77621 6.895 9.66681 6.895C9.55741 6.895 9.45357 6.9262 9.35528 6.9886L8.62195 7.43731C8.51939 7.4997 8.4179 7.50248 8.31746 7.44565C8.21704 7.3888 8.16683 7.30012 8.16683 7.17961V3.33348H3.53863C3.48734 3.33348 3.44032 3.35485 3.39758 3.39758C3.35485 3.44032 3.33348 3.48734 3.33348 3.53863Z" fill="white"/>
</g>
</svg>
