<svg width="16" height="16" viewBox="0 0 16 16" fill="none" xmlns="http://www.w3.org/2000/svg">
<g id="966_group">
<mask id="mask0_288_8088" style="mask-type:alpha" maskUnits="userSpaceOnUse" x="0" y="0" width="16" height="16">
<rect id="967_rectangle" width="16" height="16" fill="#D9D9D9"/>
</mask>
<g mask="url(#mask0_288_8088)">
<path id="968_vector" d="M4.33341 13.3334C3.3223 13.3334 2.45841 12.9834 1.74175 12.2834C1.02508 11.5834 0.666748 10.7278 0.666748 9.71673C0.666748 8.85007 0.927859 8.07784 1.45008 7.40007C1.9723 6.72229 2.65564 6.28895 3.50008 6.10007C3.68897 5.30007 4.16119 4.53895 4.91675 3.81673C5.6723 3.09451 6.47786 2.7334 7.33342 2.7334C7.70008 2.7334 8.01397 2.86395 8.27508 3.12507C8.53619 3.38618 8.66675 3.70007 8.66675 4.06673V8.10007L9.26675 7.51673C9.38897 7.39451 9.54175 7.3334 9.72508 7.3334C9.90842 7.3334 10.0667 7.40007 10.2001 7.5334C10.3223 7.65562 10.3834 7.81118 10.3834 8.00007C10.3834 8.18895 10.3223 8.34451 10.2001 8.46673L8.46675 10.2001C8.40008 10.2667 8.32786 10.314 8.25008 10.3417C8.1723 10.3695 8.08897 10.3834 8.00008 10.3834C7.91119 10.3834 7.82786 10.3695 7.75008 10.3417C7.6723 10.314 7.60008 10.2667 7.53341 10.2001L5.80008 8.46673C5.67786 8.34451 5.61397 8.19173 5.60841 8.0084C5.60286 7.82507 5.66675 7.66673 5.80008 7.5334C5.9223 7.41118 6.07508 7.34729 6.25841 7.34173C6.44175 7.33618 6.60008 7.39451 6.73342 7.51673L7.33342 8.10007V4.06673C6.48897 4.22229 5.83342 4.63062 5.36675 5.29173C4.90008 5.95284 4.66675 6.6334 4.66675 7.3334H4.33341C3.68897 7.3334 3.13897 7.56118 2.68341 8.01673C2.22786 8.47229 2.00008 9.02229 2.00008 9.66673C2.00008 10.3112 2.22786 10.8612 2.68341 11.3167C3.13897 11.7723 3.68897 12.0001 4.33341 12.0001H12.3334C12.8001 12.0001 13.1945 11.839 13.5167 11.5167C13.839 11.1945 14.0001 10.8001 14.0001 10.3334C14.0001 9.86673 13.839 9.47229 13.5167 9.15007C13.1945 8.82784 12.8001 8.66673 12.3334 8.66673H11.3334V7.3334C11.3334 6.80007 11.2112 6.30284 10.9667 5.84173C10.7223 5.38062 10.4001 4.98895 10.0001 4.66673V3.11673C10.8223 3.50562 11.4723 4.08062 11.9501 4.84173C12.4279 5.60284 12.6667 6.4334 12.6667 7.3334C13.4334 7.42229 14.0695 7.75284 14.5751 8.32507C15.0806 8.89729 15.3334 9.56673 15.3334 10.3334C15.3334 11.1667 15.0417 11.8751 14.4584 12.4584C13.8751 13.0417 13.1667 13.3334 12.3334 13.3334H4.33341Z" fill="black"/>
</g>
</g>
</svg>
