<svg width="72" height="72" viewBox="0 0 72 72" fill="none" xmlns="http://www.w3.org/2000/svg">
<mask id="mask0_1579_14127" style="mask-type:alpha" maskUnits="userSpaceOnUse" x="0" y="0" width="72" height="72">
<rect width="72" height="72" fill="#D9D9D9"/>
</mask>
<g mask="url(#mask0_1579_14127)">
<path d="M49.4177 36.3103C49.0587 36.3103 48.7235 36.2527 48.4119 36.1373C48.1004 36.0219 47.8042 35.8238 47.5235 35.5431L36.5044 24.5239C36.2236 24.2432 36.0255 23.9458 35.9101 23.6317C35.7948 23.3176 35.7371 22.981 35.7371 22.6221C35.7371 22.2631 35.7948 21.9278 35.9101 21.6163C36.0255 21.3048 36.2236 21.0086 36.5044 20.7278L47.5235 9.70873C47.8042 9.42798 48.1017 9.22991 48.4158 9.11451C48.7299 8.99911 49.0664 8.94141 49.4254 8.94141C49.7844 8.94141 50.1196 8.99911 50.4312 9.11451C50.7427 9.22991 51.0389 9.42798 51.3196 9.70873L62.3387 20.7278C62.6195 21.0086 62.8176 21.3061 62.9329 21.6202C63.0483 21.9343 63.106 22.2708 63.106 22.6297C63.106 22.9887 63.0483 23.324 62.9329 23.6355C62.8176 23.947 62.6195 24.2432 62.3387 24.5239L51.3196 35.5431C51.0389 35.8238 50.7414 36.0219 50.4273 36.1373C50.1132 36.2527 49.7767 36.3103 49.4177 36.3103ZM14.1256 32.422C13.3573 32.422 12.7133 32.1621 12.1936 31.6424C11.6739 31.1227 11.4141 30.4787 11.4141 29.7105V14.1337C11.4141 13.3654 11.6739 12.7214 12.1936 12.2017C12.7133 11.682 13.3573 11.4222 14.1256 11.4222H29.7024C30.4706 11.4222 31.1146 11.682 31.6343 12.2017C32.154 12.7214 32.4138 13.3654 32.4138 14.1337V29.7105C32.4138 30.4787 32.154 31.1227 31.6343 31.6424C31.1146 32.1621 30.4706 32.422 29.7024 32.422H14.1256ZM42.2793 60.5757C41.511 60.5757 40.867 60.3158 40.3473 59.7961C39.8276 59.2764 39.5678 58.6324 39.5678 57.8641V42.2874C39.5678 41.5191 39.8276 40.8752 40.3473 40.3555C40.867 39.8358 41.511 39.5759 42.2793 39.5759H57.856C58.6243 39.5759 59.2683 39.8358 59.788 40.3555C60.3077 40.8752 60.5676 41.5191 60.5676 42.2874V57.8641C60.5676 58.6324 60.3077 59.2764 59.788 59.7961C59.2683 60.3158 58.6243 60.5757 57.856 60.5757H42.2793ZM14.1256 60.5757C13.3573 60.5757 12.7133 60.3158 12.1936 59.7961C11.6739 59.2764 11.4141 58.6324 11.4141 57.8641V42.2874C11.4141 41.5191 11.6739 40.8752 12.1936 40.3555C12.7133 39.8358 13.3573 39.5759 14.1256 39.5759H29.7024C30.4706 39.5759 31.1146 39.8358 31.6343 40.3555C32.154 40.8752 32.4138 41.5191 32.4138 42.2874V57.8641C32.4138 58.6324 32.154 59.2764 31.6343 59.7961C31.1146 60.3158 30.4706 60.5757 29.7024 60.5757H14.1256ZM15.914 27.9221H27.914V15.9221H15.914V27.9221ZM49.4965 31.1759L57.9715 22.7009L49.4965 14.2259L41.0215 22.7009L49.4965 31.1759ZM44.0676 56.0758H56.0676V44.0758H44.0676V56.0758ZM15.914 56.0758H27.914V44.0758H15.914V56.0758Z" fill="#4E4A69"/>
<path d="M14.1282 32.4216C13.3599 32.4216 12.7159 32.1618 12.1962 31.6421C11.6765 31.1224 11.4167 30.4784 11.4167 29.7102V14.1334C11.4167 13.3651 11.6765 12.7211 12.1962 12.2014C12.7159 11.6817 13.3599 11.4219 14.1282 11.4219H29.705C30.4732 11.4219 31.1172 11.6817 31.6369 12.2014C32.1566 12.7211 32.4165 13.3651 32.4165 14.1334V29.7102C32.4165 30.4784 32.1566 31.1224 31.6369 31.6421C31.1172 32.1618 30.4732 32.4216 29.705 32.4216H14.1282ZM42.2819 60.5754C41.5136 60.5754 40.8697 60.3155 40.35 59.7958C39.8303 59.2761 39.5704 58.6321 39.5704 57.8638V42.2871C39.5704 41.5188 39.8303 40.8749 40.35 40.3552C40.8697 39.8355 41.5136 39.5756 42.2819 39.5756H57.8586C58.6269 39.5756 59.2709 39.8355 59.7906 40.3552C60.3103 40.8749 60.5702 41.5188 60.5702 42.2871V57.8638C60.5702 58.6321 60.3103 59.2761 59.7906 59.7958C59.2709 60.3155 58.6269 60.5754 57.8586 60.5754H42.2819ZM15.9166 27.9218H27.9166V15.9218H15.9166V27.9218ZM44.0703 56.0755H56.0703V44.0755H44.0703V56.0755Z" fill="#3F3B59"/>
</g>
</svg>
