<svg width="16" height="16" viewBox="0 0 16 16" fill="none" xmlns="http://www.w3.org/2000/svg">
<mask id="mask0_1093_25607" style="mask-type:alpha" maskUnits="userSpaceOnUse" x="0" y="0" width="16" height="16">
<rect width="16" height="16" fill="#D9D9D9"/>
</mask>
<g mask="url(#mask0_1093_25607)">
<path d="M10.981 8.07026C10.9012 8.07026 10.8267 8.05745 10.7575 8.03181C10.6883 8.00617 10.6225 7.96215 10.5601 7.89976L8.1114 5.45106C8.049 5.38868 8.00498 5.32258 7.97933 5.25278C7.9537 5.18298 7.94088 5.1082 7.94088 5.02843C7.94088 4.94865 7.9537 4.87415 7.97933 4.80491C8.00498 4.73569 8.049 4.66988 8.1114 4.60748L10.5601 2.1588C10.6225 2.09641 10.6886 2.05239 10.7584 2.02675C10.8282 2.0011 10.903 1.98828 10.9827 1.98828C11.0625 1.98828 11.137 2.0011 11.2062 2.02675C11.2755 2.05239 11.3413 2.09641 11.4037 2.1588L13.8523 4.60748C13.9147 4.66988 13.9588 4.73598 13.9844 4.80578C14.01 4.87558 14.0229 4.95036 14.0229 5.03013C14.0229 5.10991 14.01 5.18441 13.9844 5.25363C13.9588 5.32286 13.9147 5.38868 13.8523 5.45106L11.4037 7.89976C11.3413 7.96215 11.2752 8.00617 11.2054 8.03181C11.1356 8.05745 11.0608 8.07026 10.981 8.07026ZM3.13833 7.20618C2.9676 7.20618 2.82449 7.14844 2.709 7.03295C2.59351 6.91746 2.53577 6.77435 2.53577 6.60363V3.14213C2.53577 2.9714 2.59351 2.82829 2.709 2.7128C2.82449 2.59731 2.9676 2.53956 3.13833 2.53956H6.59983C6.77056 2.53956 6.91366 2.59731 7.02915 2.7128C7.14464 2.82829 7.20238 2.9714 7.20238 3.14213V6.60363C7.20238 6.77435 7.14464 6.91746 7.02915 7.03295C6.91366 7.14844 6.77056 7.20618 6.59983 7.20618H3.13833ZM9.3947 13.4626C9.22398 13.4626 9.08087 13.4048 8.96538 13.2893C8.84989 13.1738 8.79215 13.0307 8.79215 12.86V9.3985C8.79215 9.22778 8.84989 9.08467 8.96538 8.96918C9.08087 8.85369 9.22398 8.79595 9.3947 8.79595H12.8562C13.0269 8.79595 13.17 8.85369 13.2855 8.96918C13.401 9.08467 13.4588 9.22778 13.4588 9.3985V12.86C13.4588 13.0307 13.401 13.1738 13.2855 13.2893C13.17 13.4048 13.0269 13.4626 12.8562 13.4626H9.3947ZM3.13833 13.4626C2.9676 13.4626 2.82449 13.4048 2.709 13.2893C2.59351 13.1738 2.53577 13.0307 2.53577 12.86V9.3985C2.53577 9.22778 2.59351 9.08467 2.709 8.96918C2.82449 8.85369 2.9676 8.79595 3.13833 8.79595H6.59983C6.77056 8.79595 6.91366 8.85369 7.02915 8.96918C7.14464 9.08467 7.20238 9.22778 7.20238 9.3985V12.86C7.20238 13.0307 7.14464 13.1738 7.02915 13.2893C6.91366 13.4048 6.77056 13.4626 6.59983 13.4626H3.13833ZM3.53575 6.20621H6.20242V3.53955H3.53575V6.20621ZM10.9985 6.92928L12.8819 5.04595L10.9985 3.16261L9.1152 5.04595L10.9985 6.92928ZM9.79212 12.4626H12.4588V9.79591H9.79212V12.4626ZM3.53575 12.4626H6.20242V9.79591H3.53575V12.4626Z" fill="white"/>
</g>
</svg>
