<svg width="12" height="14" viewBox="0 0 12 14" fill="none" xmlns="http://www.w3.org/2000/svg">
<path d="M5.49992 12.0462V7.28716L1.33324 4.87435V9.51793C1.33324 9.55213 1.34179 9.58419 1.35889 9.6141C1.37597 9.64402 1.40161 9.66966 1.4358 9.69103L5.49992 12.0462ZM6.49989 12.0462L10.564 9.69103C10.5982 9.66966 10.6238 9.64402 10.6409 9.6141C10.658 9.58419 10.6666 9.55213 10.6666 9.51793V4.87435L6.49989 7.28716V12.0462ZM5.9999 6.42565L10.1166 4.04616L6.10247 1.72436C6.06828 1.703 6.03409 1.69231 5.9999 1.69231C5.96571 1.69231 5.93152 1.703 5.89734 1.72436L1.88322 4.04616L5.9999 6.42565ZM0.935819 10.5692C0.746074 10.4598 0.598213 10.3137 0.492235 10.1307C0.386246 9.94785 0.333252 9.74699 0.333252 9.5282V4.4718C0.333252 4.253 0.386246 4.05215 0.492235 3.86925C0.598213 3.68634 0.746074 3.54018 0.935819 3.43078L5.39734 0.862846C5.58708 0.753446 5.78794 0.698746 5.9999 0.698746C6.21187 0.698746 6.41272 0.753446 6.60247 0.862846L11.064 3.43078C11.2537 3.54018 11.4016 3.68634 11.5076 3.86925C11.6136 4.05215 11.6666 4.253 11.6666 4.4718V9.5282C11.6666 9.74699 11.6136 9.94785 11.5076 10.1307C11.4016 10.3137 11.2537 10.4598 11.064 10.5692L6.60247 13.1371C6.41272 13.2465 6.21187 13.3012 5.9999 13.3012C5.78794 13.3012 5.58708 13.2465 5.39734 13.1371L0.935819 10.5692Z" fill="white"/>
</svg>
