<svg width="20" height="22" viewBox="0 0 20 22" fill="none" xmlns="http://www.w3.org/2000/svg">
  <path id="deployed_code" d="M9.20273 19.046V11.4579L2.55905 7.6107V15.0148C2.55905 15.0693 2.57268 15.1204 2.59995 15.1681C2.6272 15.2158 2.66808 15.2567 2.72259 15.2908L9.20273 19.046ZM10.7972 19.046L17.2773 15.2908C17.3318 15.2567 17.3727 15.2158 17.3999 15.1681C17.4272 15.1204 17.4408 15.0693 17.4408 15.0148V7.6107L10.7972 11.4579V19.046ZM9.99994 10.0842L16.5639 6.29018L10.1635 2.58813C10.109 2.55406 10.0545 2.53702 9.99994 2.53702C9.94543 2.53702 9.89092 2.55406 9.8364 2.58813L3.43599 6.29018L9.99994 10.0842ZM1.92538 16.691C1.62283 16.5166 1.38707 16.2836 1.21809 15.9919C1.0491 15.7003 0.9646 15.38 0.9646 15.0312V6.96884C0.9646 6.61997 1.0491 6.29972 1.21809 6.00809C1.38707 5.71645 1.62283 5.4834 1.92538 5.30897L9.03916 1.21446C9.34171 1.04002 9.66197 0.952805 9.99994 0.952805C10.3379 0.952805 10.6582 1.04002 10.9607 1.21446L18.0745 5.30897C18.3771 5.4834 18.6128 5.71645 18.7818 6.00809C18.9508 6.29972 19.0353 6.61997 19.0353 6.96884V15.0312C19.0353 15.38 18.9508 15.7003 18.7818 15.9919C18.6128 16.2836 18.3771 16.5166 18.0745 16.691L10.9607 20.7855C10.6582 20.96 10.3379 21.0472 9.99994 21.0472C9.66197 21.0472 9.34171 20.96 9.03916 20.7855L1.92538 16.691Z" fill="url(#paint0_linear_216_22050)"/>
  <defs>
    <linearGradient id="paint0_linear_216_22050" x1="21.6151" y1="21.3814" x2="14.4222" y2="1.78938" gradientUnits="userSpaceOnUse">
      <stop stop-color="#B343CB"/>
      <stop offset="1" stop-color="#7095EB"/>
    </linearGradient>
  </defs>
</svg>