<svg width="14" height="14" viewBox="0 0 14 14" fill="none" xmlns="http://www.w3.org/2000/svg">
<mask id="mask0_415_23783" style="mask-type:alpha" maskUnits="userSpaceOnUse" x="0" y="0" width="14" height="14">
<rect width="14" height="14" fill="#D9D9D9"/>
</mask>
<g mask="url(#mask0_415_23783)">
<path d="M6.56234 11.4154V7.25125L2.91649 5.14004V9.20317C2.91649 9.2331 2.92397 9.26115 2.93893 9.28732C2.95389 9.3135 2.97632 9.33594 3.00624 9.35464L6.56234 11.4154ZM7.43731 11.4154L10.9934 9.35464C11.0233 9.33594 11.0458 9.3135 11.0607 9.28732C11.0757 9.26115 11.0832 9.2331 11.0832 9.20317V5.14004L7.43731 7.25125V11.4154ZM6.99982 6.49743L10.6019 4.41538L7.08957 2.3838C7.05965 2.36511 7.02974 2.35576 6.99982 2.35576C6.96991 2.35576 6.93999 2.36511 6.91008 2.3838L3.39772 4.41538L6.99982 6.49743ZM2.56875 10.123C2.40272 10.0273 2.27334 9.89944 2.18061 9.73939C2.08787 9.57935 2.0415 9.40361 2.0415 9.21216V4.78781C2.0415 4.59636 2.08787 4.42061 2.18061 4.26058C2.27334 4.10053 2.40272 3.97264 2.56875 3.87692L6.47258 1.62998C6.6386 1.53425 6.81435 1.48639 6.99982 1.48639C7.18529 1.48639 7.36104 1.53425 7.52707 1.62998L11.4309 3.87692C11.5969 3.97264 11.7263 4.10053 11.819 4.26058C11.9118 4.42061 11.9581 4.59636 11.9581 4.78781V9.21216C11.9581 9.40361 11.9118 9.57935 11.819 9.73939C11.7263 9.89944 11.5969 10.0273 11.4309 10.123L7.52707 12.37C7.36104 12.4657 7.18529 12.5136 6.99982 12.5136C6.81435 12.5136 6.6386 12.4657 6.47258 12.37L2.56875 10.123Z" fill="white"/>
</g>
</svg>
