<svg xmlns="http://www.w3.org/2000/svg" width="9" height="9" viewBox="0 0 9 9" fill="none">
  <path d="M7.91667 1.69809L1.54712 8.06764C1.46635 8.14841 1.36483 8.18973 1.24256 8.1916C1.12029 8.19346 1.0169 8.15214 0.932392 8.06764C0.847886 7.98313 0.805634 7.88068 0.805634 7.76028C0.805634 7.63987 0.847886 7.53741 0.932392 7.45291L7.30194 1.08336H3.68749C3.56354 1.08336 3.45964 1.04141 3.37579 0.95752C3.29193 0.873636 3.25 0.769687 3.25 0.64567C3.25 0.521663 3.29193 0.417781 3.37579 0.334024C3.45964 0.250258 3.56354 0.208374 3.68749 0.208374H8.26441C8.41379 0.208374 8.53901 0.258906 8.64006 0.359968C8.74113 0.461021 8.79166 0.586239 8.79166 0.735621V5.31254C8.79166 5.43649 8.74971 5.54039 8.66582 5.62424C8.58192 5.7081 8.47797 5.75003 8.35397 5.75003C8.22995 5.75003 8.12606 5.7081 8.04231 5.62424C7.95855 5.54039 7.91667 5.43649 7.91667 5.31254V1.69809Z" fill="#FFA800"/>
</svg>