<svg width="11" height="10" viewBox="0 0 11 10" fill="none" xmlns="http://www.w3.org/2000/svg">
<path d="M1.59618 9.95839C1.30152 9.95839 1.0521 9.8563 0.847937 9.65214C0.64377 9.44797 0.541687 9.19855 0.541687 8.90389V1.09624C0.541687 0.801579 0.64377 0.552165 0.847937 0.347998C1.0521 0.143831 1.30152 0.041748 1.59618 0.041748L4.83814 0.041748C4.96228 0.041748 5.06623 0.0836318 5.14999 0.167398C5.23375 0.251155 5.27563 0.355105 5.27563 0.479248C5.27563 0.603391 5.23375 0.707342 5.14999 0.791099C5.06623 0.874856 4.96228 0.916734 4.83814 0.916734H1.59618C1.5513 0.916734 1.51016 0.93543 1.47276 0.972821C1.43537 1.01022 1.41667 1.05136 1.41667 1.09624V8.90389C1.41667 8.94877 1.43537 8.98991 1.47276 9.02731C1.51016 9.0647 1.5513 9.0834 1.59618 9.0834H9.40383C9.44871 9.0834 9.48985 9.0647 9.52725 9.02731C9.56464 8.98991 9.58334 8.94877 9.58334 8.90389V5.66193C9.58334 5.53779 9.62522 5.43384 9.70898 5.35008C9.79273 5.26632 9.89668 5.22445 10.0208 5.22445C10.145 5.22445 10.2489 5.26632 10.3327 5.35008C10.4164 5.43384 10.4583 5.53779 10.4583 5.66193V8.90389C10.4583 9.19855 10.3562 9.44797 10.1521 9.65214C9.94791 9.8563 9.69849 9.95839 9.40383 9.95839H1.59618ZM9.58334 1.53147L4.47693 6.63788C4.39615 6.71865 4.29464 6.75997 4.17237 6.76184C4.05009 6.7637 3.9467 6.72238 3.8622 6.63788C3.77769 6.55337 3.73544 6.45092 3.73544 6.33052C3.73544 6.21011 3.77769 6.10765 3.8622 6.02315L8.96861 0.916734H7.10416C6.98002 0.916734 6.87606 0.874856 6.79231 0.791099C6.70855 0.707342 6.66667 0.603391 6.66667 0.479248C6.66667 0.355105 6.70855 0.251155 6.79231 0.167398C6.87606 0.0836318 6.98002 0.041748 7.10416 0.041748L10.4583 0.041748V3.39591C10.4583 3.52006 10.4164 3.62401 10.3327 3.70777C10.2489 3.79152 10.145 3.8334 10.0208 3.8334C9.89668 3.8334 9.79273 3.79152 9.70898 3.70777C9.62522 3.62401 9.58334 3.52006 9.58334 3.39591V1.53147Z" fill="#888888"/>
</svg>
