<svg width="16" height="16" viewBox="0 0 16 16" fill="none" xmlns="http://www.w3.org/2000/svg">
<mask id="mask0_800_12169" style="mask-type:alpha" maskUnits="userSpaceOnUse" x="0" y="0" width="16" height="16">
<rect width="16" height="16" fill="#D9D9D9"/>
</mask>
<g mask="url(#mask0_800_12169)">
<path d="M12.2975 11.9166V10.3705C12.2975 10.2901 12.2684 10.2209 12.2103 10.1628C12.1522 10.1047 12.0829 10.0756 12.0026 10.0756C11.9222 10.0756 11.853 10.1047 11.7949 10.1628C11.7368 10.2209 11.7077 10.2901 11.7077 10.3705V11.9102C11.7077 11.9906 11.7222 12.0664 11.7513 12.1378C11.7804 12.2091 11.8261 12.276 11.8885 12.3384L12.9116 13.3615C12.9697 13.4196 13.0378 13.4497 13.1161 13.4519C13.1943 13.454 13.2645 13.4239 13.3269 13.3615C13.3851 13.3034 13.4141 13.2342 13.4141 13.1538C13.4141 13.0735 13.3851 13.0042 13.3269 12.9461L12.2975 11.9166ZM3.54107 13.6653C3.20859 13.6653 2.92462 13.5476 2.68915 13.3121C2.45368 13.0766 2.33594 12.7927 2.33594 12.4602V3.53717C2.33594 3.20469 2.45368 2.92071 2.68915 2.68525C2.92462 2.44977 3.20859 2.33203 3.54107 2.33203H12.4641C12.7966 2.33203 13.0806 2.44977 13.316 2.68525C13.5515 2.92071 13.6692 3.20469 13.6692 3.53717V7.7538C13.5051 7.68372 13.3408 7.62433 13.1763 7.57562C13.0118 7.52689 12.8428 7.488 12.6693 7.45895V3.53717C12.6693 3.48588 12.6479 3.43886 12.6052 3.39612C12.5624 3.35338 12.5154 3.33201 12.4641 3.33201H3.54107C3.48978 3.33201 3.44277 3.35338 3.40002 3.39612C3.35729 3.43886 3.33592 3.48588 3.33592 3.53717V12.4602C3.33592 12.5115 3.35729 12.5585 3.40002 12.6012C3.44277 12.644 3.48978 12.6653 3.54107 12.6653H7.44619C7.47097 12.85 7.50771 13.0245 7.55644 13.189C7.60515 13.3536 7.66455 13.5123 7.73464 13.6653H3.54107ZM3.33592 12.6653V3.33201V7.45895V7.40895V12.6653ZM4.83594 10.5884C4.83594 10.7303 4.8838 10.8491 4.97952 10.9448C5.07524 11.0405 5.19404 11.0884 5.33592 11.0884H7.51414C7.54319 10.9149 7.58635 10.7459 7.64362 10.5814C7.70089 10.4168 7.76328 10.2525 7.8308 10.0884H5.33592C5.19404 10.0884 5.07524 10.1363 4.97952 10.232C4.8838 10.3277 4.83594 10.4465 4.83594 10.5884ZM4.83594 7.99868C4.83594 8.14056 4.8838 8.25936 4.97952 8.35508C5.07524 8.4508 5.19404 8.49867 5.33592 8.49867H9.06287C9.35005 8.25509 9.65645 8.05103 9.98207 7.8865C10.3077 7.72198 10.6564 7.6051 11.0282 7.53586C10.9538 7.51792 10.8705 7.50724 10.7782 7.50382C10.6859 7.5004 10.6026 7.4987 10.5282 7.4987H5.33592C5.19404 7.4987 5.07524 7.54656 4.97952 7.64228C4.8838 7.738 4.83594 7.8568 4.83594 7.99868ZM4.83594 5.40895C4.83594 5.55083 4.8838 5.66963 4.97952 5.76535C5.07524 5.86107 5.19404 5.90893 5.33592 5.90893H10.6693C10.8111 5.90893 10.9299 5.86107 11.0257 5.76535C11.1214 5.66963 11.1692 5.55083 11.1692 5.40895C11.1692 5.26707 11.1214 5.14827 11.0257 5.05255C10.9299 4.95682 10.8111 4.90895 10.6693 4.90895H5.33592C5.19404 4.90895 5.07524 4.95682 4.97952 5.05255C4.8838 5.14827 4.83594 5.26707 4.83594 5.40895ZM12.0026 15.0371C11.1701 15.0371 10.462 14.7452 9.87824 14.1615C9.29448 13.5777 9.0026 12.8696 9.0026 12.0371C9.0026 11.2047 9.29448 10.4966 9.87824 9.9128C10.462 9.32904 11.1701 9.03716 12.0026 9.03716C12.8351 9.03716 13.5432 9.32904 14.1269 9.9128C14.7107 10.4966 15.0026 11.2047 15.0026 12.0371C15.0026 12.8696 14.7107 13.5777 14.1269 14.1615C13.5432 14.7452 12.8351 15.0371 12.0026 15.0371Z" fill="#888888"/>
</g>
</svg>
