<svg width="14" height="15" viewBox="0 0 14 15" fill="none" xmlns="http://www.w3.org/2000/svg">
<mask id="mask0_466_145" style="mask-type:alpha" maskUnits="userSpaceOnUse" x="0" y="0" width="14" height="15">
<rect y="0.575684" width="14" height="14" fill="#D9D9D9"/>
</mask>
<g mask="url(#mask0_466_145)">
<path d="M6.9998 11.5132C6.87578 11.5132 6.77189 11.4712 6.68814 11.3874C6.60438 11.3035 6.5625 11.1996 6.5625 11.0757V8.01315H3.49999C3.37603 8.01315 3.27213 7.97121 3.18828 7.88733C3.10443 7.80344 3.0625 7.69949 3.0625 7.57548C3.0625 7.45146 3.10443 7.34758 3.18828 7.26382C3.27213 7.18006 3.37603 7.13818 3.49999 7.13818H6.5625V4.07567C6.5625 3.95171 6.60444 3.8478 6.68832 3.76395C6.77222 3.68011 6.87617 3.63818 7.00017 3.63818C7.12419 3.63818 7.22808 3.68011 7.31184 3.76395C7.39559 3.8478 7.43747 3.95171 7.43747 4.07567V7.13818H10.5C10.6239 7.13818 10.7278 7.18013 10.8117 7.26401C10.8955 7.3479 10.9375 7.45185 10.9375 7.57586C10.9375 7.69987 10.8955 7.80376 10.8117 7.88752C10.7278 7.97128 10.6239 8.01315 10.5 8.01315H7.43747V11.0757C7.43747 11.1996 7.39553 11.3035 7.31165 11.3874C7.22775 11.4712 7.1238 11.5132 6.9998 11.5132Z" fill="#888888"/>
</g>
</svg>
