<svg width="14" height="14" viewBox="0 0 14 14" fill="none" xmlns="http://www.w3.org/2000/svg">
<mask id="mask0_787_39252" style="mask-type:alpha" maskUnits="userSpaceOnUse" x="0" y="0" width="14" height="14">
<rect width="14" height="14" fill="#D9D9D9"/>
</mask>
<g mask="url(#mask0_787_39252)">
<path d="M1.92951 11.8897C1.63859 11.8897 1.39011 11.7867 1.18408 11.5806C0.978026 11.3746 0.875 11.1261 0.875 10.8352V4.54199C0.875 4.41785 0.916883 4.3139 1.00065 4.23014C1.08441 4.14638 1.18836 4.1045 1.3125 4.1045C1.43664 4.1045 1.54059 4.14638 1.62435 4.23014C1.70812 4.3139 1.75 4.41785 1.75 4.54199V10.8352C1.75 10.8876 1.76683 10.9306 1.80049 10.9642C1.83415 10.9979 1.87715 11.0147 1.92951 11.0147H10.9487C11.0728 11.0147 11.1768 11.0566 11.2606 11.1403C11.3443 11.2241 11.3862 11.3281 11.3862 11.4522C11.3862 11.5763 11.3443 11.6803 11.2606 11.7641C11.1768 11.8478 11.0728 11.8897 10.9487 11.8897H1.92951ZM3.97114 9.84803C3.68023 9.84803 3.43175 9.74502 3.22572 9.53898C3.01968 9.33295 2.91667 9.08447 2.91667 8.79356V2.51152C2.91667 2.2206 3.01968 1.97213 3.22572 1.7661C3.43175 1.56005 3.68023 1.45703 3.97114 1.45703H6.56362C6.70423 1.45703 6.8394 1.48433 6.96916 1.53893C7.09891 1.59352 7.21165 1.66868 7.30737 1.7644L7.94229 2.39933H12.0705C12.3614 2.39933 12.6099 2.50235 12.8159 2.70838C13.022 2.91442 13.125 3.16289 13.125 3.45381V8.79356C13.125 9.08447 13.022 9.33295 12.8159 9.53898C12.6099 9.74502 12.3614 9.84803 12.0705 9.84803H3.97114ZM3.97114 8.97306H12.0705C12.1228 8.97306 12.1659 8.95623 12.1995 8.92258C12.2332 8.88892 12.25 8.84591 12.25 8.79356V3.45381C12.25 3.40146 12.2332 3.35845 12.1995 3.32479C12.1659 3.29113 12.1228 3.2743 12.0705 3.2743H7.58444L6.69264 2.3825C6.67395 2.36381 6.65338 2.35072 6.63094 2.34323C6.6085 2.33576 6.58606 2.33202 6.56362 2.33202H3.97114C3.91879 2.33202 3.87578 2.34885 3.84212 2.3825C3.80848 2.41616 3.79165 2.45917 3.79165 2.51152V8.79356C3.79165 8.84591 3.80848 8.88892 3.84212 8.92258C3.87578 8.95623 3.91879 8.97306 3.97114 8.97306Z" fill="#888888"/>
</g>
</svg>
