<svg width="12" height="12" viewBox="0 0 12 12" fill="none" xmlns="http://www.w3.org/2000/svg">
<mask id="mask0_791_9411" style="mask-type:alpha" maskUnits="userSpaceOnUse" x="0" y="0" width="12" height="12">
<rect width="12" height="12" fill="#D9D9D9"/>
</mask>
<g mask="url(#mask0_791_9411)">
<path d="M5.27889 9.10163L7.86639 6.00163H5.86639L6.22889 3.16413L3.91639 6.50163H5.65389L5.27889 9.10163ZM4.50389 7.50163H2.95389C2.75389 7.50163 2.60597 7.41205 2.51014 7.23288C2.41431 7.05371 2.42472 6.8808 2.54139 6.71413L6.27889 1.33913C6.36222 1.22246 6.47056 1.14121 6.60389 1.09538C6.73722 1.04955 6.87472 1.05163 7.01639 1.10163C7.15806 1.15163 7.26222 1.23913 7.32889 1.36413C7.39556 1.48913 7.42056 1.62246 7.40389 1.76413L7.00389 5.00163H8.94139C9.15806 5.00163 9.31014 5.09746 9.39764 5.28913C9.48514 5.4808 9.45806 5.65996 9.31639 5.82663L5.20389 10.7516C5.11222 10.86 4.99972 10.9308 4.86639 10.9641C4.73306 10.9975 4.60389 10.985 4.47889 10.9266C4.35389 10.8683 4.25597 10.7787 4.18514 10.6579C4.11431 10.537 4.08722 10.4058 4.10389 10.2641L4.50389 7.50163Z" fill="#888888"/>
</g>
</svg>
