<svg width="12" height="12" viewBox="0 0 12 12" fill="none" xmlns="http://www.w3.org/2000/svg">
<mask id="mask0_801_12211" style="mask-type:alpha" maskUnits="userSpaceOnUse" x="0" y="0" width="12" height="12">
<rect width="12" height="12" fill="#404040"/>
</mask>
<g mask="url(#mask0_801_12211)">
<path d="M6.5 5.8V4C6.5 3.85833 6.45208 3.73958 6.35625 3.64375C6.26042 3.54792 6.14167 3.5 6 3.5C5.85833 3.5 5.73958 3.54792 5.64375 3.64375C5.54792 3.73958 5.5 3.85833 5.5 4V5.9875C5.5 6.05417 5.5125 6.11875 5.5375 6.18125C5.5625 6.24375 5.6 6.3 5.65 6.35L7.3 8C7.39167 8.09167 7.50833 8.1375 7.65 8.1375C7.79167 8.1375 7.90833 8.09167 8 8C8.09167 7.90833 8.1375 7.79167 8.1375 7.65C8.1375 7.50833 8.09167 7.39167 8 7.3L6.5 5.8ZM6 11C5.30833 11 4.65833 10.8687 4.05 10.6062C3.44167 10.3437 2.9125 9.9875 2.4625 9.5375C2.0125 9.0875 1.65625 8.55833 1.39375 7.95C1.13125 7.34167 1 6.69167 1 6C1 5.30833 1.13125 4.65833 1.39375 4.05C1.65625 3.44167 2.0125 2.9125 2.4625 2.4625C2.9125 2.0125 3.44167 1.65625 4.05 1.39375C4.65833 1.13125 5.30833 1 6 1C6.69167 1 7.34167 1.13125 7.95 1.39375C8.55833 1.65625 9.0875 2.0125 9.5375 2.4625C9.9875 2.9125 10.3437 3.44167 10.6062 4.05C10.8687 4.65833 11 5.30833 11 6C11 6.69167 10.8687 7.34167 10.6062 7.95C10.3437 8.55833 9.9875 9.0875 9.5375 9.5375C9.0875 9.9875 8.55833 10.3437 7.95 10.6062C7.34167 10.8687 6.69167 11 6 11ZM6 10C7.10833 10 8.05208 9.61042 8.83125 8.83125C9.61042 8.05208 10 7.10833 10 6C10 4.89167 9.61042 3.94792 8.83125 3.16875C8.05208 2.38958 7.10833 2 6 2C4.89167 2 3.94792 2.38958 3.16875 3.16875C2.38958 3.94792 2 4.89167 2 6C2 7.10833 2.38958 8.05208 3.16875 8.83125C3.94792 9.61042 4.89167 10 6 10Z" fill="#888888"/>
</g>
</svg>
