<svg width="16" height="16" viewBox="0 0 16 16" fill="none" xmlns="http://www.w3.org/2000/svg">
<mask id="mask0_804_12256" style="mask-type:alpha" maskUnits="userSpaceOnUse" x="0" y="0" width="16" height="16">
<rect width="16" height="16" fill="#D9D9D9"/>
</mask>
<g mask="url(#mask0_804_12256)">
<path d="M12.4846 8.55931L3.17952 12.4824C2.97868 12.5627 2.78787 12.5454 2.6071 12.4304C2.42633 12.3155 2.33594 12.1486 2.33594 11.9298V4.0709C2.33594 3.85208 2.42633 3.6852 2.6071 3.57025C2.78787 3.45529 2.97868 3.43798 3.17952 3.51833L12.4846 7.44138C12.7324 7.55078 12.8564 7.7371 12.8564 8.00035C12.8564 8.26359 12.7324 8.44991 12.4846 8.55931ZM3.33592 11.3337L11.2359 8.00035L3.33592 4.66701V7.12856L6.95127 8.00035L3.33592 8.87213V11.3337Z" fill="#888888"/>
</g>
</svg>
