<svg width="16" height="16" viewBox="0 0 16 16" fill="none" xmlns="http://www.w3.org/2000/svg">
<mask id="mask0_787_39267" style="mask-type:alpha" maskUnits="userSpaceOnUse" x="0" y="0" width="16" height="16">
<rect width="16" height="16" fill="#D9D9D9"/>
</mask>
<g mask="url(#mask0_787_39267)">
<path d="M9.00339 14.3346H6.98419C6.83461 14.3346 6.70512 14.2844 6.59572 14.184C6.48632 14.0835 6.42051 13.9585 6.39829 13.809L6.2047 12.3038C6.02607 12.244 5.84295 12.1602 5.65534 12.0526C5.46773 11.9449 5.29999 11.8295 5.15212 11.7064L3.75982 12.2936C3.61709 12.3491 3.47542 12.3547 3.33482 12.3102C3.19422 12.2658 3.08375 12.1778 3.0034 12.0461L2.00087 10.3C1.92053 10.1684 1.89595 10.0278 1.92715 9.87822C1.95834 9.72864 2.03419 9.60813 2.1547 9.51669L3.35984 8.60514C3.34445 8.50599 3.33355 8.40642 3.32714 8.30642C3.32073 8.20642 3.31752 8.10685 3.31752 8.0077C3.31752 7.91282 3.32073 7.81645 3.32714 7.71859C3.33355 7.62072 3.34445 7.51367 3.35984 7.39744L2.1547 6.48589C2.03419 6.39444 1.95834 6.27393 1.92715 6.12435C1.89595 5.97479 1.92053 5.83419 2.00087 5.70257L3.0034 3.96927C3.07691 3.8308 3.18461 3.74106 3.32649 3.70004C3.46836 3.65901 3.61067 3.66628 3.7534 3.72184L5.1457 4.3026C5.30639 4.17525 5.47798 4.05879 5.66045 3.95324C5.84294 3.84767 6.02222 3.76284 6.19829 3.69874L6.39829 2.19362C6.42051 2.04404 6.48632 1.91904 6.59572 1.81862C6.70512 1.71819 6.83461 1.66797 6.98419 1.66797H9.00339C9.15295 1.66797 9.2835 1.71819 9.39504 1.81862C9.50658 1.91904 9.57346 2.04404 9.59569 2.19362L9.78927 3.70515C9.98927 3.7778 10.1703 3.86262 10.3322 3.95964C10.4942 4.05665 10.6577 4.17097 10.8226 4.3026L12.2406 3.72184C12.3833 3.66628 12.5239 3.65965 12.6624 3.70195C12.8008 3.74426 12.9102 3.83123 12.9906 3.96285L13.9931 5.70257C14.0734 5.83419 14.098 5.97479 14.0668 6.12435C14.0356 6.27393 13.9598 6.39444 13.8393 6.48589L12.6085 7.41665C12.6324 7.52435 12.6455 7.625 12.6476 7.71859C12.6497 7.81217 12.6508 7.90641 12.6508 8.00129C12.6508 8.09189 12.6487 8.18398 12.6444 8.27757C12.6401 8.37116 12.6247 8.47821 12.5982 8.59874L13.8162 9.51669C13.941 9.60386 14.0179 9.7233 14.047 9.875C14.076 10.0267 14.0504 10.1684 13.97 10.3L12.9675 12.0359C12.8871 12.1675 12.775 12.2562 12.631 12.3019C12.4869 12.3476 12.3436 12.3427 12.2008 12.2872L10.8226 11.7C10.6577 11.8316 10.4893 11.9481 10.3175 12.0493C10.1457 12.1506 9.96961 12.2333 9.78927 12.2974L9.59569 13.809C9.57346 13.9585 9.50658 14.0835 9.39504 14.184C9.2835 14.2844 9.15295 14.3346 9.00339 14.3346ZM8.00467 10.0013C8.55937 10.0013 9.03138 9.80661 9.42069 9.4173C9.81 9.02798 10.0047 8.55597 10.0047 8.00129C10.0047 7.4466 9.81 6.97459 9.42069 6.58527C9.03138 6.19596 8.55937 6.0013 8.00467 6.0013C7.44315 6.0013 6.96944 6.19596 6.58354 6.58527C6.19765 6.97459 6.0047 7.4466 6.0047 8.00129C6.0047 8.55597 6.19765 9.02798 6.58354 9.4173C6.96944 9.80661 7.44315 10.0013 8.00467 10.0013ZM8.00467 9.00129C7.72689 9.00129 7.49078 8.90406 7.29634 8.70962C7.10189 8.51517 7.00467 8.27906 7.00467 8.00129C7.00467 7.72351 7.10189 7.4874 7.29634 7.29295C7.49078 7.09851 7.72689 7.00129 8.00467 7.00129C8.28245 7.00129 8.51856 7.09851 8.713 7.29295C8.90745 7.4874 9.00467 7.72351 9.00467 8.00129C9.00467 8.27906 8.90745 8.51517 8.713 8.70962C8.51856 8.90406 8.28245 9.00129 8.00467 9.00129ZM7.33032 13.3346H8.64057L8.88032 11.5487C9.22049 11.4598 9.53138 11.3335 9.813 11.1699C10.0946 11.0062 10.3662 10.7957 10.6278 10.5385L12.2842 11.2346L12.9406 10.1013L11.4944 9.01154C11.55 8.83889 11.5878 8.66966 11.6079 8.50385C11.628 8.33804 11.638 8.17052 11.638 8.00129C11.638 7.82779 11.628 7.66026 11.6079 7.49872C11.5878 7.33719 11.55 7.17223 11.4944 7.00385L12.9534 5.90129L12.297 4.76795L10.6213 5.47437C10.3983 5.2359 10.131 5.02522 9.81942 4.84232C9.50788 4.65941 9.1927 4.52992 8.8739 4.45385L8.66365 2.66795H7.34057L7.12007 4.44744C6.77989 4.52778 6.46579 4.65086 6.17775 4.81667C5.88972 4.98248 5.61494 5.19616 5.3534 5.4577L3.69699 4.76795L3.04057 5.90129L4.48032 6.97437C4.42476 7.13248 4.38588 7.29701 4.36365 7.46795C4.34143 7.6389 4.33032 7.81881 4.33032 8.0077C4.33032 8.1812 4.34143 8.35129 4.36365 8.51795C4.38588 8.68462 4.42263 8.84915 4.4739 9.01154L3.04057 10.1013L3.69699 11.2346L5.34699 10.5346C5.59998 10.7945 5.87049 11.0073 6.15852 11.1731C6.44655 11.3389 6.76493 11.4662 7.11365 11.5551L7.33032 13.3346Z" fill="white"/>
</g>
</svg>
