<svg width="165" height="32" viewBox="0 0 165 32" fill="none" xmlns="http://www.w3.org/2000/svg">
<path d="M30.7494 3.54347C30.9079 2.94931 30.154 2.5496 29.7511 3.01413L18.1634 16.3738C17.817 16.7731 18.142 17.3898 18.6672 17.3298L27.3368 16.3392L30.7494 3.54347Z" fill="url(#paint0_linear_845_13361)"/>
<path d="M19.8642 29.1345C19.7058 29.7287 20.4596 30.1284 20.8625 29.6639L32.4503 16.3043C32.7966 15.9049 32.4716 15.2882 31.9464 15.3483L23.2768 16.3388L19.8642 29.1345Z" fill="url(#paint1_linear_845_13361)"/>
<path d="M15.8466 24.7588C15.8466 25.1809 15.4099 25.4616 15.0259 25.2862L0.338989 18.5799C0.132483 18.4856 0 18.2795 0 18.0524V15.5315C0 15.3049 0.132014 15.0991 0.337969 15.0046L15.0249 8.26384C15.409 8.08756 15.8466 8.3682 15.8466 8.79082V11.1837C15.8466 11.4127 15.7118 11.6203 15.5025 11.7134L3.2653 17.1592C2.98636 17.2833 2.67203 17.0792 2.67203 16.7738C2.67203 16.4685 2.98636 16.2643 3.2653 16.3885L15.5025 21.8342C15.7118 21.9274 15.8466 22.1349 15.8466 22.364V24.7588Z" fill="white"/>
<path d="M35.6215 25.2851C35.2375 25.4609 34.8004 25.1802 34.8004 24.7579V22.3635C34.8004 22.1347 34.935 21.9273 35.1439 21.8341L47.3449 16.3891C47.6235 16.2647 47.9379 16.4687 47.9379 16.7738C47.9379 17.079 47.6235 17.2829 47.3449 17.1586L35.1439 11.7136C34.935 11.6204 34.8004 11.4129 34.8004 11.1841V8.79171C34.8004 8.36886 35.2384 8.08822 35.6226 8.26494L50.2724 15.0044C50.4781 15.099 50.6099 15.3048 50.6099 15.5312V18.0528C50.6099 18.2796 50.4776 18.4856 50.2714 18.58L35.6215 25.2851Z" fill="white"/>
<path d="M63.927 25.2814C62.8325 25.2814 61.8163 25.0782 60.8781 24.6717C59.94 24.2495 59.1427 23.6788 58.486 22.9596C57.8293 22.2404 57.3446 21.4117 57.0319 20.4736L59.3772 19.4886C59.7993 20.5675 60.4169 21.3961 61.2299 21.9746C62.043 22.5531 62.9811 22.8424 64.0443 22.8424C64.6697 22.8424 65.2169 22.7485 65.6859 22.5609C66.155 22.3577 66.5146 22.0762 66.7648 21.7166C67.0306 21.357 67.1635 20.9427 67.1635 20.4736C67.1635 19.8326 66.9837 19.3245 66.624 18.9492C66.2644 18.574 65.7328 18.2769 65.0293 18.058L61.7459 17.0261C60.4325 16.6196 59.4319 16.002 58.744 15.1733C58.056 14.329 57.712 13.344 57.712 12.2183C57.712 11.2333 57.9544 10.3734 58.4391 9.63852C58.9238 8.88803 59.5883 8.30172 60.4325 7.87957C61.2925 7.45742 62.2697 7.24635 63.3641 7.24635C64.4117 7.24635 65.3654 7.43397 66.2254 7.80921C67.0853 8.16882 67.8201 8.66914 68.4299 9.31018C69.0553 9.95122 69.5087 10.6939 69.7902 11.5382L67.4918 12.5466C67.1478 11.6242 66.6084 10.9128 65.8736 10.4125C65.1543 9.91213 64.3179 9.66197 63.3641 9.66197C62.7856 9.66197 62.2775 9.7636 61.8397 9.96686C61.4019 10.1545 61.058 10.4359 60.8078 10.8112C60.5733 11.1708 60.456 11.5929 60.456 12.0776C60.456 12.6405 60.6358 13.1408 60.9954 13.5786C61.355 14.0163 61.9022 14.3447 62.6371 14.5636L65.6859 15.5251C67.0775 15.9473 68.125 16.557 68.8286 17.3544C69.5322 18.1362 69.884 19.1134 69.884 20.286C69.884 21.2554 69.626 22.1153 69.11 22.8658C68.6097 23.6163 67.9139 24.2104 67.0227 24.6482C66.1315 25.0704 65.0996 25.2814 63.927 25.2814ZM77.2589 25.2814C76.3052 25.2814 75.4687 25.0704 74.7495 24.6482C74.0303 24.2104 73.4674 23.6085 73.0609 22.8424C72.67 22.0606 72.4746 21.1616 72.4746 20.1453V12.3121H75.1247V19.9108C75.1247 20.4893 75.242 20.9974 75.4765 21.4352C75.711 21.873 76.0394 22.217 76.4615 22.4671C76.8837 22.7016 77.3683 22.8189 77.9156 22.8189C78.4784 22.8189 78.9709 22.6938 79.3931 22.4437C79.8152 22.1935 80.1436 21.8417 80.3781 21.3883C80.6283 20.9349 80.7533 20.4033 80.7533 19.7935V12.3121H83.38V25H80.8706V22.514L81.152 22.8424C80.855 23.6241 80.3625 24.2261 79.6745 24.6482C78.9866 25.0704 78.1814 25.2814 77.2589 25.2814ZM86.4743 29.6905V12.3121H89.0072V14.9388L88.7023 14.329C89.1714 13.6098 89.7968 13.047 90.5785 12.6405C91.3603 12.2339 92.2515 12.0307 93.2521 12.0307C94.456 12.0307 95.5349 12.3199 96.4886 12.8984C97.458 13.4769 98.2163 14.2665 98.7635 15.2672C99.3264 16.2678 99.6078 17.3935 99.6078 18.6443C99.6078 19.8951 99.3264 21.0209 98.7635 22.0215C98.2163 23.0222 97.4658 23.8196 96.5121 24.4137C95.5583 24.9922 94.4717 25.2814 93.2521 25.2814C92.2671 25.2814 91.3681 25.0782 90.5551 24.6717C89.7577 24.2652 89.1401 23.6788 88.7023 22.9127L89.1245 22.4202V29.6905H86.4743ZM92.9942 22.8189C93.7446 22.8189 94.4091 22.6391 94.9876 22.2795C95.5661 21.9199 96.0196 21.4274 96.3479 20.802C96.6919 20.1609 96.8638 19.4417 96.8638 18.6443C96.8638 17.8469 96.6919 17.1355 96.3479 16.5101C96.0196 15.8847 95.5661 15.3922 94.9876 15.0326C94.4091 14.673 93.7446 14.4932 92.9942 14.4932C92.2593 14.4932 91.5948 14.673 91.0007 15.0326C90.4222 15.3922 89.961 15.8847 89.617 16.5101C89.2886 17.1355 89.1245 17.8469 89.1245 18.6443C89.1245 19.4417 89.2886 20.1609 89.617 20.802C89.961 21.4274 90.4222 21.9199 91.0007 22.2795C91.5948 22.6391 92.2593 22.8189 92.9942 22.8189ZM108.143 25.2814C106.876 25.2814 105.751 24.9922 104.766 24.4137C103.796 23.8196 103.038 23.0222 102.491 22.0215C101.943 21.0052 101.67 19.8717 101.67 18.6209C101.67 17.3388 101.943 16.2053 102.491 15.2202C103.054 14.2352 103.804 13.4613 104.742 12.8984C105.68 12.3199 106.743 12.0307 107.932 12.0307C108.885 12.0307 109.738 12.1949 110.488 12.5232C111.238 12.8515 111.872 13.3049 112.388 13.8834C112.904 14.4463 113.294 15.0952 113.56 15.83C113.842 16.5649 113.982 17.3466 113.982 18.1753C113.982 18.3785 113.975 18.5896 113.959 18.8085C113.943 19.0274 113.912 19.2306 113.865 19.4183H103.757V17.3075H112.364L111.098 18.2691C111.254 17.503 111.199 16.8228 110.934 16.2287C110.683 15.6189 110.293 15.1421 109.761 14.7981C109.245 14.4385 108.635 14.2587 107.932 14.2587C107.228 14.2587 106.603 14.4385 106.055 14.7981C105.508 15.1421 105.086 15.6424 104.789 16.2991C104.492 16.9401 104.375 17.7219 104.437 18.6443C104.359 19.5043 104.476 20.2547 104.789 20.8958C105.117 21.5368 105.571 22.0371 106.149 22.3968C106.743 22.7564 107.416 22.9362 108.166 22.9362C108.932 22.9362 109.581 22.7642 110.113 22.4202C110.66 22.0762 111.09 21.6306 111.403 21.0834L113.56 22.1388C113.31 22.7329 112.919 23.2723 112.388 23.757C111.872 24.2261 111.246 24.6013 110.511 24.8827C109.792 25.1485 109.003 25.2814 108.143 25.2814ZM116.569 25V12.3121H119.102V14.8685L118.867 14.4932C119.149 13.6646 119.602 13.0704 120.227 12.7108C120.853 12.3356 121.603 12.148 122.479 12.148H123.253V14.5636H122.151C121.275 14.5636 120.564 14.8372 120.016 15.3844C119.485 15.916 119.219 16.6821 119.219 17.6828V25H116.569Z" fill="white"/>
<path d="M123.776 25L129.921 7.52778H133.345L139.489 25H136.534L135.197 21.0834H128.091L126.731 25H123.776ZM128.889 18.6209H134.353L131.257 9.47435H132.031L128.889 18.6209ZM149.037 25.2814C147.802 25.2814 146.653 25.0547 145.589 24.6013C144.542 24.1479 143.619 23.5225 142.822 22.7251C142.04 21.9121 141.431 20.9583 140.993 19.8639C140.555 18.7694 140.336 17.5655 140.336 16.2522C140.336 14.9545 140.547 13.7584 140.969 12.6639C141.407 11.5538 142.017 10.6001 142.799 9.80269C143.58 8.98966 144.495 8.36426 145.543 7.92648C146.59 7.47306 147.739 7.24635 148.99 7.24635C150.225 7.24635 151.328 7.45742 152.297 7.87957C153.282 8.30172 154.111 8.85676 154.783 9.54471C155.455 10.217 155.94 10.9519 156.237 11.7493L153.774 12.9453C153.415 11.9916 152.821 11.2255 151.992 10.647C151.163 10.0528 150.163 9.75578 148.99 9.75578C147.833 9.75578 146.809 10.0294 145.918 10.5766C145.027 11.1239 144.331 11.8822 143.831 12.8515C143.346 13.8209 143.103 14.9545 143.103 16.2522C143.103 17.5499 143.354 18.6912 143.854 19.6762C144.37 20.6456 145.074 21.4039 145.965 21.9512C146.856 22.4827 147.88 22.7485 149.037 22.7485C150.006 22.7485 150.89 22.5531 151.687 22.1622C152.5 21.7557 153.149 21.1929 153.634 20.4736C154.118 19.7388 154.361 18.8867 154.361 17.9173V16.7212L155.604 17.8469H148.99V15.5017H157.105V17.1434C157.105 18.4254 156.886 19.5746 156.448 20.5909C156.01 21.5915 155.416 22.4437 154.666 23.1472C153.915 23.8508 153.055 24.3824 152.086 24.742C151.116 25.1016 150.1 25.2814 149.037 25.2814ZM159.93 25V7.52778H162.698V25H159.93Z" fill="url(#paint2_linear_845_13361)"/>
<defs>
<linearGradient id="paint0_linear_845_13361" x1="35.7444" y1="32.0672" x2="20.6705" y2="7.71412" gradientUnits="userSpaceOnUse">
<stop stop-color="#B343CB"/>
<stop offset="1" stop-color="#7095EB"/>
</linearGradient>
<linearGradient id="paint1_linear_845_13361" x1="35.7444" y1="32.0672" x2="20.6705" y2="7.71412" gradientUnits="userSpaceOnUse">
<stop stop-color="#B343CB"/>
<stop offset="1" stop-color="#7095EB"/>
</linearGradient>
<linearGradient id="paint2_linear_845_13361" x1="162.043" y1="6" x2="133.012" y2="27.8847" gradientUnits="userSpaceOnUse">
<stop stop-color="#7689E7"/>
<stop offset="1" stop-color="#9464DB"/>
</linearGradient>
</defs>
</svg>
