<svg width="12" height="13" viewBox="0 0 12 13" fill="none" xmlns="http://www.w3.org/2000/svg">
<mask id="mask0_415_24533" style="mask-type:alpha" maskUnits="userSpaceOnUse" x="0" y="0" width="12" height="13">
<rect y="0.5" width="12" height="12" fill="#D9D9D9"/>
</mask>
<g mask="url(#mask0_415_24533)">
<path d="M5.99779 10.7498C4.78433 10.7498 3.77264 10.5785 2.9627 10.2359C2.15277 9.89326 1.7478 9.46522 1.7478 8.95176V3.99984C1.7478 3.51715 2.16254 3.10481 2.99203 2.76282C3.82152 2.42084 4.82344 2.24985 5.99779 2.24985C7.17214 2.24985 8.17406 2.42084 9.00355 2.76282C9.83304 3.10481 10.2478 3.51715 10.2478 3.99984V8.95176C10.2478 9.46522 9.84281 9.89326 9.03288 10.2359C8.22295 10.5785 7.21125 10.7498 5.99779 10.7498ZM5.99779 4.97867C6.72663 4.97867 7.46044 4.87563 8.19923 4.66955C8.93801 4.46346 9.36606 4.24118 9.48337 4.00272C9.36927 3.75785 8.94571 3.52948 8.21269 3.31762C7.47968 3.10576 6.74138 2.99983 5.99779 2.99983C5.25548 2.99983 4.51974 3.10288 3.79058 3.30897C3.06141 3.51506 2.63209 3.73989 2.5026 3.98348C2.62889 4.23348 3.05501 4.46185 3.78097 4.66859C4.50692 4.87531 5.24587 4.97867 5.99779 4.97867ZM5.99779 7.4806C6.34458 7.4806 6.68208 7.46393 7.01029 7.4306C7.3385 7.39726 7.65212 7.34855 7.95115 7.28445C8.25019 7.22035 8.53017 7.14086 8.79107 7.04599C9.05196 6.95111 9.28753 6.84374 9.49779 6.72387V4.94981C9.28753 5.06968 9.05196 5.17706 8.79107 5.27192C8.53017 5.3668 8.25019 5.44629 7.95115 5.51039C7.65212 5.57449 7.3385 5.62321 7.01029 5.65655C6.68208 5.68988 6.34458 5.70655 5.99779 5.70655C5.64458 5.70655 5.30051 5.68908 4.96558 5.65413C4.63064 5.6192 4.31446 5.56968 4.01702 5.50558C3.71958 5.44148 3.4425 5.36279 3.18577 5.26952C2.92904 5.17626 2.69972 5.06968 2.49779 4.94981V6.72387C2.69972 6.84374 2.92904 6.95031 3.18577 7.04359C3.4425 7.13685 3.71958 7.21554 4.01702 7.27963C4.31446 7.34374 4.63064 7.39326 4.96558 7.4282C5.30051 7.46313 5.64458 7.4806 5.99779 7.4806ZM5.99779 9.99984C6.40357 9.99984 6.80197 9.97307 7.19299 9.91955C7.58402 9.86602 7.93978 9.79295 8.26029 9.70032C8.5808 9.60769 8.85115 9.50016 9.07134 9.37772C9.29153 9.25529 9.43368 9.12677 9.49779 8.99215V7.47385C9.28753 7.59372 9.05196 7.7011 8.79107 7.79597C8.53017 7.89084 8.25019 7.97033 7.95115 8.03444C7.65212 8.09854 7.3385 8.14725 7.01029 8.18059C6.68208 8.21392 6.34458 8.23059 5.99779 8.23059C5.64458 8.23059 5.30051 8.21312 4.96558 8.17819C4.63064 8.14324 4.31446 8.09372 4.01702 8.02962C3.71958 7.96552 3.4425 7.88684 3.18577 7.79356C2.92904 7.70029 2.69972 7.59372 2.49779 7.47385V8.99984C2.5619 9.13766 2.70277 9.26571 2.92039 9.38397C3.13802 9.50224 3.40709 9.60769 3.7276 9.70032C4.04811 9.79295 4.40516 9.86602 4.79875 9.91955C5.19234 9.97307 5.59202 9.99984 5.99779 9.99984Z" fill="#888888"/>
</g>
</svg>
