<svg width="14" height="14" viewBox="0 0 14 14" fill="none" xmlns="http://www.w3.org/2000/svg">
<mask id="mask0_918_25410" style="mask-type:alpha" maskUnits="userSpaceOnUse" x="0" y="0" width="14" height="14">
<rect width="14" height="14" fill="#D9D9D9"/>
</mask>
<g mask="url(#mask0_918_25410)">
<path d="M3.63278 7.87497C3.39217 7.87497 3.18618 7.78929 3.01483 7.61794C2.84348 7.44659 2.75781 7.2406 2.75781 6.99999C2.75781 6.75937 2.84348 6.55339 3.01483 6.38203C3.18618 6.21068 3.39217 6.125 3.63278 6.125C3.87341 6.125 4.07939 6.21068 4.25074 6.38203C4.42209 6.55339 4.50777 6.75937 4.50777 6.99999C4.50777 7.2406 4.42209 7.44659 4.25074 7.61794C4.07939 7.78929 3.87341 7.87497 3.63278 7.87497ZM6.99816 7.87497C6.75755 7.87497 6.55156 7.78929 6.38021 7.61794C6.20886 7.44659 6.12318 7.2406 6.12318 6.99999C6.12318 6.75937 6.20886 6.55339 6.38021 6.38203C6.55156 6.21068 6.75755 6.125 6.99816 6.125C7.23878 6.125 7.44476 6.21068 7.61612 6.38203C7.78747 6.55339 7.87315 6.75937 7.87315 6.99999C7.87315 7.2406 7.78747 7.44659 7.61612 7.61794C7.44476 7.78929 7.23878 7.87497 6.99816 7.87497ZM10.3635 7.87497C10.1229 7.87497 9.91694 7.78929 9.74559 7.61794C9.57424 7.44659 9.48856 7.2406 9.48856 6.99999C9.48856 6.75937 9.57424 6.55339 9.74559 6.38203C9.91694 6.21068 10.1229 6.125 10.3635 6.125C10.6042 6.125 10.8101 6.21068 10.9815 6.38203C11.1528 6.55339 11.2385 6.75937 11.2385 6.99999C11.2385 7.2406 11.1528 7.44659 10.9815 7.61794C10.8101 7.78929 10.6042 7.87497 10.3635 7.87497Z" fill="#888888"/>
</g>
</svg>
