<svg width="2" height="10" viewBox="0 0 2 10" fill="none" xmlns="http://www.w3.org/2000/svg">
  <path d="M0.999983 9.84604C0.724994 9.84604 0.489583 9.74813 0.29375 9.55231C0.0979167 9.35648 0 9.12107 0 8.84608C0 8.57108 0.0979167 8.33566 0.29375 8.13984C0.489583 7.94401 0.724994 7.84609 0.999983 7.84609C1.27497 7.84609 1.51038 7.94401 1.70622 8.13984C1.90205 8.33566 1.99997 8.57108 1.99997 8.84608C1.99997 9.12107 1.90205 9.35648 1.70622 9.55231C1.51038 9.74813 1.27497 9.84604 0.999983 9.84604ZM0.999983 5.99991C0.724994 5.99991 0.489583 5.90199 0.29375 5.70616C0.0979167 5.51033 0 5.27491 0 4.99993C0 4.72494 0.0979167 4.48953 0.29375 4.29369C0.489583 4.09786 0.724994 3.99994 0.999983 3.99994C1.27497 3.99994 1.51038 4.09786 1.70622 4.29369C1.90205 4.48953 1.99997 4.72494 1.99997 4.99993C1.99997 5.27491 1.90205 5.51033 1.70622 5.70616C1.51038 5.90199 1.27497 5.99991 0.999983 5.99991ZM0.999983 2.15376C0.724994 2.15376 0.489583 2.05584 0.29375 1.86001C0.0979167 1.66419 0 1.42878 0 1.15378C0 0.878786 0.0979167 0.643375 0.29375 0.447542C0.489583 0.25172 0.724994 0.153809 0.999983 0.153809C1.27497 0.153809 1.51038 0.25172 1.70622 0.447542C1.90205 0.643375 1.99997 0.878786 1.99997 1.15378C1.99997 1.42878 1.90205 1.66419 1.70622 1.86001C1.51038 2.05584 1.27497 2.15376 0.999983 2.15376Z" fill="#777777"/>
</svg>
