<svg width="16" height="16" viewBox="0 0 16 16" fill="none" xmlns="http://www.w3.org/2000/svg">
<mask id="mask0_211_5893" style="mask-type:alpha" maskUnits="userSpaceOnUse" x="0" y="0" width="16" height="16">
<rect width="16" height="16" fill="#D9D9D9"/>
</mask>
<g mask="url(#mask0_211_5893)">
<path d="M7.99998 12.8461C7.72499 12.8461 7.48958 12.7482 7.29375 12.5524C7.09792 12.3565 7 12.1211 7 11.8461C7 11.5711 7.09792 11.3357 7.29375 11.1399C7.48958 10.9441 7.72499 10.8462 7.99998 10.8462C8.27497 10.8462 8.51038 10.9441 8.70622 11.1399C8.90205 11.3357 8.99997 11.5711 8.99997 11.8461C8.99997 12.1211 8.90205 12.3565 8.70622 12.5524C8.51038 12.7482 8.27497 12.8461 7.99998 12.8461ZM7.99998 8.99997C7.72499 8.99997 7.48958 8.90205 7.29375 8.70622C7.09792 8.51039 7 8.27498 7 7.99999C7 7.725 7.09792 7.48959 7.29375 7.29375C7.48958 7.09792 7.72499 7 7.99998 7C8.27497 7 8.51038 7.09792 8.70622 7.29375C8.90205 7.48959 8.99997 7.725 8.99997 7.99999C8.99997 8.27498 8.90205 8.51039 8.70622 8.70622C8.51038 8.90205 8.27497 8.99997 7.99998 8.99997ZM7.99998 5.15382C7.72499 5.15382 7.48958 5.0559 7.29375 4.86007C7.09792 4.66425 7 4.42884 7 4.15384C7 3.87885 7.09792 3.64344 7.29375 3.4476C7.48958 3.25178 7.72499 3.15387 7.99998 3.15387C8.27497 3.15387 8.51038 3.25178 8.70622 3.4476C8.90205 3.64344 8.99997 3.87885 8.99997 4.15384C8.99997 4.42884 8.90205 4.66425 8.70622 4.86007C8.51038 5.0559 8.27497 5.15382 7.99998 5.15382Z" fill="#888888"/>
</g>
</svg>
