<svg width="14" height="14" viewBox="0 0 14 14" fill="none" xmlns="http://www.w3.org/2000/svg">
  <mask id="mask0_1398_14518" style="mask-type:alpha" maskUnits="userSpaceOnUse" x="0" y="0" width="14" height="14">
    <rect width="14" height="14" fill="#D9D9D9"/>
  </mask>
  <g mask="url(#mask0_1398_14518)">
    <path d="M5.57083 10.0801C5.50053 10.0801 5.4351 10.0689 5.37453 10.0465C5.31395 10.024 5.25636 9.98553 5.20177 9.93093L2.76635 7.49552C2.68185 7.41102 2.64109 7.30707 2.64407 7.18368C2.64707 7.06028 2.69082 6.95633 2.77532 6.87182C2.85983 6.78731 2.96229 6.74505 3.0827 6.74505C3.2031 6.74505 3.30555 6.78731 3.39006 6.87182L5.57083 9.05259L10.6099 4.01349C10.6944 3.92898 10.7984 3.88672 10.9218 3.88672C11.0452 3.88672 11.1491 3.92898 11.2336 4.01349C11.3181 4.098 11.3604 4.20195 11.3604 4.32534C11.3604 4.44874 11.3181 4.55269 11.2336 4.63719L5.93989 9.93093C5.8853 9.98553 5.82772 10.024 5.76714 10.0465C5.70657 10.0689 5.64113 10.0801 5.57083 10.0801Z" fill="#888888"/>
  </g>
</svg>
