<svg width="16" height="16" viewBox="0 0 16 16" fill="none" xmlns="http://www.w3.org/2000/svg">
<mask id="mask0_787_39279" style="mask-type:alpha" maskUnits="userSpaceOnUse" x="0" y="0" width="16" height="16">
<rect width="16" height="16" fill="#D9D9D9"/>
</mask>
<g mask="url(#mask0_787_39279)">
<path d="M1.66406 11.7939V6.87087C1.66406 6.53946 1.78207 6.25576 2.01808 6.01976C2.25408 5.78375 2.53778 5.66574 2.8692 5.66574H4.83073V4.39652C4.83073 4.06511 4.94873 3.78141 5.18473 3.54541C5.42073 3.30941 5.70444 3.19141 6.03585 3.19141H9.95891C10.2903 3.19141 10.574 3.30941 10.81 3.54541C11.046 3.78141 11.164 4.06511 11.164 4.39652V5.66574H13.1256C13.457 5.66574 13.7407 5.78375 13.9767 6.01976C14.2127 6.25576 14.3307 6.53946 14.3307 6.87087V11.7939C14.3307 12.1253 14.2127 12.409 13.9767 12.645C13.7407 12.881 13.457 12.999 13.1256 12.999H2.8692C2.53778 12.999 2.25408 12.881 2.01808 12.645C1.78207 12.409 1.66406 12.1253 1.66406 11.7939ZM2.8692 11.9991H13.1256C13.1854 11.9991 13.2345 11.9798 13.273 11.9414C13.3115 11.9029 13.3307 11.8537 13.3307 11.7939V9.83237H11.8307V9.99906C11.8307 10.1407 11.7828 10.2595 11.6869 10.3553C11.591 10.4511 11.4722 10.499 11.3305 10.499C11.1888 10.499 11.07 10.4511 10.9743 10.3553C10.8786 10.2595 10.8307 10.1407 10.8307 9.99906V9.83237H5.16403V9.99906C5.16403 10.1407 5.1161 10.2595 5.02023 10.3553C4.92435 10.4511 4.80555 10.499 4.66383 10.499C4.5221 10.499 4.40337 10.4511 4.30765 10.3553C4.21192 10.2595 4.16406 10.1407 4.16406 9.99906V9.83237H2.66405V11.7939C2.66405 11.8537 2.68328 11.9029 2.72175 11.9414C2.76021 11.9798 2.80936 11.9991 2.8692 11.9991ZM2.66405 6.87087V8.83241H4.16406V8.66572C4.16406 8.52406 4.212 8.40531 4.30786 8.30947C4.40374 8.21365 4.52254 8.16574 4.66426 8.16574C4.806 8.16574 4.92472 8.21365 5.02045 8.30947C5.11617 8.40531 5.16403 8.52406 5.16403 8.66572V8.83241H10.8307V8.66572C10.8307 8.52406 10.8787 8.40531 10.9745 8.30947C11.0704 8.21365 11.1892 8.16574 11.3309 8.16574C11.4727 8.16574 11.5914 8.21365 11.6871 8.30947C11.7828 8.40531 11.8307 8.52406 11.8307 8.66572V8.83241H13.3307V6.87087C13.3307 6.81104 13.3115 6.76189 13.273 6.72342C13.2345 6.68496 13.1854 6.66572 13.1256 6.66572H2.8692C2.80936 6.66572 2.76021 6.68496 2.72175 6.72342C2.68328 6.76189 2.66405 6.81104 2.66405 6.87087ZM5.8307 5.66574H10.1641V4.39652C10.1641 4.33669 10.1448 4.28754 10.1064 4.24907C10.0679 4.21061 10.0187 4.19137 9.95891 4.19137H6.03585C5.97601 4.19137 5.92686 4.21061 5.8884 4.24907C5.84993 4.28754 5.8307 4.33669 5.8307 4.39652V5.66574Z" fill="#888888"/>
</g>
</svg>
