<svg width="28" height="46" viewBox="0 0 28 46" fill="none" xmlns="http://www.w3.org/2000/svg">
<path d="M18.3129 13H7.125C6.79377 13.0009 6.47637 13.1329 6.24216 13.3672C6.00794 13.6014 5.87594 13.9188 5.875 14.25V31.75C5.87594 32.0812 6.00794 32.3986 6.24216 32.6328C6.47637 32.8671 6.79377 32.9991 7.125 33H20.875C21.2062 32.9991 21.5236 32.8671 21.7578 32.6328C21.9921 32.3986 22.1241 32.0812 22.125 31.75V16.4686L18.3129 13ZM18.6879 15.0314L19.8757 16.125H18.6879V15.0314ZM7.125 31.75V14.25H17.4379V17.375H20.8757V31.75H7.125Z" fill="#C2C2C2"/>
<path d="M8.375 22.3555H17.715V23.6055H8.375V22.3555Z" fill="#829EC2"/>
<path d="M8.375 29.0273H15.3479V30.2773H8.375V29.0273Z" fill="#829EC2"/>
<path d="M8.375 25.6875H19.625V26.9375H8.375V25.6875Z" fill="#829EC2"/>
<path d="M8.375 18.8789H19.625V20.1289H8.375V18.8789Z" fill="#829EC2"/>
</svg>
