<svg width="11" height="10" viewBox="0 0 11 10" fill="none" xmlns="http://www.w3.org/2000/svg">
<path d="M2.30069 9.49845C2.15881 9.49845 2.04001 9.45059 1.94429 9.35487C1.84857 9.25915 1.80071 9.14035 1.80071 8.99847C1.80071 8.85659 1.84857 8.73779 1.94429 8.64207C2.04001 8.54635 2.15881 8.49849 2.30069 8.49849H6.36736C7.11437 8.49849 7.76223 8.2613 8.31096 7.78694C8.85968 7.31258 9.13404 6.71643 9.13404 5.99847C9.13404 5.28052 8.85968 4.68436 8.31096 4.21001C7.76223 3.73564 7.11437 3.49846 6.36736 3.49846H1.76989L3.31862 5.0472C3.41093 5.1395 3.45816 5.25553 3.46029 5.39527C3.46242 5.53501 3.4152 5.65316 3.31862 5.74974C3.22204 5.84633 3.10496 5.89462 2.96736 5.89462C2.82976 5.89462 2.71266 5.84633 2.61607 5.74974L0.286589 3.42026C0.2242 3.35787 0.180183 3.29206 0.154539 3.22282C0.128905 3.1536 0.116089 3.07882 0.116089 2.99847C0.116089 2.91813 0.128905 2.84334 0.154539 2.77412C0.180183 2.70489 0.2242 2.63908 0.286589 2.57669L2.61607 0.247205C2.70838 0.154894 2.82441 0.107672 2.96414 0.105539C3.10388 0.103394 3.22204 0.150616 3.31862 0.247205C3.4152 0.343783 3.46349 0.460872 3.46349 0.598472C3.46349 0.736072 3.4152 0.85316 3.31862 0.949738L1.76989 2.49849H6.36736C7.39385 2.49849 8.27824 2.83246 9.02056 3.50041C9.76286 4.16835 10.134 5.00104 10.134 5.99847C10.134 6.9959 9.76286 7.82859 9.02056 8.49654C8.27824 9.16448 7.39385 9.49845 6.36736 9.49845H2.30069Z" fill="#888888"/>
</svg>
