<svg width="12" height="12" viewBox="0 0 12 12" fill="none" xmlns="http://www.w3.org/2000/svg">
<mask id="mask0_801_12217" style="mask-type:alpha" maskUnits="userSpaceOnUse" x="0" y="0" width="12" height="12">
<rect width="12" height="12" fill="#D9D9D9"/>
</mask>
<g mask="url(#mask0_801_12217)">
<path d="M6 10.5C5.375 10.5 4.78958 10.3813 4.24375 10.1438C3.69792 9.90625 3.22292 9.58542 2.81875 9.18125C2.41458 8.77708 2.09375 8.30208 1.85625 7.75625C1.61875 7.21042 1.5 6.625 1.5 6C1.5 5.375 1.61875 4.78958 1.85625 4.24375C2.09375 3.69792 2.41458 3.22292 2.81875 2.81875C3.22292 2.41458 3.69792 2.09375 4.24375 1.85625C4.78958 1.61875 5.375 1.5 6 1.5C6.68333 1.5 7.33125 1.64583 7.94375 1.9375C8.55625 2.22917 9.075 2.64167 9.5 3.175V2.5C9.5 2.35833 9.54792 2.23958 9.64375 2.14375C9.73958 2.04792 9.85833 2 10 2C10.1417 2 10.2604 2.04792 10.3562 2.14375C10.4521 2.23958 10.5 2.35833 10.5 2.5V4.5C10.5 4.64167 10.4521 4.76042 10.3562 4.85625C10.2604 4.95208 10.1417 5 10 5H8C7.85833 5 7.73958 4.95208 7.64375 4.85625C7.54792 4.76042 7.5 4.64167 7.5 4.5C7.5 4.35833 7.54792 4.23958 7.64375 4.14375C7.73958 4.04792 7.85833 4 8 4H8.875C8.53333 3.53333 8.1125 3.16667 7.6125 2.9C7.1125 2.63333 6.575 2.5 6 2.5C5.025 2.5 4.19792 2.83958 3.51875 3.51875C2.83958 4.19792 2.5 5.025 2.5 6C2.5 6.975 2.83958 7.80208 3.51875 8.48125C4.19792 9.16042 5.025 9.5 6 9.5C6.79167 9.5 7.5 9.2625 8.125 8.7875C8.75 8.3125 9.1625 7.7 9.3625 6.95C9.40417 6.81667 9.47917 6.71667 9.5875 6.65C9.69583 6.58333 9.81667 6.55833 9.95 6.575C10.0917 6.59167 10.2042 6.65208 10.2875 6.75625C10.3708 6.86042 10.3958 6.975 10.3625 7.1C10.1208 8.09167 9.59583 8.90625 8.7875 9.54375C7.97917 10.1812 7.05 10.5 6 10.5ZM6.5 5.8L7.75 7.05C7.84167 7.14167 7.8875 7.25833 7.8875 7.4C7.8875 7.54167 7.84167 7.65833 7.75 7.75C7.65833 7.84167 7.54167 7.8875 7.4 7.8875C7.25833 7.8875 7.14167 7.84167 7.05 7.75L5.65 6.35C5.6 6.3 5.5625 6.24375 5.5375 6.18125C5.5125 6.11875 5.5 6.05417 5.5 5.9875V4C5.5 3.85833 5.54792 3.73958 5.64375 3.64375C5.73958 3.54792 5.85833 3.5 6 3.5C6.14167 3.5 6.26042 3.54792 6.35625 3.64375C6.45208 3.73958 6.5 3.85833 6.5 4V5.8Z" fill="#888888"/>
</g>
</svg>
