<svg width="16" height="12" viewBox="0 0 16 12" fill="none" xmlns="http://www.w3.org/2000/svg">
  <path d="M4.33332 11.3324C3.32221 11.3324 2.45832 10.9824 1.74166 10.2824C1.02499 9.58242 0.666656 8.72687 0.666656 7.71576C0.666656 6.84909 0.927768 6.07687 1.44999 5.39909C1.97221 4.72131 2.65555 4.28798 3.49999 4.09909C3.68888 3.29909 4.1611 2.53798 4.91666 1.81576C5.67221 1.09353 6.47777 0.732422 7.33332 0.732422C7.69999 0.732422 8.01388 0.862977 8.27499 1.12409C8.5361 1.3852 8.66666 1.69909 8.66666 2.06576V6.09909L9.26666 5.51576C9.38888 5.39353 9.54166 5.33242 9.72499 5.33242C9.90832 5.33242 10.0667 5.39909 10.2 5.53242C10.3222 5.65464 10.3833 5.8102 10.3833 5.99909C10.3833 6.18798 10.3222 6.34353 10.2 6.46576L8.46666 8.19909C8.39999 8.26576 8.32777 8.31298 8.24999 8.34076C8.17221 8.36853 8.08888 8.38242 7.99999 8.38242C7.9111 8.38242 7.82777 8.36853 7.74999 8.34076C7.67221 8.31298 7.59999 8.26576 7.53332 8.19909L5.79999 6.46576C5.67777 6.34353 5.61388 6.19076 5.60832 6.00742C5.60277 5.82409 5.66666 5.66576 5.79999 5.53242C5.92221 5.4102 6.07499 5.34631 6.25832 5.34076C6.44166 5.3352 6.59999 5.39353 6.73332 5.51576L7.33332 6.09909V2.06576C6.48888 2.22131 5.83332 2.62964 5.36666 3.29076C4.89999 3.95187 4.66666 4.63242 4.66666 5.33242H4.33332C3.68888 5.33242 3.13888 5.5602 2.68332 6.01576C2.22777 6.47131 1.99999 7.02131 1.99999 7.66576C1.99999 8.3102 2.22777 8.8602 2.68332 9.31576C3.13888 9.77131 3.68888 9.99909 4.33332 9.99909H12.3333C12.8 9.99909 13.1944 9.83798 13.5167 9.51576C13.8389 9.19353 14 8.79909 14 8.33242C14 7.86576 13.8389 7.47131 13.5167 7.14909C13.1944 6.82687 12.8 6.66576 12.3333 6.66576H11.3333V5.33242C11.3333 4.79909 11.2111 4.30187 10.9667 3.84076C10.7222 3.37964 10.4 2.98798 9.99999 2.66576V1.11576C10.8222 1.50464 11.4722 2.07964 11.95 2.84076C12.4278 3.60187 12.6667 4.43242 12.6667 5.33242C13.4333 5.42131 14.0694 5.75187 14.575 6.32409C15.0805 6.89631 15.3333 7.56576 15.3333 8.33242C15.3333 9.16576 15.0417 9.87409 14.4583 10.4574C13.875 11.0408 13.1667 11.3324 12.3333 11.3324H4.33332Z" fill="#888888"/>
</svg>
