<svg width="12" height="12" viewBox="0 0 12 12" fill="none" xmlns="http://www.w3.org/2000/svg">
  <path d="M3.08332 11.1041C2.31751 11.1041 1.66425 10.8338 1.12355 10.2931C0.582851 9.75239 0.3125 9.09913 0.3125 8.33332C0.3125 7.81879 0.437202 7.35157 0.686606 6.93164C0.93602 6.51172 1.26826 6.18098 1.68332 5.93942C1.83887 5.84893 1.98957 5.84762 2.1354 5.9355C2.28123 6.02337 2.35414 6.15181 2.35414 6.32082C2.35414 6.39785 2.33694 6.46983 2.30254 6.53676C2.26813 6.60369 2.2214 6.65286 2.16232 6.68427C1.87514 6.84506 1.64087 7.07186 1.45951 7.36465C1.27815 7.65744 1.18747 7.98033 1.18747 8.33332C1.18747 8.85682 1.37257 9.30368 1.74276 9.67388C2.11296 10.0441 2.55982 10.2292 3.08332 10.2292C3.59935 10.2292 4.04059 10.0506 4.40705 9.69351C4.7735 9.3364 4.9642 8.9017 4.97917 8.38941C4.9829 8.24657 5.02534 8.1286 5.10648 8.0355C5.18763 7.94239 5.29775 7.89583 5.43685 7.89583H8.26602C8.33258 7.78964 8.42269 7.70326 8.53636 7.63669C8.65003 7.57013 8.7768 7.53685 8.91665 7.53685C9.13727 7.53685 9.32517 7.61444 9.48036 7.76962C9.63553 7.9248 9.71312 8.1127 9.71312 8.33332C9.71312 8.55394 9.63553 8.74184 9.48036 8.89702C9.32517 9.0522 9.13727 9.12979 8.91665 9.12979C8.77307 9.12979 8.64537 9.09744 8.53356 9.03275C8.42176 8.96806 8.33258 8.88074 8.26602 8.77081H5.81825C5.70458 9.46408 5.38842 10.0263 4.86978 10.4574C4.35114 10.8886 3.75565 11.1041 3.08332 11.1041ZM3.08332 9.12979C2.8627 9.12979 2.6748 9.0522 2.51961 8.89702C2.36444 8.74184 2.28685 8.55394 2.28685 8.33332C2.28685 8.12691 2.35771 7.9478 2.49943 7.79598C2.64115 7.64417 2.82045 7.56265 3.03734 7.55143L4.46987 5.16986C4.16549 4.91109 3.93122 4.60129 3.76706 4.24045C3.60291 3.87961 3.52083 3.4939 3.52083 3.08332C3.52083 2.31751 3.79118 1.66425 4.33189 1.12355C4.87259 0.582851 5.52584 0.3125 6.29165 0.3125C6.96846 0.3125 7.55946 0.526574 8.06465 0.954721C8.56983 1.38288 8.88262 1.91667 9.00302 2.55609C9.03667 2.6922 9.00919 2.8141 8.92058 2.92178C8.83196 3.02947 8.7166 3.08332 8.57451 3.08332C8.47804 3.08332 8.38792 3.04743 8.30417 2.97564C8.2204 2.90384 8.16468 2.81671 8.13701 2.71426C8.05251 2.2775 7.83993 1.91384 7.49927 1.62329C7.15862 1.33275 6.75608 1.18747 6.29165 1.18747C5.76815 1.18747 5.3213 1.37257 4.95109 1.74276C4.5809 2.11296 4.3958 2.55982 4.3958 3.08332C4.3958 3.41537 4.47415 3.71976 4.63083 3.99647C4.7875 4.27317 4.99784 4.50052 5.26184 4.67852C5.37551 4.74882 5.44749 4.83856 5.47777 4.94774C5.50807 5.05693 5.49292 5.16238 5.43234 5.2641L3.79116 8.0035C3.82183 8.05586 3.84426 8.10896 3.85847 8.1628C3.87268 8.21665 3.87979 8.27349 3.87979 8.33332C3.87979 8.55394 3.8022 8.74184 3.64702 8.89702C3.49184 9.0522 3.30394 9.12979 3.08332 9.12979ZM8.91665 11.1041C8.65266 11.1041 8.39969 11.0688 8.15775 10.9981C7.91582 10.9275 7.68903 10.8274 7.47738 10.6981C7.2822 10.5821 7.20386 10.4152 7.24238 10.1972C7.28089 9.97918 7.42541 9.87018 7.67593 9.87018C7.72081 9.87018 7.76774 9.87991 7.81672 9.89935C7.86571 9.9188 7.91077 9.94123 7.95189 9.96665C8.09324 10.0534 8.24544 10.1189 8.40847 10.163C8.57151 10.2071 8.7409 10.2292 8.91665 10.2292C9.44016 10.2292 9.88701 10.0441 10.2572 9.67388C10.6274 9.30368 10.8125 8.85682 10.8125 8.33332C10.8125 7.80982 10.6274 7.36296 10.2572 6.99276C9.88701 6.62257 9.44016 6.43747 8.91665 6.43747C8.81943 6.43747 8.72707 6.44476 8.63957 6.45935C8.55207 6.47393 8.46457 6.49394 8.37707 6.51937C8.24395 6.5605 8.11682 6.56012 7.99566 6.51825C7.87451 6.47637 7.78364 6.40756 7.72306 6.31184L6.25464 3.86521C6.05047 3.85997 5.87286 3.78425 5.72179 3.63804C5.57072 3.49184 5.49518 3.30693 5.49518 3.08332C5.49518 2.8627 5.57277 2.6748 5.72795 2.51962C5.88313 2.36444 6.07104 2.28685 6.29165 2.28685C6.51227 2.28685 6.70017 2.36444 6.85536 2.51962C7.01053 2.6748 7.08812 2.8627 7.08812 3.08332C7.08812 3.14315 7.08251 3.19849 7.07129 3.24935C7.06007 3.30021 7.03913 3.34994 7.00847 3.39855L8.33332 5.62308C8.42232 5.60364 8.51524 5.58868 8.61208 5.57821C8.70893 5.56774 8.81046 5.5625 8.91665 5.5625C9.68246 5.5625 10.3357 5.83285 10.8764 6.37355C11.4171 6.91425 11.6875 7.56751 11.6875 8.33332C11.6875 9.09913 11.4171 9.75239 10.8764 10.2931C10.3357 10.8338 9.68246 11.1041 8.91665 11.1041Z" fill="white"/>
</svg>
