<svg width="14" height="14" viewBox="0 0 14 14" fill="none" xmlns="http://www.w3.org/2000/svg">
<mask id="mask0_787_39258" style="mask-type:alpha" maskUnits="userSpaceOnUse" x="0" y="0" width="14" height="14">
<rect width="14" height="14" fill="#D9D9D9"/>
</mask>
<g mask="url(#mask0_787_39258)">
<path d="M9.60834 7.06002C9.53855 7.06002 9.47336 7.0488 9.41278 7.02637C9.3522 7.00393 9.29462 6.96542 9.24003 6.91083L7.09743 4.76822C7.04283 4.71363 7.00431 4.65579 6.98187 4.59472C6.95944 4.53364 6.94823 4.46821 6.94823 4.39841C6.94823 4.32861 6.95944 4.26341 6.98187 4.20284C7.00431 4.14227 7.04283 4.08468 7.09743 4.03008L9.24003 1.88748C9.29462 1.83289 9.35245 1.79438 9.41353 1.77194C9.4746 1.7495 9.54004 1.73828 9.60985 1.73828C9.67964 1.73828 9.74483 1.7495 9.80541 1.77194C9.86599 1.79438 9.92357 1.83289 9.97816 1.88748L12.1208 4.03008C12.1754 4.08468 12.2139 4.14252 12.2363 4.20359C12.2587 4.26467 12.27 4.3301 12.27 4.3999C12.27 4.46971 12.2587 4.53489 12.2363 4.59546C12.2139 4.65604 12.1754 4.71363 12.1208 4.76822L9.97816 6.91083C9.92357 6.96542 9.86574 7.00393 9.80466 7.02637C9.74359 7.0488 9.67815 7.06002 9.60834 7.06002ZM2.746 6.30394C2.5966 6.30394 2.47138 6.25342 2.37033 6.15236C2.26928 6.05131 2.21875 5.92609 2.21875 5.77671V2.7479C2.21875 2.59851 2.26928 2.47329 2.37033 2.37223C2.47138 2.27118 2.5966 2.22065 2.746 2.22065H5.77481C5.92419 2.22065 6.04941 2.27118 6.15046 2.37223C6.25151 2.47329 6.30204 2.59851 6.30204 2.7479V5.77671C6.30204 5.92609 6.25151 6.05131 6.15046 6.15236C6.04941 6.25342 5.92419 6.30394 5.77481 6.30394H2.746ZM8.22032 11.7783C8.07093 11.7783 7.94572 11.7278 7.84466 11.6267C7.74361 11.5256 7.69309 11.4004 7.69309 11.251V8.22222C7.69309 8.07284 7.74361 7.94762 7.84466 7.84657C7.94572 7.74552 8.07093 7.69499 8.22032 7.69499H11.2491C11.3985 7.69499 11.5237 7.74552 11.6248 7.84657C11.7258 7.94762 11.7764 8.07284 11.7764 8.22222V11.251C11.7764 11.4004 11.7258 11.5256 11.6248 11.6267C11.5237 11.7278 11.3985 11.7783 11.2491 11.7783H8.22032ZM2.746 11.7783C2.5966 11.7783 2.47138 11.7278 2.37033 11.6267C2.26928 11.5256 2.21875 11.4004 2.21875 11.251V8.22222C2.21875 8.07284 2.26928 7.94762 2.37033 7.84657C2.47138 7.74552 2.5966 7.69499 2.746 7.69499H5.77481C5.92419 7.69499 6.04941 7.74552 6.15046 7.84657C6.25151 7.94762 6.30204 8.07284 6.30204 8.22222V11.251C6.30204 11.4004 6.25151 11.5256 6.15046 11.6267C6.04941 11.7278 5.92419 11.7783 5.77481 11.7783H2.746ZM3.09374 5.42897H5.42707V3.09564H3.09374V5.42897ZM9.62367 6.06166L11.2716 4.41374L9.62367 2.76582L7.97575 4.41374L9.62367 6.06166ZM8.56806 10.9033H10.9014V8.56996H8.56806V10.9033ZM3.09374 10.9033H5.42707V8.56996H3.09374V10.9033Z" fill="#888888"/>
</g>
</svg>
