<svg width="14" height="12" viewBox="0 0 14 12" fill="none" xmlns="http://www.w3.org/2000/svg">
  <path d="M9.16667 10.8205V9.83332H7.70512C7.37264 9.83332 7.08867 9.71559 6.8532 9.48012C6.61773 9.24465 6.5 8.96068 6.5 8.6282V3.16665H4.8333V4.15385C4.8333 4.43505 4.7348 4.67415 4.5378 4.87115C4.3408 5.06815 4.1017 5.16665 3.8205 5.16665H1.5128C1.2316 5.16665 0.9925 5.06815 0.7955 4.87115C0.5985 4.67415 0.5 4.43505 0.5 4.15385V1.17949C0.5 0.898287 0.5985 0.659188 0.7955 0.462188C0.9925 0.265188 1.2316 0.166687 1.5128 0.166687H3.8205C4.1017 0.166687 4.3408 0.265188 4.5378 0.462188C4.7348 0.659188 4.8333 0.898287 4.8333 1.17949V2.16669H9.16667V1.17949C9.16667 0.898287 9.26517 0.659188 9.46217 0.462188C9.65917 0.265188 9.89827 0.166687 10.1795 0.166687H12.4872C12.7684 0.166687 13.0075 0.265188 13.2045 0.462188C13.4015 0.659188 13.5 0.898287 13.5 1.17949V4.15385C13.5 4.43505 13.4015 4.67415 13.2045 4.87115C13.0075 5.06815 12.7684 5.16665 12.4872 5.16665H10.1795C9.89827 5.16665 9.65917 5.06815 9.46217 4.87115C9.26517 4.67415 9.16667 4.43505 9.16667 4.15385V3.16665H7.49997V8.6282C7.49997 8.68804 7.5192 8.73719 7.55767 8.77565C7.59613 8.81412 7.64528 8.83335 7.70512 8.83335H9.16667V7.84615C9.16667 7.56495 9.26517 7.32585 9.46217 7.12885C9.65917 6.93185 9.89827 6.83335 10.1795 6.83335H12.4872C12.7684 6.83335 13.0075 6.93185 13.2045 7.12885C13.4015 7.32585 13.5 7.56495 13.5 7.84615V10.8205C13.5 11.1017 13.4015 11.3408 13.2045 11.5378C13.0075 11.7348 12.7684 11.8333 12.4872 11.8333H10.1795C9.89827 11.8333 9.65917 11.7348 9.46217 11.5378C9.26517 11.3408 9.16667 11.1017 9.16667 10.8205ZM10.1666 4.16669H12.5V1.16665H10.1666V4.16669ZM10.1666 10.8334H12.5V7.83332H10.1666V10.8334ZM1.49997 4.16669H3.83333V1.16665H1.49997V4.16669Z" fill="white"/>
</svg>
