<svg width="28" height="46" viewBox="0 0 28 46" fill="none" xmlns="http://www.w3.org/2000/svg">
<path d="M16.749 22.5L8.23438 21V32.0838C8.23448 32.2042 8.25829 32.3235 8.30447 32.4347C8.35064 32.5459 8.41826 32.6469 8.50348 32.732C8.58869 32.817 8.68983 32.8845 8.80112 32.9305C8.9124 32.9765 9.03165 33.0001 9.15207 33H23.8444C23.9649 33.0003 24.0843 32.9768 24.1958 32.9309C24.3072 32.885 24.4086 32.8176 24.4939 32.7325C24.5793 32.6474 24.6471 32.5463 24.6933 32.435C24.7396 32.3237 24.7635 32.2044 24.7636 32.0838V28L16.749 22.5Z" fill="#185C37"/>
<path d="M16.749 13H9.15207C9.03165 12.9999 8.9124 13.0235 8.80112 13.0695C8.68983 13.1155 8.58869 13.1829 8.50348 13.268C8.41826 13.3531 8.35064 13.4541 8.30447 13.5653C8.25829 13.6765 8.23448 13.7957 8.23438 13.9162V18L16.749 23L21.2574 24.5L24.7636 23V18L16.749 13Z" fill="#21A366"/>
<path d="M8.23438 18H16.749V23H8.23438V18Z" fill="#107C41"/>
<path opacity="0.1" d="M14.3282 17H8.23438V29.5H14.3282C14.571 29.4988 14.8036 29.4019 14.9755 29.2305C15.1474 29.059 15.2449 28.8266 15.2467 28.5838V17.9162C15.2449 17.6733 15.1474 17.441 14.9755 17.2695C14.8036 17.098 14.571 17.0012 14.3282 17Z" fill="black"/>
<path opacity="0.2" d="M13.8274 17.5H8.23438V30H13.8274C14.0703 29.9988 14.3028 29.9019 14.4747 29.7305C14.6467 29.559 14.7441 29.3266 14.7459 29.0838V18.4162C14.7441 18.1733 14.6467 17.941 14.4747 17.7695C14.3028 17.598 14.0703 17.5012 13.8274 17.5Z" fill="black"/>
<path opacity="0.2" d="M13.8274 17.5H8.23438V29H13.8274C14.0703 28.9988 14.3028 28.9019 14.4747 28.7305C14.6467 28.559 14.7441 28.3266 14.7459 28.0838V18.4162C14.7441 18.1733 14.6467 17.941 14.4747 17.7695C14.3028 17.598 14.0703 17.5012 13.8274 17.5Z" fill="black"/>
<path opacity="0.2" d="M13.3267 17.5H8.23438V29H13.3267C13.5695 28.9988 13.8021 28.9019 13.974 28.7305C14.1459 28.559 14.2433 28.3266 14.2451 28.0838V18.4162C14.2433 18.1733 14.1459 17.941 13.974 17.7695C13.8021 17.598 13.5695 17.5012 13.3267 17.5Z" fill="black"/>
<path d="M4.14502 17.5H13.3281C13.5713 17.4998 13.8047 17.5962 13.9769 17.768C14.1492 17.9398 14.2461 18.1729 14.2465 18.4162V27.5838C14.2461 27.8271 14.1492 28.0602 13.9769 28.232C13.8047 28.4038 13.5713 28.5002 13.3281 28.5H4.14502C4.02455 28.5002 3.90521 28.4766 3.79384 28.4307C3.68246 28.3848 3.58124 28.3173 3.49594 28.2322C3.41064 28.1472 3.34295 28.0461 3.29673 27.9348C3.25051 27.8236 3.22666 27.7043 3.22656 27.5838V18.4162C3.22666 18.2957 3.25051 18.1764 3.29673 18.0651C3.34295 17.9539 3.41064 17.8528 3.49594 17.7677C3.58124 17.6827 3.68246 17.6152 3.79384 17.5693C3.90521 17.5233 4.02455 17.4998 4.14502 17.5Z" fill="url(#paint0_linear_808_12347)"/>
<path d="M6.07031 25.978L8.00185 22.9903L6.23262 20.0195H7.65339L8.61877 21.9218C8.708 22.1018 8.77262 22.2357 8.80185 22.3249H8.81492C8.878 22.1803 8.94492 22.0411 9.01492 21.9049L10.0472 20.0226H11.3549L9.54031 22.9765L11.4011 25.9803H10.0095L8.89415 23.8949C8.84237 23.8053 8.79836 23.7113 8.76262 23.6141H8.74415C8.71163 23.7088 8.66827 23.7994 8.61492 23.8841L7.46646 25.978H6.07031Z" fill="white"/>
<path d="M23.8461 13H16.75V18H24.7646V13.9162C24.7645 13.7957 24.7407 13.6764 24.6944 13.5651C24.6482 13.4539 24.5805 13.3528 24.4952 13.2677C24.4099 13.1827 24.3087 13.1152 24.1973 13.0693C24.086 13.0233 23.9666 12.9998 23.8461 13Z" fill="#33C481"/>
<path d="M16.75 23H24.7646V28H16.75V23Z" fill="#107C41"/>
<defs>
<linearGradient id="paint0_linear_808_12347" x1="5.14502" y1="16.78" x2="12.3281" y2="29.22" gradientUnits="userSpaceOnUse">
<stop stop-color="#18884F"/>
<stop offset="0.5" stop-color="#117E43"/>
<stop offset="1" stop-color="#0B6631"/>
</linearGradient>
</defs>
</svg>
