<svg width="28" height="46" viewBox="0 0 28 46" fill="none" xmlns="http://www.w3.org/2000/svg">
<path d="M22.3325 31.3264V23.9478L19.0002 22.2821V13H5.67188V32.9921H22.3325V31.3264ZM19.0002 31.3264V24.8211L20.666 25.6936V31.3264H19.0002Z" fill="#C09553"/>
<path d="M15.1797 29.8203H17.643V30.5293H15.1797V29.8203Z" fill="url(#paint0_linear_808_12294)"/>
<path d="M15.1797 28.1797H17.643V28.8887H15.1797V28.1797Z" fill="url(#paint1_linear_808_12294)"/>
<path d="M15.1797 26.5391H17.643V27.2481H15.1797V26.5391Z" fill="url(#paint2_linear_808_12294)"/>
<path d="M15.1797 24.8945H17.643V25.6035H15.1797V24.8945Z" fill="url(#paint3_linear_808_12294)"/>
<path d="M15.1797 23.2539H17.643V23.9629H15.1797V23.2539Z" fill="url(#paint4_linear_808_12294)"/>
<path d="M15.1797 21.6094H17.643V22.3184H15.1797V21.6094Z" fill="url(#paint5_linear_808_12294)"/>
<path d="M15.1797 19.9688H17.643V20.6778H15.1797V19.9688Z" fill="url(#paint6_linear_808_12294)"/>
<path d="M15.1797 18.3281H17.643V19.0371H15.1797V18.3281Z" fill="url(#paint7_linear_808_12294)"/>
<path d="M15.1797 16.6836H17.643V17.3926H15.1797V16.6836Z" fill="url(#paint8_linear_808_12294)"/>
<path d="M14.1719 30.6523H16.6352V31.3614H14.1719V30.6523Z" fill="url(#paint9_linear_808_12294)"/>
<path d="M14.1719 29.0078H16.6352V29.7168H14.1719V29.0078Z" fill="url(#paint10_linear_808_12294)"/>
<path d="M14.1719 27.3672H16.6352V28.0762H14.1719V27.3672Z" fill="url(#paint11_linear_808_12294)"/>
<path d="M14.1719 25.7227H16.6352V26.4317H14.1719V25.7227Z" fill="url(#paint12_linear_808_12294)"/>
<path d="M14.1719 24.082H16.6352V24.791H14.1719V24.082Z" fill="url(#paint13_linear_808_12294)"/>
<path d="M15.1797 31.4648H17.643V32.1739H15.1797V31.4648Z" fill="url(#paint14_linear_808_12294)"/>
<path d="M14.1719 22.4414H16.6352V23.1504H14.1719V22.4414Z" fill="url(#paint15_linear_808_12294)"/>
<path d="M14.1719 20.7969H16.6352V21.5059H14.1719V20.7969Z" fill="url(#paint16_linear_808_12294)"/>
<path d="M14.1719 19.1562H16.6352V19.8653H14.1719V19.1562Z" fill="url(#paint17_linear_808_12294)"/>
<path d="M14.1719 17.5156H16.6352V18.2246H14.1719V17.5156Z" fill="url(#paint18_linear_808_12294)"/>
<path d="M14.1719 32.2891H16.6352V32.9981H14.1719V32.2891Z" fill="url(#paint19_linear_808_12294)"/>
<path d="M16.9324 15.7925C16.9281 15.6913 16.885 15.5957 16.8122 15.5253C16.7394 15.4549 16.6424 15.4151 16.5412 15.4141H16.5347V15.8118H16.6004L16.7475 17.6068H15.1396L15.2902 15.8118H15.3573V15.4141H15.3259C15.2247 15.4149 15.1276 15.4547 15.0549 15.5251C14.9822 15.5956 14.9394 15.6913 14.9354 15.7925L14.7112 23.3388C14.7094 23.3881 14.7177 23.4372 14.7354 23.4833C14.7531 23.5293 14.7799 23.5713 14.8143 23.6067C14.8486 23.6421 14.8898 23.6702 14.9352 23.6893C14.9807 23.7084 15.0296 23.7182 15.0789 23.7179H16.8153C16.8646 23.7181 16.9133 23.7083 16.9587 23.6891C17.004 23.6699 17.045 23.6418 17.0792 23.6064C17.1134 23.571 17.1401 23.529 17.1577 23.483C17.1753 23.4371 17.1834 23.388 17.1816 23.3388L16.9324 15.7925ZM15.9442 23.2895C15.7789 23.2895 15.6172 23.2405 15.4797 23.1486C15.3422 23.0568 15.2351 22.9262 15.1718 22.7734C15.1085 22.6206 15.092 22.4525 15.1242 22.2903C15.1565 22.1281 15.2361 21.9792 15.353 21.8622C15.47 21.7453 15.6189 21.6657 15.7811 21.6334C15.9433 21.6011 16.1114 21.6177 16.2642 21.681C16.417 21.7443 16.5476 21.8514 16.6394 21.9889C16.7313 22.1264 16.7803 22.2881 16.7803 22.4534C16.7798 22.6748 16.6914 22.8869 16.5347 23.0433C16.378 23.1996 16.1656 23.2874 15.9442 23.2874V23.2895Z" fill="url(#paint20_linear_808_12294)"/>
<path d="M15.5 14.2852H16.3854V16.4657H15.5V14.2852Z" fill="url(#paint21_linear_808_12294)"/>
<path d="M17.8604 14.8278C17.8604 14.3451 17.6686 13.8822 17.3273 13.5409C16.986 13.1996 16.523 13.0078 16.0404 13.0078H15.8433C15.5584 13.0079 15.2776 13.0749 15.0233 13.2033C14.7691 13.3318 14.5485 13.518 14.3793 13.7472C14.2101 13.9764 14.0971 14.2421 14.0493 14.5229C14.0015 14.8037 14.0202 15.0918 14.104 15.364V15.3683C14.2646 15.9637 14.3275 16.5813 14.2903 17.1969C14.3014 17.3712 14.3476 17.5415 14.4263 17.6975C14.5049 17.8535 14.6144 17.9919 14.748 18.1044L14.8258 15.6475C14.8335 15.5396 14.8821 15.4387 14.9618 15.3656C15.0414 15.2924 15.1461 15.2525 15.2542 15.2541H15.3506V14.1331H16.5309V15.2541H16.6023C16.7107 15.2528 16.8156 15.2927 16.8957 15.3657C16.9759 15.4387 17.0254 15.5394 17.0342 15.6475L17.1206 18.1194C17.2593 18.0067 17.3731 17.8666 17.4549 17.7079C17.5367 17.5491 17.5848 17.3751 17.5962 17.1969V17.1412C17.5962 17.1312 17.5962 17.1219 17.5962 17.1119C17.5962 17.1019 17.5962 17.0934 17.5962 17.0841C17.565 16.5173 17.6218 15.9491 17.7647 15.3997C17.827 15.2154 17.8593 15.0223 17.8604 14.8278Z" fill="url(#paint22_linear_808_12294)"/>
<defs>
<linearGradient id="paint0_linear_808_12294" x1="15.1797" y1="30.1752" x2="17.6423" y2="30.1752" gradientUnits="userSpaceOnUse">
<stop stop-color="#4D4D4D"/>
<stop offset="0.5" stop-color="white"/>
<stop offset="1" stop-color="#4D4D4D"/>
</linearGradient>
<linearGradient id="paint1_linear_808_12294" x1="15.1797" y1="28.5338" x2="17.6423" y2="28.5338" gradientUnits="userSpaceOnUse">
<stop stop-color="#4D4D4D"/>
<stop offset="0.5" stop-color="white"/>
<stop offset="1" stop-color="#4D4D4D"/>
</linearGradient>
<linearGradient id="paint2_linear_808_12294" x1="15.1797" y1="26.8932" x2="17.6423" y2="26.8932" gradientUnits="userSpaceOnUse">
<stop stop-color="#4D4D4D"/>
<stop offset="0.5" stop-color="white"/>
<stop offset="1" stop-color="#4D4D4D"/>
</linearGradient>
<linearGradient id="paint3_linear_808_12294" x1="15.1797" y1="25.2487" x2="17.6423" y2="25.2487" gradientUnits="userSpaceOnUse">
<stop stop-color="#4D4D4D"/>
<stop offset="0.5" stop-color="white"/>
<stop offset="1" stop-color="#4D4D4D"/>
</linearGradient>
<linearGradient id="paint4_linear_808_12294" x1="15.1797" y1="23.6088" x2="17.6423" y2="23.6088" gradientUnits="userSpaceOnUse">
<stop stop-color="#4D4D4D"/>
<stop offset="0.5" stop-color="white"/>
<stop offset="1" stop-color="#4D4D4D"/>
</linearGradient>
<linearGradient id="paint5_linear_808_12294" x1="15.1797" y1="21.9642" x2="17.6423" y2="21.9642" gradientUnits="userSpaceOnUse">
<stop stop-color="#4D4D4D"/>
<stop offset="0.5" stop-color="white"/>
<stop offset="1" stop-color="#4D4D4D"/>
</linearGradient>
<linearGradient id="paint6_linear_808_12294" x1="15.1797" y1="20.3236" x2="17.6423" y2="20.3236" gradientUnits="userSpaceOnUse">
<stop stop-color="#4D4D4D"/>
<stop offset="0.5" stop-color="white"/>
<stop offset="1" stop-color="#4D4D4D"/>
</linearGradient>
<linearGradient id="paint7_linear_808_12294" x1="15.1797" y1="18.6823" x2="17.6423" y2="18.6823" gradientUnits="userSpaceOnUse">
<stop stop-color="#4D4D4D"/>
<stop offset="0.5" stop-color="white"/>
<stop offset="1" stop-color="#4D4D4D"/>
</linearGradient>
<linearGradient id="paint8_linear_808_12294" x1="15.1797" y1="17.0377" x2="17.6423" y2="17.0377" gradientUnits="userSpaceOnUse">
<stop stop-color="#4D4D4D"/>
<stop offset="0.5" stop-color="white"/>
<stop offset="1" stop-color="#4D4D4D"/>
</linearGradient>
<linearGradient id="paint9_linear_808_12294" x1="14.1719" y1="31.0065" x2="16.6345" y2="31.0065" gradientUnits="userSpaceOnUse">
<stop stop-color="#4D4D4D"/>
<stop offset="0.5" stop-color="white"/>
<stop offset="1" stop-color="#4D4D4D"/>
</linearGradient>
<linearGradient id="paint10_linear_808_12294" x1="14.1719" y1="29.3627" x2="16.6345" y2="29.3627" gradientUnits="userSpaceOnUse">
<stop stop-color="#4D4D4D"/>
<stop offset="0.5" stop-color="white"/>
<stop offset="1" stop-color="#4D4D4D"/>
</linearGradient>
<linearGradient id="paint11_linear_808_12294" x1="14.1719" y1="27.722" x2="16.6345" y2="27.722" gradientUnits="userSpaceOnUse">
<stop stop-color="#4D4D4D"/>
<stop offset="0.5" stop-color="white"/>
<stop offset="1" stop-color="#4D4D4D"/>
</linearGradient>
<linearGradient id="paint12_linear_808_12294" x1="14.1719" y1="26.0775" x2="16.6345" y2="26.0775" gradientUnits="userSpaceOnUse">
<stop stop-color="#4D4D4D"/>
<stop offset="0.5" stop-color="white"/>
<stop offset="1" stop-color="#4D4D4D"/>
</linearGradient>
<linearGradient id="paint13_linear_808_12294" x1="14.1719" y1="24.4362" x2="16.6345" y2="24.4362" gradientUnits="userSpaceOnUse">
<stop stop-color="#4D4D4D"/>
<stop offset="0.5" stop-color="white"/>
<stop offset="1" stop-color="#4D4D4D"/>
</linearGradient>
<linearGradient id="paint14_linear_808_12294" x1="15.1797" y1="31.8197" x2="17.6423" y2="31.8197" gradientUnits="userSpaceOnUse">
<stop stop-color="#4D4D4D"/>
<stop offset="0.5" stop-color="white"/>
<stop offset="1" stop-color="#4D4D4D"/>
</linearGradient>
<linearGradient id="paint15_linear_808_12294" x1="14.1719" y1="22.7956" x2="16.6345" y2="22.7956" gradientUnits="userSpaceOnUse">
<stop stop-color="#4D4D4D"/>
<stop offset="0.5" stop-color="white"/>
<stop offset="1" stop-color="#4D4D4D"/>
</linearGradient>
<linearGradient id="paint16_linear_808_12294" x1="14.1719" y1="21.1517" x2="16.6345" y2="21.1517" gradientUnits="userSpaceOnUse">
<stop stop-color="#4D4D4D"/>
<stop offset="0.5" stop-color="white"/>
<stop offset="1" stop-color="#4D4D4D"/>
</linearGradient>
<linearGradient id="paint17_linear_808_12294" x1="14.1719" y1="19.5111" x2="16.6345" y2="19.5111" gradientUnits="userSpaceOnUse">
<stop stop-color="#4D4D4D"/>
<stop offset="0.5" stop-color="white"/>
<stop offset="1" stop-color="#4D4D4D"/>
</linearGradient>
<linearGradient id="paint18_linear_808_12294" x1="14.1719" y1="17.8705" x2="16.6345" y2="17.8705" gradientUnits="userSpaceOnUse">
<stop stop-color="#4D4D4D"/>
<stop offset="0.5" stop-color="white"/>
<stop offset="1" stop-color="#4D4D4D"/>
</linearGradient>
<linearGradient id="paint19_linear_808_12294" x1="14.1719" y1="32.6432" x2="16.6345" y2="32.6432" gradientUnits="userSpaceOnUse">
<stop stop-color="#4D4D4D"/>
<stop offset="0.5" stop-color="white"/>
<stop offset="1" stop-color="#4D4D4D"/>
</linearGradient>
<linearGradient id="paint20_linear_808_12294" x1="14.7083" y1="19.566" x2="17.1795" y2="19.566" gradientUnits="userSpaceOnUse">
<stop stop-color="#4D4D4D"/>
<stop offset="0.5" stop-color="white"/>
<stop offset="1" stop-color="#4D4D4D"/>
</linearGradient>
<linearGradient id="paint21_linear_808_12294" x1="15.5" y1="15.3754" x2="16.3854" y2="15.3754" gradientUnits="userSpaceOnUse">
<stop stop-color="#4D4D4D"/>
<stop offset="0.5" stop-color="white"/>
<stop offset="1" stop-color="#4D4D4D"/>
</linearGradient>
<linearGradient id="paint22_linear_808_12294" x1="14.0254" y1="15.564" x2="17.8625" y2="15.564" gradientUnits="userSpaceOnUse">
<stop stop-color="#4D4D4D"/>
<stop offset="0.5" stop-color="white"/>
<stop offset="1" stop-color="#4D4D4D"/>
</linearGradient>
</defs>
</svg>
